SplineFontDB: 3.2
FontName: clangenMedium
FullName: clangen Medium
FamilyName: clangen
Weight: Book
Copyright: scribble
Version: 
ItalicAngle: 0
UnderlinePosition: 0
UnderlineWidth: 0
Ascent: 819
Descent: 205
InvalidEm: 0
sfntRevision: 0x00010000
LayerCount: 2
Layer: 0 1 "Back" 1
Layer: 1 1 "Fore" 0
XUID: [1021 133 -499663452 29516]
StyleMap: 0x0040
FSType: 0
OS2Version: 3
OS2_WeightWidthSlopeOnly: 0
OS2_UseTypoMetrics: 0
CreationTime: 1720127807
ModificationTime: 1727361577
PfmFamily: 81
TTFWeight: 400
TTFWidth: 5
LineGap: 0
VLineGap: 0
Panose: 0 0 0 0 0 0 0 0 0 0
OS2TypoAscent: 950
OS2TypoAOffset: 0
OS2TypoDescent: -256
OS2TypoDOffset: 0
OS2TypoLinegap: 0
OS2WinAscent: 950
OS2WinAOffset: 0
OS2WinDescent: 256
OS2WinDOffset: 0
HheadAscent: 950
HheadAOffset: 0
HheadDescent: -256
HheadDOffset: 0
OS2SubXSize: 650
OS2SubYSize: 700
OS2SubXOff: 0
OS2SubYOff: 140
OS2SupXSize: 650
OS2SupYSize: 700
OS2SupXOff: 0
OS2SupYOff: 479
OS2StrikeYSize: 49
OS2StrikeYPos: 258
OS2CapHeight: 704
OS2XHeight: 502
OS2Vendor: 'XXXX'
OS2CodePages: 00000001.00000000
OS2UnicodeRanges: 00000003.00000000.00000000.00000000
MarkAttachClasses: 1
DEI: 91125
ShortTable: maxp 16
  1
  0
  113
  138
  9
  0
  0
  2
  0
  1
  1
  0
  64
  0
  0
  0
EndShort
LangName: 1033 "" "" "" " :clangen Medium" "" "Version " "" " " " " " " " " " " " " " " " " "" "clangen" "Medium"
GaspTable: 1 65535 2 0
Encoding: UnicodeFull
Compacted: 1
UnicodeInterp: none
NameList: AGL For New Fonts
DisplaySize: -48
AntiAlias: 1
FitToEm: 0
WinInfo: 0 19 12
Grid
-1024 78 m 0
 2048 78 l 1024
  Named: "lower"
-1024 534 m 0
 2048 534 l 1024
  Named: "upper"
965 1323 m 0
 965 -725 l 1024
  Named: "square icon right"
60 1331 m 0
 60 -717 l 1024
  Named: "square icon left"
-1024 -104.833333333 m 0
 2048 -104.833333333 l 1024
  Named: "icon bottoms"
-1066 799 m 0
 2006 799 l 1024
  Named: "icon tops"
EndSplineSet
BeginChars: 1114114 129

StartChar: .notdef
Encoding: 0 0 0
Width: 912
GlyphClass: 1
Flags: W
LayerCount: 2
Fore
SplineSet
0 0 m 1,0,-1
 0 1480 l 1,1,-1
 914 1480 l 1,2,-1
 914 0 l 1,3,-1
 0 0 l 1,0,-1
106 1374 m 1,4,-1
 106 106 l 1,5,-1
 808 106 l 1,6,-1
 808 1374 l 1,7,-1
 106 1374 l 1,4,-1
EndSplineSet
EndChar

StartChar: exclam
Encoding: 33 33 4
Width: 384
GlyphClass: 1
Flags: W
LayerCount: 2
Fore
SplineSet
256 0 m 1,0,-1
 192 0 l 1,1,-1
 128 0 l 1,2,-1
 128 64 l 1,3,-1
 128 128 l 1,4,-1
 192 128 l 1,5,-1
 256 128 l 1,6,-1
 256 64 l 1,7,-1
 256 0 l 1,0,-1
256 256 m 1,8,-1
 192 256 l 1,9,-1
 128 256 l 1,10,-1
 128 328 l 1,11,-1
 128 402 l 1,12,-1
 128 474 l 1,13,-1
 64 474 l 1,14,-1
 64 547 l 1,15,-1
 64 618 l 1,16,-1
 64 692 l 1,17,-1
 128 692 l 1,18,-1
 128 765 l 1,19,-1
 192 765 l 1,20,-1
 256 765 l 1,21,-1
 256 692 l 1,22,-1
 320 692 l 1,23,-1
 320 618 l 1,24,-1
 320 547 l 1,25,-1
 320 474 l 1,26,-1
 256 474 l 1,27,-1
 256 402 l 1,28,-1
 256 328 l 1,29,-1
 256 256 l 1,8,-1
EndSplineSet
EndChar

StartChar: quotedbl
Encoding: 34 34 5
Width: 512
GlyphClass: 1
Flags: W
LayerCount: 2
Fore
SplineSet
384 512 m 1,0,-1
 320 512 l 1,1,-1
 320 576 l 1,2,-1
 320 640 l 1,3,-1
 320 704 l 1,4,-1
 320 768 l 1,5,-1
 384 768 l 1,6,-1
 448 768 l 1,7,-1
 448 704 l 1,8,-1
 448 640 l 1,9,-1
 384 640 l 1,10,-1
 384 576 l 1,11,-1
 384 512 l 1,0,-1
192 512 m 1,12,-1
 128 512 l 1,13,-1
 128 576 l 1,14,-1
 128 640 l 1,15,-1
 64 640 l 1,16,-1
 64 704 l 1,17,-1
 64 768 l 1,18,-1
 128 768 l 1,19,-1
 192 768 l 1,20,-1
 192 704 l 1,21,-1
 192 640 l 1,22,-1
 192 576 l 1,23,-1
 192 512 l 1,12,-1
EndSplineSet
EndChar

StartChar: numbersign
Encoding: 35 35 6
Width: 575
GlyphClass: 1
Flags: W
LayerCount: 2
Fore
SplineSet
448 0 m 1,0,-1
 384 0 l 1,1,-1
 320 0 l 1,2,-1
 320 64 l 1,3,-1
 320 128 l 1,4,-1
 256 128 l 1,5,-1
 256 64 l 1,6,-1
 256 0 l 1,7,-1
 192 0 l 1,8,-1
 128 0 l 1,9,-1
 128 64 l 1,10,-1
 128 128 l 1,11,-1
 64 128 l 1,12,-1
 64 192 l 1,13,-1
 128 192 l 1,14,-1
 128 256 l 1,15,-1
 128 320 l 1,16,-1
 128 384 l 1,17,-1
 128 448 l 1,18,-1
 64 448 l 1,19,-1
 64 512 l 1,20,-1
 128 512 l 1,21,-1
 128 576 l 1,22,-1
 128 640 l 1,23,-1
 192 640 l 1,24,-1
 256 640 l 1,25,-1
 256 576 l 1,26,-1
 256 512 l 1,27,-1
 320 512 l 1,28,-1
 320 576 l 1,29,-1
 320 640 l 1,30,-1
 384 640 l 1,31,-1
 448 640 l 1,32,-1
 448 576 l 1,33,-1
 448 512 l 1,34,-1
 512 512 l 1,35,-1
 512 448 l 1,36,-1
 448 448 l 1,37,-1
 448 384 l 1,38,-1
 448 320 l 1,39,-1
 448 256 l 1,40,-1
 448 192 l 1,41,-1
 512 192 l 1,42,-1
 512 128 l 1,43,-1
 448 128 l 1,44,-1
 448 64 l 1,45,-1
 448 0 l 1,0,-1
256 192 m 1,46,-1
 320 192 l 1,47,-1
 320 256 l 1,48,-1
 320 320 l 1,49,-1
 320 384 l 1,50,-1
 320 448 l 1,51,-1
 256 448 l 1,52,-1
 256 384 l 1,53,-1
 256 320 l 1,54,-1
 256 256 l 1,55,-1
 256 192 l 1,46,-1
EndSplineSet
EndChar

StartChar: dollar
Encoding: 36 36 7
Width: 575
GlyphClass: 1
Flags: W
LayerCount: 2
Fore
SplineSet
512 512 m 1,0,-1
 448 512 l 1,1,-1
 448 576 l 1,2,-1
 384 576 l 1,3,-1
 384 640 l 1,4,-1
 320 640 l 1,5,-1
 256 640 l 1,6,-1
 192 640 l 1,7,-1
 192 576 l 1,8,-1
 192 512 l 1,9,-1
 192 448 l 1,10,-1
 256 448 l 1,11,-1
 320 448 l 1,12,-1
 384 448 l 1,13,-1
 448 448 l 1,14,-1
 448 384 l 1,15,-1
 512 384 l 1,16,-1
 512 320 l 1,17,-1
 512 256 l 1,18,-1
 512 192 l 1,19,-1
 512 128 l 1,20,-1
 512 64 l 1,21,-1
 448 64 l 1,22,-1
 448 0 l 1,23,-1
 384 0 l 1,24,-1
 384 -64 l 1,25,-1
 384 -128 l 1,26,-1
 320 -128 l 1,27,-1
 256 -128 l 1,28,-1
 256 -64 l 1,29,-1
 256 0 l 1,30,-1
 192 0 l 1,31,-1
 128 0 l 1,32,-1
 128 64 l 1,33,-1
 64 64 l 1,34,-1
 64 128 l 1,35,-1
 64 192 l 1,36,-1
 128 192 l 1,37,-1
 128 128 l 1,38,-1
 192 128 l 1,39,-1
 192 64 l 1,40,-1
 256 64 l 1,41,-1
 320 64 l 1,42,-1
 384 64 l 1,43,-1
 384 128 l 1,44,-1
 384 192 l 1,45,-1
 384 256 l 1,46,-1
 384 320 l 1,47,-1
 384 384 l 1,48,-1
 320 384 l 1,49,-1
 256 384 l 1,50,-1
 192 384 l 1,51,-1
 128 384 l 1,52,-1
 128 448 l 1,53,-1
 64 448 l 1,54,-1
 64 512 l 1,55,-1
 64 576 l 1,56,-1
 64 640 l 1,57,-1
 128 640 l 1,58,-1
 128 704 l 1,59,-1
 192 704 l 1,60,-1
 256 704 l 1,61,-1
 256 768 l 1,62,-1
 320 768 l 1,63,-1
 384 768 l 1,64,-1
 384 704 l 1,65,-1
 448 704 l 1,66,-1
 448 640 l 1,67,-1
 512 640 l 1,68,-1
 512 576 l 1,69,-1
 512 512 l 1,0,-1
EndSplineSet
EndChar

StartChar: percent
Encoding: 37 37 8
Width: 575
GlyphClass: 1
Flags: W
LayerCount: 2
Fore
SplineSet
128 0 m 1,0,-1
 64 0 l 1,1,-1
 64 64 l 1,2,-1
 64 128 l 1,3,-1
 128 128 l 1,4,-1
 128 192 l 1,5,-1
 192 192 l 1,6,-1
 192 256 l 1,7,-1
 256 256 l 1,8,-1
 256 320 l 1,9,-1
 256 384 l 1,10,-1
 320 384 l 1,11,-1
 320 448 l 1,12,-1
 384 448 l 1,13,-1
 384 512 l 1,14,-1
 448 512 l 1,15,-1
 448 576 l 1,16,-1
 512 576 l 1,17,-1
 512 512 l 1,18,-1
 512 448 l 1,19,-1
 512 384 l 1,20,-1
 448 384 l 1,21,-1
 384 384 l 1,22,-1
 384 320 l 1,23,-1
 384 256 l 1,24,-1
 320 256 l 1,25,-1
 320 192 l 1,26,-1
 256 192 l 1,27,-1
 256 128 l 1,28,-1
 192 128 l 1,29,-1
 192 64 l 1,30,-1
 128 64 l 1,31,-1
 128 0 l 1,0,-1
512 0 m 1,32,-1
 448 0 l 1,33,-1
 384 0 l 1,34,-1
 384 64 l 1,35,-1
 384 128 l 1,36,-1
 448 128 l 1,37,-1
 512 128 l 1,38,-1
 512 64 l 1,39,-1
 512 0 l 1,32,-1
192 448 m 1,40,-1
 128 448 l 1,41,-1
 64 448 l 1,42,-1
 64 512 l 1,43,-1
 64 576 l 1,44,-1
 128 576 l 1,45,-1
 192 576 l 1,46,-1
 192 512 l 1,47,-1
 192 448 l 1,40,-1
EndSplineSet
EndChar

StartChar: ampersand
Encoding: 38 38 9
Width: 575
GlyphClass: 1
Flags: W
LayerCount: 2
Fore
SplineSet
512 0 m 1,0,-1
 448 0 l 1,1,-1
 384 0 l 1,2,-1
 384 64 l 1,3,-1
 320 64 l 1,4,-1
 320 128 l 1,5,-1
 320 192 l 1,6,-1
 320 256 l 1,7,-1
 320 320 l 1,8,-1
 256 320 l 1,9,-1
 256 384 l 1,10,-1
 192 384 l 1,11,-1
 192 320 l 1,12,-1
 192 256 l 1,13,-1
 192 192 l 1,14,-1
 192 128 l 1,15,-1
 192 64 l 1,16,-1
 256 64 l 1,17,-1
 320 64 l 1,18,-1
 320 0 l 1,19,-1
 256 0 l 1,20,-1
 192 0 l 1,21,-1
 128 0 l 1,22,-1
 128 64 l 1,23,-1
 64 64 l 1,24,-1
 64 128 l 1,25,-1
 64 192 l 1,26,-1
 64 256 l 1,27,-1
 64 320 l 1,28,-1
 64 384 l 1,29,-1
 128 384 l 1,30,-1
 192 384 l 1,31,-1
 192 448 l 1,32,-1
 192 512 l 1,33,-1
 128 512 l 1,34,-1
 128 576 l 1,35,-1
 128 640 l 1,36,-1
 192 640 l 1,37,-1
 192 704 l 1,38,-1
 256 704 l 1,39,-1
 320 704 l 1,40,-1
 384 704 l 1,41,-1
 384 640 l 1,42,-1
 448 640 l 1,43,-1
 448 576 l 1,44,-1
 448 512 l 1,45,-1
 384 512 l 1,46,-1
 384 448 l 1,47,-1
 384 384 l 1,48,-1
 448 384 l 1,49,-1
 448 320 l 1,50,-1
 448 256 l 1,51,-1
 448 192 l 1,52,-1
 448 128 l 1,53,-1
 448 64 l 1,54,-1
 512 64 l 1,55,-1
 512 0 l 1,0,-1
512 384 m 1,56,-1
 448 384 l 1,57,-1
 448 448 l 1,58,-1
 512 448 l 1,59,-1
 512 384 l 1,56,-1
256 512 m 1,60,-1
 320 512 l 1,61,-1
 320 576 l 1,62,-1
 320 640 l 1,63,-1
 256 640 l 1,64,-1
 256 576 l 1,65,-1
 256 512 l 1,60,-1
EndSplineSet
EndChar

StartChar: quotesingle
Encoding: 39 39 10
Width: 223
GlyphClass: 1
Flags: W
LayerCount: 2
Fore
SplineSet
144 512 m 1,0,-1
 80 512 l 1,1,-1
 16 512 l 1,2,-1
 16 576 l 1,3,-1
 80 576 l 1,4,-1
 80 640 l 1,5,-1
 80 704 l 1,6,-1
 80 768 l 1,7,-1
 144 768 l 1,8,-1
 208 768 l 1,9,-1
 208 704 l 1,10,-1
 208 640 l 1,11,-1
 208 576 l 1,12,-1
 144 576 l 1,13,-1
 144 512 l 1,0,-1
EndSplineSet
EndChar

StartChar: parenleft
Encoding: 40 40 11
Width: 384
GlyphClass: 1
Flags: W
LayerCount: 2
Fore
SplineSet
320 0 m 1,0,-1
 256 0 l 1,1,-1
 192 0 l 1,2,-1
 192 64 l 1,3,-1
 128 64 l 1,4,-1
 128 128 l 1,5,-1
 64 128 l 1,6,-1
 64 192 l 1,7,-1
 64 256 l 1,8,-1
 64 320 l 1,9,-1
 64 384 l 1,10,-1
 64 448 l 1,11,-1
 64 512 l 1,12,-1
 64 576 l 1,13,-1
 128 576 l 1,14,-1
 128 640 l 1,15,-1
 192 640 l 1,16,-1
 192 704 l 1,17,-1
 256 704 l 1,18,-1
 320 704 l 1,19,-1
 320 640 l 1,20,-1
 256 640 l 1,21,-1
 256 576 l 1,22,-1
 192 576 l 1,23,-1
 192 512 l 1,24,-1
 192 448 l 1,25,-1
 192 384 l 1,26,-1
 192 320 l 1,27,-1
 192 256 l 1,28,-1
 192 192 l 1,29,-1
 192 128 l 1,30,-1
 256 128 l 1,31,-1
 256 64 l 1,32,-1
 320 64 l 1,33,-1
 320 0 l 1,0,-1
EndSplineSet
EndChar

StartChar: parenright
Encoding: 41 41 12
Width: 384
GlyphClass: 1
Flags: W
LayerCount: 2
Fore
SplineSet
192 0 m 1,0,-1
 128 0 l 1,1,-1
 64 0 l 1,2,-1
 64 64 l 1,3,-1
 128 64 l 1,4,-1
 128 128 l 1,5,-1
 192 128 l 1,6,-1
 192 192 l 1,7,-1
 192 256 l 1,8,-1
 192 320 l 1,9,-1
 192 384 l 1,10,-1
 192 448 l 1,11,-1
 192 512 l 1,12,-1
 192 576 l 1,13,-1
 128 576 l 1,14,-1
 128 640 l 1,15,-1
 64 640 l 1,16,-1
 64 704 l 1,17,-1
 128 704 l 1,18,-1
 192 704 l 1,19,-1
 192 640 l 1,20,-1
 256 640 l 1,21,-1
 256 576 l 1,22,-1
 320 576 l 1,23,-1
 320 512 l 1,24,-1
 320 448 l 1,25,-1
 320 384 l 1,26,-1
 320 320 l 1,27,-1
 320 256 l 1,28,-1
 320 192 l 1,29,-1
 320 128 l 1,30,-1
 256 128 l 1,31,-1
 256 64 l 1,32,-1
 192 64 l 1,33,-1
 192 0 l 1,0,-1
EndSplineSet
EndChar

StartChar: asterisk
Encoding: 42 42 13
Width: 640
GlyphClass: 1
Flags: W
LayerCount: 2
Fore
SplineSet
512 192 m 1,0,-1
 448 192 l 1,1,-1
 384 192 l 1,2,-1
 384 256 l 1,3,-1
 320 256 l 1,4,-1
 256 256 l 1,5,-1
 256 192 l 1,6,-1
 192 192 l 1,7,-1
 128 192 l 1,8,-1
 128 256 l 1,9,-1
 192 256 l 1,10,-1
 192 320 l 1,11,-1
 128 320 l 1,12,-1
 64 320 l 1,13,-1
 64 384 l 1,14,-1
 128 384 l 1,15,-1
 192 384 l 1,16,-1
 192 448 l 1,17,-1
 128 448 l 1,18,-1
 128 512 l 1,19,-1
 192 512 l 1,20,-1
 256 512 l 1,21,-1
 256 448 l 1,22,-1
 320 448 l 1,23,-1
 384 448 l 1,24,-1
 384 512 l 1,25,-1
 448 512 l 1,26,-1
 512 512 l 1,27,-1
 512 448 l 1,28,-1
 448 448 l 1,29,-1
 448 384 l 1,30,-1
 512 384 l 1,31,-1
 576 384 l 1,32,-1
 576 320 l 1,33,-1
 512 320 l 1,34,-1
 448 320 l 1,35,-1
 448 256 l 1,36,-1
 512 256 l 1,37,-1
 512 192 l 1,0,-1
EndSplineSet
EndChar

StartChar: plus
Encoding: 43 43 14
Width: 512
GlyphClass: 1
Flags: W
LayerCount: 2
Fore
SplineSet
320 192 m 1,0,-1
 256 192 l 1,1,-1
 192 192 l 1,2,-1
 192 256 l 1,3,-1
 192 320 l 1,4,-1
 128 320 l 1,5,-1
 64 320 l 1,6,-1
 64 384 l 1,7,-1
 128 384 l 1,8,-1
 192 384 l 1,9,-1
 192 448 l 1,10,-1
 192 512 l 1,11,-1
 256 512 l 1,12,-1
 320 512 l 1,13,-1
 320 448 l 1,14,-1
 320 384 l 1,15,-1
 384 384 l 1,16,-1
 448 384 l 1,17,-1
 448 320 l 1,18,-1
 384 320 l 1,19,-1
 320 320 l 1,20,-1
 320 256 l 1,21,-1
 320 192 l 1,0,-1
EndSplineSet
EndChar

StartChar: comma
Encoding: 44 44 15
Width: 319
GlyphClass: 1
Flags: W
LayerCount: 2
Fore
SplineSet
192 -64 m 1,0,-1
 128 -64 l 1,1,-1
 64 -64 l 1,2,-1
 64 0 l 1,3,-1
 128 0 l 1,4,-1
 128 64 l 1,5,-1
 128 128 l 1,6,-1
 128 192 l 1,7,-1
 192 192 l 1,8,-1
 256 192 l 1,9,-1
 256 128 l 1,10,-1
 256 64 l 1,11,-1
 256 0 l 1,12,-1
 192 0 l 1,13,-1
 192 -64 l 1,0,-1
EndSplineSet
EndChar

StartChar: hyphen
Encoding: 45 45 16
Width: 575
GlyphClass: 1
Flags: W
LayerCount: 2
Fore
SplineSet
384 384 m 1,0,-1
 448 384 l 1,1,-1
 512 384 l 1,2,-1
 512 320 l 1,3,-1
 448 320 l 1,4,-1
 384 320 l 1,5,-1
 320 320 l 1,6,-1
 256 320 l 1,7,-1
 192 320 l 1,8,-1
 128 320 l 1,9,-1
 64 320 l 1,10,-1
 64 384 l 1,11,-1
 128 384 l 1,12,-1
 192 384 l 1,13,-1
 256 384 l 1,14,-1
 320 384 l 1,15,-1
 384 384 l 1,0,-1
EndSplineSet
EndChar

StartChar: period
Encoding: 46 46 17
Width: 256
GlyphClass: 1
Flags: W
LayerCount: 2
Fore
SplineSet
192 0 m 1,0,-1
 128 0 l 1,1,-1
 64 0 l 1,2,-1
 64 64 l 1,3,-1
 64 128 l 1,4,-1
 128 128 l 1,5,-1
 192 128 l 1,6,-1
 192 64 l 1,7,-1
 192 0 l 1,0,-1
EndSplineSet
EndChar

StartChar: slash
Encoding: 47 47 18
Width: 575
GlyphClass: 1
Flags: W
LayerCount: 2
Fore
SplineSet
128 0 m 1,0,-1
 64 0 l 1,1,-1
 64 64 l 1,2,-1
 64 128 l 1,3,-1
 64 192 l 1,4,-1
 128 192 l 1,5,-1
 128 256 l 1,6,-1
 192 256 l 1,7,-1
 192 320 l 1,8,-1
 256 320 l 1,9,-1
 256 384 l 1,10,-1
 320 384 l 1,11,-1
 320 448 l 1,12,-1
 384 448 l 1,13,-1
 384 512 l 1,14,-1
 448 512 l 1,15,-1
 448 576 l 1,16,-1
 512 576 l 1,17,-1
 512 512 l 1,18,-1
 512 448 l 1,19,-1
 512 384 l 1,20,-1
 448 384 l 1,21,-1
 448 320 l 1,22,-1
 384 320 l 1,23,-1
 384 256 l 1,24,-1
 320 256 l 1,25,-1
 320 192 l 1,26,-1
 256 192 l 1,27,-1
 256 128 l 1,28,-1
 192 128 l 1,29,-1
 192 64 l 1,30,-1
 128 64 l 1,31,-1
 128 0 l 1,0,-1
EndSplineSet
EndChar

StartChar: zero
Encoding: 48 48 19
Width: 575
GlyphClass: 1
Flags: W
LayerCount: 2
Fore
SplineSet
320 320 m 1,0,-1
 256 320 l 1,1,-1
 256 384 l 1,2,-1
 256 448 l 1,3,-1
 320 448 l 1,4,-1
 320 384 l 1,5,-1
 320 320 l 1,0,-1
384 0 m 1,6,-1
 320 0 l 1,7,-1
 256 0 l 1,8,-1
 192 0 l 1,9,-1
 192 64 l 1,10,-1
 128 64 l 1,11,-1
 128 128 l 1,12,-1
 64 128 l 1,13,-1
 64 192 l 1,14,-1
 64 256 l 1,15,-1
 64 320 l 1,16,-1
 64 384 l 1,17,-1
 64 448 l 1,18,-1
 64 512 l 1,19,-1
 64 576 l 1,20,-1
 128 576 l 1,21,-1
 128 640 l 1,22,-1
 192 640 l 1,23,-1
 192 704 l 1,24,-1
 256 704 l 1,25,-1
 320 704 l 1,26,-1
 384 704 l 1,27,-1
 384 640 l 1,28,-1
 448 640 l 1,29,-1
 448 576 l 1,30,-1
 512 576 l 1,31,-1
 512 512 l 1,32,-1
 512 448 l 1,33,-1
 512 384 l 1,34,-1
 512 320 l 1,35,-1
 512 256 l 1,36,-1
 512 192 l 1,37,-1
 512 128 l 1,38,-1
 448 128 l 1,39,-1
 448 64 l 1,40,-1
 384 64 l 1,41,-1
 384 0 l 1,6,-1
256 64 m 1,42,-1
 320 64 l 1,43,-1
 320 128 l 1,44,-1
 384 128 l 1,45,-1
 384 192 l 1,46,-1
 384 256 l 1,47,-1
 384 320 l 1,48,-1
 384 384 l 1,49,-1
 384 448 l 1,50,-1
 384 512 l 1,51,-1
 384 576 l 1,52,-1
 320 576 l 1,53,-1
 320 640 l 1,54,-1
 256 640 l 1,55,-1
 256 576 l 1,56,-1
 192 576 l 1,57,-1
 192 512 l 1,58,-1
 192 448 l 1,59,-1
 192 384 l 1,60,-1
 192 320 l 1,61,-1
 192 256 l 1,62,-1
 192 192 l 1,63,-1
 192 128 l 1,64,-1
 256 128 l 1,65,-1
 256 64 l 1,42,-1
EndSplineSet
EndChar

StartChar: one
Encoding: 49 49 20
Width: 512
GlyphClass: 1
Flags: W
LayerCount: 2
Fore
SplineSet
320 64 m 1,0,-1
 384 64 l 1,1,-1
 448 64 l 1,2,-1
 448 0 l 1,3,-1
 384 0 l 1,4,-1
 320 0 l 1,5,-1
 256 0 l 1,6,-1
 192 0 l 1,7,-1
 128 0 l 1,8,-1
 64 0 l 1,9,-1
 64 64 l 1,10,-1
 128 64 l 1,11,-1
 192 64 l 1,12,-1
 192 128 l 1,13,-1
 192 192 l 1,14,-1
 192 256 l 1,15,-1
 192 320 l 1,16,-1
 192 384 l 1,17,-1
 192 448 l 1,18,-1
 192 512 l 1,19,-1
 128 512 l 1,20,-1
 64 512 l 1,21,-1
 64 576 l 1,22,-1
 128 576 l 1,23,-1
 128 640 l 1,24,-1
 192 640 l 1,25,-1
 192 704 l 1,26,-1
 256 704 l 1,27,-1
 320 704 l 1,28,-1
 320 640 l 1,29,-1
 320 576 l 1,30,-1
 320 512 l 1,31,-1
 320 448 l 1,32,-1
 320 384 l 1,33,-1
 320 320 l 1,34,-1
 320 256 l 1,35,-1
 320 192 l 1,36,-1
 320 128 l 1,37,-1
 320 64 l 1,0,-1
EndSplineSet
EndChar

StartChar: two
Encoding: 50 50 21
Width: 575
GlyphClass: 1
Flags: W
LayerCount: 2
Fore
SplineSet
512 0 m 1,0,-1
 448 0 l 1,1,-1
 384 0 l 1,2,-1
 320 0 l 1,3,-1
 256 0 l 1,4,-1
 192 0 l 1,5,-1
 128 0 l 1,6,-1
 64 0 l 1,7,-1
 64 64 l 1,8,-1
 64 128 l 1,9,-1
 64 192 l 1,10,-1
 128 192 l 1,11,-1
 128 256 l 1,12,-1
 128 320 l 1,13,-1
 192 320 l 1,14,-1
 192 384 l 1,15,-1
 256 384 l 1,16,-1
 320 384 l 1,17,-1
 320 448 l 1,18,-1
 320 512 l 1,19,-1
 384 512 l 1,20,-1
 384 576 l 1,21,-1
 384 640 l 1,22,-1
 320 640 l 1,23,-1
 256 640 l 1,24,-1
 192 640 l 1,25,-1
 192 576 l 1,26,-1
 128 576 l 1,27,-1
 64 576 l 1,28,-1
 64 640 l 1,29,-1
 128 640 l 1,30,-1
 128 704 l 1,31,-1
 192 704 l 1,32,-1
 256 704 l 1,33,-1
 320 704 l 1,34,-1
 384 704 l 1,35,-1
 448 704 l 1,36,-1
 448 640 l 1,37,-1
 512 640 l 1,38,-1
 512 576 l 1,39,-1
 512 512 l 1,40,-1
 448 512 l 1,41,-1
 448 448 l 1,42,-1
 448 384 l 1,43,-1
 384 384 l 1,44,-1
 384 320 l 1,45,-1
 320 320 l 1,46,-1
 256 320 l 1,47,-1
 256 256 l 1,48,-1
 256 192 l 1,49,-1
 192 192 l 1,50,-1
 192 128 l 1,51,-1
 192 64 l 1,52,-1
 256 64 l 1,53,-1
 320 64 l 1,54,-1
 384 64 l 1,55,-1
 384 128 l 1,56,-1
 448 128 l 1,57,-1
 512 128 l 1,58,-1
 512 64 l 1,59,-1
 512 0 l 1,0,-1
EndSplineSet
EndChar

StartChar: three
Encoding: 51 51 22
Width: 575
GlyphClass: 1
Flags: W
LayerCount: 2
Fore
SplineSet
448 0 m 1,0,-1
 384 0 l 1,1,-1
 320 0 l 1,2,-1
 256 0 l 1,3,-1
 192 0 l 1,4,-1
 128 0 l 1,5,-1
 128 64 l 1,6,-1
 64 64 l 1,7,-1
 64 128 l 1,8,-1
 128 128 l 1,9,-1
 192 128 l 1,10,-1
 192 64 l 1,11,-1
 256 64 l 1,12,-1
 320 64 l 1,13,-1
 384 64 l 1,14,-1
 384 128 l 1,15,-1
 384 192 l 1,16,-1
 384 256 l 1,17,-1
 384 320 l 1,18,-1
 384 384 l 1,19,-1
 320 384 l 1,20,-1
 256 384 l 1,21,-1
 192 384 l 1,22,-1
 192 448 l 1,23,-1
 256 448 l 1,24,-1
 320 448 l 1,25,-1
 384 448 l 1,26,-1
 384 512 l 1,27,-1
 384 576 l 1,28,-1
 384 640 l 1,29,-1
 320 640 l 1,30,-1
 256 640 l 1,31,-1
 192 640 l 1,32,-1
 192 576 l 1,33,-1
 128 576 l 1,34,-1
 64 576 l 1,35,-1
 64 640 l 1,36,-1
 128 640 l 1,37,-1
 128 704 l 1,38,-1
 192 704 l 1,39,-1
 256 704 l 1,40,-1
 320 704 l 1,41,-1
 384 704 l 1,42,-1
 448 704 l 1,43,-1
 448 640 l 1,44,-1
 512 640 l 1,45,-1
 512 576 l 1,46,-1
 512 512 l 1,47,-1
 512 448 l 1,48,-1
 448 448 l 1,49,-1
 448 384 l 1,50,-1
 512 384 l 1,51,-1
 512 320 l 1,52,-1
 512 256 l 1,53,-1
 512 192 l 1,54,-1
 512 128 l 1,55,-1
 512 64 l 1,56,-1
 448 64 l 1,57,-1
 448 0 l 1,0,-1
EndSplineSet
EndChar

StartChar: four
Encoding: 52 52 23
Width: 575
GlyphClass: 1
Flags: W
LayerCount: 2
Fore
SplineSet
512 0 m 1,0,-1
 448 0 l 1,1,-1
 384 0 l 1,2,-1
 320 0 l 1,3,-1
 256 0 l 1,4,-1
 256 64 l 1,5,-1
 320 64 l 1,6,-1
 320 128 l 1,7,-1
 320 192 l 1,8,-1
 320 256 l 1,9,-1
 320 320 l 1,10,-1
 256 320 l 1,11,-1
 192 320 l 1,12,-1
 128 320 l 1,13,-1
 64 320 l 1,14,-1
 64 384 l 1,15,-1
 64 448 l 1,16,-1
 128 448 l 1,17,-1
 128 512 l 1,18,-1
 192 512 l 1,19,-1
 192 576 l 1,20,-1
 256 576 l 1,21,-1
 256 640 l 1,22,-1
 320 640 l 1,23,-1
 320 704 l 1,24,-1
 384 704 l 1,25,-1
 448 704 l 1,26,-1
 448 640 l 1,27,-1
 448 576 l 1,28,-1
 448 512 l 1,29,-1
 448 448 l 1,30,-1
 448 384 l 1,31,-1
 512 384 l 1,32,-1
 512 320 l 1,33,-1
 448 320 l 1,34,-1
 448 256 l 1,35,-1
 448 192 l 1,36,-1
 448 128 l 1,37,-1
 448 64 l 1,38,-1
 512 64 l 1,39,-1
 512 0 l 1,0,-1
192 384 m 1,40,-1
 256 384 l 1,41,-1
 320 384 l 1,42,-1
 320 448 l 1,43,-1
 320 512 l 1,44,-1
 256 512 l 1,45,-1
 256 448 l 1,46,-1
 192 448 l 1,47,-1
 192 384 l 1,40,-1
EndSplineSet
EndChar

StartChar: five
Encoding: 53 53 24
Width: 575
GlyphClass: 1
Flags: W
LayerCount: 2
Fore
SplineSet
448 0 m 1,0,-1
 384 0 l 1,1,-1
 320 0 l 1,2,-1
 256 0 l 1,3,-1
 192 0 l 1,4,-1
 128 0 l 1,5,-1
 128 64 l 1,6,-1
 64 64 l 1,7,-1
 64 128 l 1,8,-1
 128 128 l 1,9,-1
 192 128 l 1,10,-1
 192 64 l 1,11,-1
 256 64 l 1,12,-1
 320 64 l 1,13,-1
 384 64 l 1,14,-1
 384 128 l 1,15,-1
 384 192 l 1,16,-1
 384 256 l 1,17,-1
 384 320 l 1,18,-1
 384 384 l 1,19,-1
 320 384 l 1,20,-1
 256 384 l 1,21,-1
 192 384 l 1,22,-1
 128 384 l 1,23,-1
 64 384 l 1,24,-1
 64 448 l 1,25,-1
 64 512 l 1,26,-1
 64 576 l 1,27,-1
 64 640 l 1,28,-1
 64 704 l 1,29,-1
 128 704 l 1,30,-1
 192 704 l 1,31,-1
 256 704 l 1,32,-1
 320 704 l 1,33,-1
 384 704 l 1,34,-1
 448 704 l 1,35,-1
 512 704 l 1,36,-1
 512 640 l 1,37,-1
 448 640 l 1,38,-1
 384 640 l 1,39,-1
 320 640 l 1,40,-1
 256 640 l 1,41,-1
 192 640 l 1,42,-1
 192 576 l 1,43,-1
 192 512 l 1,44,-1
 192 448 l 1,45,-1
 256 448 l 1,46,-1
 320 448 l 1,47,-1
 384 448 l 1,48,-1
 448 448 l 1,49,-1
 448 384 l 1,50,-1
 512 384 l 1,51,-1
 512 320 l 1,52,-1
 512 256 l 1,53,-1
 512 192 l 1,54,-1
 512 128 l 1,55,-1
 512 64 l 1,56,-1
 448 64 l 1,57,-1
 448 0 l 1,0,-1
EndSplineSet
EndChar

StartChar: six
Encoding: 54 54 25
Width: 575
GlyphClass: 1
Flags: W
LayerCount: 2
Fore
SplineSet
448 0 m 1,0,-1
 384 0 l 1,1,-1
 320 0 l 1,2,-1
 256 0 l 1,3,-1
 192 0 l 1,4,-1
 128 0 l 1,5,-1
 128 64 l 1,6,-1
 64 64 l 1,7,-1
 64 128 l 1,8,-1
 64 192 l 1,9,-1
 64 256 l 1,10,-1
 64 320 l 1,11,-1
 64 384 l 1,12,-1
 64 448 l 1,13,-1
 64 512 l 1,14,-1
 64 576 l 1,15,-1
 128 576 l 1,16,-1
 128 640 l 1,17,-1
 192 640 l 1,18,-1
 192 704 l 1,19,-1
 256 704 l 1,20,-1
 320 704 l 1,21,-1
 384 704 l 1,22,-1
 384 640 l 1,23,-1
 320 640 l 1,24,-1
 256 640 l 1,25,-1
 256 576 l 1,26,-1
 192 576 l 1,27,-1
 192 512 l 1,28,-1
 192 448 l 1,29,-1
 256 448 l 1,30,-1
 320 448 l 1,31,-1
 384 448 l 1,32,-1
 448 448 l 1,33,-1
 448 384 l 1,34,-1
 512 384 l 1,35,-1
 512 320 l 1,36,-1
 512 256 l 1,37,-1
 512 192 l 1,38,-1
 512 128 l 1,39,-1
 512 64 l 1,40,-1
 448 64 l 1,41,-1
 448 0 l 1,0,-1
256 64 m 1,42,-1
 320 64 l 1,43,-1
 384 64 l 1,44,-1
 384 128 l 1,45,-1
 384 192 l 1,46,-1
 384 256 l 1,47,-1
 384 320 l 1,48,-1
 384 384 l 1,49,-1
 320 384 l 1,50,-1
 256 384 l 1,51,-1
 192 384 l 1,52,-1
 192 320 l 1,53,-1
 192 256 l 1,54,-1
 192 192 l 1,55,-1
 192 128 l 1,56,-1
 192 64 l 1,57,-1
 256 64 l 1,42,-1
EndSplineSet
EndChar

StartChar: seven
Encoding: 55 55 26
Width: 575
GlyphClass: 1
Flags: W
LayerCount: 2
Fore
SplineSet
320 0 m 1,0,-1
 256 0 l 1,1,-1
 192 0 l 1,2,-1
 192 64 l 1,3,-1
 192 128 l 1,4,-1
 192 192 l 1,5,-1
 192 256 l 1,6,-1
 192 320 l 1,7,-1
 256 320 l 1,8,-1
 256 384 l 1,9,-1
 320 384 l 1,10,-1
 384 384 l 1,11,-1
 384 448 l 1,12,-1
 384 512 l 1,13,-1
 384 576 l 1,14,-1
 384 640 l 1,15,-1
 320 640 l 1,16,-1
 256 640 l 1,17,-1
 192 640 l 1,18,-1
 192 576 l 1,19,-1
 128 576 l 1,20,-1
 64 576 l 1,21,-1
 64 640 l 1,22,-1
 64 704 l 1,23,-1
 128 704 l 1,24,-1
 192 704 l 1,25,-1
 256 704 l 1,26,-1
 320 704 l 1,27,-1
 384 704 l 1,28,-1
 448 704 l 1,29,-1
 512 704 l 1,30,-1
 512 640 l 1,31,-1
 512 576 l 1,32,-1
 512 512 l 1,33,-1
 512 448 l 1,34,-1
 512 384 l 1,35,-1
 448 384 l 1,36,-1
 448 320 l 1,37,-1
 384 320 l 1,38,-1
 320 320 l 1,39,-1
 320 256 l 1,40,-1
 320 192 l 1,41,-1
 320 128 l 1,42,-1
 320 64 l 1,43,-1
 320 0 l 1,0,-1
EndSplineSet
EndChar

StartChar: eight
Encoding: 56 56 27
Width: 575
GlyphClass: 1
Flags: W
LayerCount: 2
Fore
SplineSet
448 0 m 1,0,-1
 384 0 l 1,1,-1
 320 0 l 1,2,-1
 256 0 l 1,3,-1
 192 0 l 1,4,-1
 128 0 l 1,5,-1
 128 64 l 1,6,-1
 64 64 l 1,7,-1
 64 128 l 1,8,-1
 64 192 l 1,9,-1
 64 256 l 1,10,-1
 64 320 l 1,11,-1
 64 384 l 1,12,-1
 128 384 l 1,13,-1
 128 448 l 1,14,-1
 64 448 l 1,15,-1
 64 512 l 1,16,-1
 64 576 l 1,17,-1
 64 640 l 1,18,-1
 128 640 l 1,19,-1
 128 704 l 1,20,-1
 192 704 l 1,21,-1
 256 704 l 1,22,-1
 320 704 l 1,23,-1
 384 704 l 1,24,-1
 448 704 l 1,25,-1
 448 640 l 1,26,-1
 512 640 l 1,27,-1
 512 576 l 1,28,-1
 512 512 l 1,29,-1
 512 448 l 1,30,-1
 448 448 l 1,31,-1
 448 384 l 1,32,-1
 512 384 l 1,33,-1
 512 320 l 1,34,-1
 512 256 l 1,35,-1
 512 192 l 1,36,-1
 512 128 l 1,37,-1
 512 64 l 1,38,-1
 448 64 l 1,39,-1
 448 0 l 1,0,-1
256 64 m 1,40,-1
 320 64 l 1,41,-1
 384 64 l 1,42,-1
 384 128 l 1,43,-1
 384 192 l 1,44,-1
 384 256 l 1,45,-1
 384 320 l 1,46,-1
 384 384 l 1,47,-1
 320 384 l 1,48,-1
 256 384 l 1,49,-1
 192 384 l 1,50,-1
 192 320 l 1,51,-1
 192 256 l 1,52,-1
 192 192 l 1,53,-1
 192 128 l 1,54,-1
 192 64 l 1,55,-1
 256 64 l 1,40,-1
256 448 m 1,56,-1
 320 448 l 1,57,-1
 384 448 l 1,58,-1
 384 512 l 1,59,-1
 384 576 l 1,60,-1
 384 640 l 1,61,-1
 320 640 l 1,62,-1
 256 640 l 1,63,-1
 192 640 l 1,64,-1
 192 576 l 1,65,-1
 192 512 l 1,66,-1
 192 448 l 1,67,-1
 256 448 l 1,56,-1
EndSplineSet
EndChar

StartChar: nine
Encoding: 57 57 28
Width: 575
GlyphClass: 1
Flags: W
LayerCount: 2
Fore
SplineSet
384 0 m 1,0,-1
 320 0 l 1,1,-1
 256 0 l 1,2,-1
 192 0 l 1,3,-1
 128 0 l 1,4,-1
 128 64 l 1,5,-1
 192 64 l 1,6,-1
 256 64 l 1,7,-1
 320 64 l 1,8,-1
 320 128 l 1,9,-1
 384 128 l 1,10,-1
 384 192 l 1,11,-1
 384 256 l 1,12,-1
 384 320 l 1,13,-1
 384 384 l 1,14,-1
 320 384 l 1,15,-1
 256 384 l 1,16,-1
 192 384 l 1,17,-1
 128 384 l 1,18,-1
 128 448 l 1,19,-1
 64 448 l 1,20,-1
 64 512 l 1,21,-1
 64 576 l 1,22,-1
 64 640 l 1,23,-1
 128 640 l 1,24,-1
 128 704 l 1,25,-1
 192 704 l 1,26,-1
 256 704 l 1,27,-1
 320 704 l 1,28,-1
 384 704 l 1,29,-1
 448 704 l 1,30,-1
 448 640 l 1,31,-1
 512 640 l 1,32,-1
 512 576 l 1,33,-1
 512 512 l 1,34,-1
 512 448 l 1,35,-1
 512 384 l 1,36,-1
 512 320 l 1,37,-1
 512 256 l 1,38,-1
 512 192 l 1,39,-1
 512 128 l 1,40,-1
 448 128 l 1,41,-1
 448 64 l 1,42,-1
 384 64 l 1,43,-1
 384 0 l 1,0,-1
256 448 m 1,44,-1
 320 448 l 1,45,-1
 384 448 l 1,46,-1
 384 512 l 1,47,-1
 384 576 l 1,48,-1
 384 640 l 1,49,-1
 320 640 l 1,50,-1
 256 640 l 1,51,-1
 192 640 l 1,52,-1
 192 576 l 1,53,-1
 192 512 l 1,54,-1
 192 448 l 1,55,-1
 256 448 l 1,44,-1
EndSplineSet
EndChar

StartChar: colon
Encoding: 58 58 29
Width: 256
GlyphClass: 1
Flags: W
LayerCount: 2
Fore
SplineSet
192 64 m 1,0,-1
 128 64 l 1,1,-1
 64 64 l 1,2,-1
 64 128 l 1,3,-1
 64 192 l 1,4,-1
 128 192 l 1,5,-1
 192 192 l 1,6,-1
 192 128 l 1,7,-1
 192 64 l 1,0,-1
192 448 m 1,8,-1
 128 448 l 1,9,-1
 64 448 l 1,10,-1
 64 512 l 1,11,-1
 64 576 l 1,12,-1
 128 576 l 1,13,-1
 192 576 l 1,14,-1
 192 512 l 1,15,-1
 192 448 l 1,8,-1
EndSplineSet
EndChar

StartChar: semicolon
Encoding: 59 59 30
Width: 319
GlyphClass: 1
Flags: W
LayerCount: 2
Fore
SplineSet
192 0 m 1,0,-1
 128 0 l 1,1,-1
 64 0 l 1,2,-1
 64 64 l 1,3,-1
 128 64 l 1,4,-1
 128 128 l 1,5,-1
 128 192 l 1,6,-1
 192 192 l 1,7,-1
 256 192 l 1,8,-1
 256 128 l 1,9,-1
 256 64 l 1,10,-1
 192 64 l 1,11,-1
 192 0 l 1,0,-1
256 448 m 1,12,-1
 192 448 l 1,13,-1
 128 448 l 1,14,-1
 128 512 l 1,15,-1
 128 576 l 1,16,-1
 192 576 l 1,17,-1
 256 576 l 1,18,-1
 256 512 l 1,19,-1
 256 448 l 1,12,-1
EndSplineSet
EndChar

StartChar: less
Encoding: 60 60 31
Width: 512
GlyphClass: 1
Flags: W
LayerCount: 2
Fore
SplineSet
448 0 m 1,0,-1
 384 0 l 1,1,-1
 320 0 l 1,2,-1
 320 64 l 1,3,-1
 256 64 l 1,4,-1
 256 128 l 1,5,-1
 192 128 l 1,6,-1
 192 192 l 1,7,-1
 128 192 l 1,8,-1
 128 256 l 1,9,-1
 64 256 l 1,10,-1
 64 320 l 1,11,-1
 64 384 l 1,12,-1
 128 384 l 1,13,-1
 128 448 l 1,14,-1
 192 448 l 1,15,-1
 192 512 l 1,16,-1
 256 512 l 1,17,-1
 256 576 l 1,18,-1
 320 576 l 1,19,-1
 320 640 l 1,20,-1
 384 640 l 1,21,-1
 448 640 l 1,22,-1
 448 576 l 1,23,-1
 384 576 l 1,24,-1
 384 512 l 1,25,-1
 320 512 l 1,26,-1
 320 448 l 1,27,-1
 256 448 l 1,28,-1
 256 384 l 1,29,-1
 192 384 l 1,30,-1
 192 320 l 1,31,-1
 192 256 l 1,32,-1
 256 256 l 1,33,-1
 256 192 l 1,34,-1
 320 192 l 1,35,-1
 320 128 l 1,36,-1
 384 128 l 1,37,-1
 384 64 l 1,38,-1
 448 64 l 1,39,-1
 448 0 l 1,0,-1
EndSplineSet
EndChar

StartChar: equal
Encoding: 61 61 32
Width: 512
GlyphClass: 1
Flags: W
LayerCount: 2
Fore
SplineSet
320 256 m 1,0,-1
 384 256 l 1,1,-1
 448 256 l 1,2,-1
 448 192 l 1,3,-1
 384 192 l 1,4,-1
 320 192 l 1,5,-1
 256 192 l 1,6,-1
 192 192 l 1,7,-1
 128 192 l 1,8,-1
 64 192 l 1,9,-1
 64 256 l 1,10,-1
 128 256 l 1,11,-1
 192 256 l 1,12,-1
 256 256 l 1,13,-1
 320 256 l 1,0,-1
320 512 m 1,14,-1
 384 512 l 1,15,-1
 448 512 l 1,16,-1
 448 448 l 1,17,-1
 384 448 l 1,18,-1
 320 448 l 1,19,-1
 256 448 l 1,20,-1
 192 448 l 1,21,-1
 128 448 l 1,22,-1
 64 448 l 1,23,-1
 64 512 l 1,24,-1
 128 512 l 1,25,-1
 192 512 l 1,26,-1
 256 512 l 1,27,-1
 320 512 l 1,14,-1
EndSplineSet
EndChar

StartChar: greater
Encoding: 62 62 33
Width: 512
GlyphClass: 1
Flags: W
LayerCount: 2
Fore
SplineSet
192 0 m 1,0,-1
 128 0 l 1,1,-1
 64 0 l 1,2,-1
 64 64 l 1,3,-1
 128 64 l 1,4,-1
 128 128 l 1,5,-1
 192 128 l 1,6,-1
 192 192 l 1,7,-1
 256 192 l 1,8,-1
 256 256 l 1,9,-1
 320 256 l 1,10,-1
 320 320 l 1,11,-1
 320 384 l 1,12,-1
 256 384 l 1,13,-1
 256 448 l 1,14,-1
 192 448 l 1,15,-1
 192 512 l 1,16,-1
 128 512 l 1,17,-1
 128 576 l 1,18,-1
 64 576 l 1,19,-1
 64 640 l 1,20,-1
 128 640 l 1,21,-1
 192 640 l 1,22,-1
 192 576 l 1,23,-1
 256 576 l 1,24,-1
 256 512 l 1,25,-1
 320 512 l 1,26,-1
 320 448 l 1,27,-1
 384 448 l 1,28,-1
 384 384 l 1,29,-1
 448 384 l 1,30,-1
 448 320 l 1,31,-1
 448 256 l 1,32,-1
 384 256 l 1,33,-1
 384 192 l 1,34,-1
 320 192 l 1,35,-1
 320 128 l 1,36,-1
 256 128 l 1,37,-1
 256 64 l 1,38,-1
 192 64 l 1,39,-1
 192 0 l 1,0,-1
EndSplineSet
EndChar

StartChar: question
Encoding: 63 63 34
Width: 575
GlyphClass: 1
Flags: W
LayerCount: 2
Fore
SplineSet
384 0 m 1,0,-1
 320 0 l 1,1,-1
 256 0 l 1,2,-1
 256 64 l 1,3,-1
 256 128 l 1,4,-1
 320 128 l 1,5,-1
 384 128 l 1,6,-1
 384 64 l 1,7,-1
 384 0 l 1,0,-1
384 192 m 1,8,-1
 320 192 l 1,9,-1
 256 192 l 1,10,-1
 256 256 l 1,11,-1
 256 320 l 1,12,-1
 256 384 l 1,13,-1
 320 384 l 1,14,-1
 320 448 l 1,15,-1
 320 512 l 1,16,-1
 384 512 l 1,17,-1
 384 576 l 1,18,-1
 384 640 l 1,19,-1
 320 640 l 1,20,-1
 256 640 l 1,21,-1
 192 640 l 1,22,-1
 192 576 l 1,23,-1
 192 512 l 1,24,-1
 128 512 l 1,25,-1
 64 512 l 1,26,-1
 64 576 l 1,27,-1
 64 640 l 1,28,-1
 128 640 l 1,29,-1
 128 704 l 1,30,-1
 192 704 l 1,31,-1
 256 704 l 1,32,-1
 320 704 l 1,33,-1
 384 704 l 1,34,-1
 448 704 l 1,35,-1
 448 640 l 1,36,-1
 512 640 l 1,37,-1
 512 576 l 1,38,-1
 512 512 l 1,39,-1
 448 512 l 1,40,-1
 448 448 l 1,41,-1
 448 384 l 1,42,-1
 384 384 l 1,43,-1
 384 320 l 1,44,-1
 384 256 l 1,45,-1
 384 192 l 1,8,-1
EndSplineSet
EndChar

StartChar: at
Encoding: 64 64 35
Width: 575
GlyphClass: 1
Flags: W
LayerCount: 2
Fore
SplineSet
320 64 m 1,0,-1
 384 64 l 1,1,-1
 448 64 l 1,2,-1
 448 0 l 1,3,-1
 384 0 l 1,4,-1
 320 0 l 1,5,-1
 256 0 l 1,6,-1
 192 0 l 1,7,-1
 128 0 l 1,8,-1
 128 64 l 1,9,-1
 64 64 l 1,10,-1
 64 128 l 1,11,-1
 64 192 l 1,12,-1
 64 256 l 1,13,-1
 64 320 l 1,14,-1
 64 384 l 1,15,-1
 64 448 l 1,16,-1
 64 512 l 1,17,-1
 64 576 l 1,18,-1
 128 576 l 1,19,-1
 128 640 l 1,20,-1
 192 640 l 1,21,-1
 256 640 l 1,22,-1
 320 640 l 1,23,-1
 384 640 l 1,24,-1
 448 640 l 1,25,-1
 448 576 l 1,26,-1
 512 576 l 1,27,-1
 512 512 l 1,28,-1
 512 448 l 1,29,-1
 512 384 l 1,30,-1
 512 320 l 1,31,-1
 512 256 l 1,32,-1
 512 192 l 1,33,-1
 448 192 l 1,34,-1
 448 128 l 1,35,-1
 384 128 l 1,36,-1
 320 128 l 1,37,-1
 256 128 l 1,38,-1
 256 192 l 1,39,-1
 256 256 l 1,40,-1
 256 320 l 1,41,-1
 256 384 l 1,42,-1
 256 448 l 1,43,-1
 320 448 l 1,44,-1
 384 448 l 1,45,-1
 384 512 l 1,46,-1
 384 576 l 1,47,-1
 320 576 l 1,48,-1
 256 576 l 1,49,-1
 192 576 l 1,50,-1
 192 512 l 1,51,-1
 192 448 l 1,52,-1
 192 384 l 1,53,-1
 192 320 l 1,54,-1
 192 256 l 1,55,-1
 192 192 l 1,56,-1
 192 128 l 1,57,-1
 192 64 l 1,58,-1
 256 64 l 1,59,-1
 320 64 l 1,0,-1
EndSplineSet
EndChar

StartChar: A
Encoding: 65 65 36
Width: 575
GlyphClass: 1
Flags: W
LayerCount: 2
Fore
SplineSet
512 0 m 1,0,-1
 448 0 l 1,1,-1
 384 0 l 1,2,-1
 384 64 l 1,3,-1
 384 128 l 1,4,-1
 384 192 l 1,5,-1
 384 256 l 1,6,-1
 384 320 l 1,7,-1
 320 320 l 1,8,-1
 256 320 l 1,9,-1
 192 320 l 1,10,-1
 192 256 l 1,11,-1
 192 192 l 1,12,-1
 192 128 l 1,13,-1
 192 64 l 1,14,-1
 192 0 l 1,15,-1
 128 0 l 1,16,-1
 64 0 l 1,17,-1
 64 64 l 1,18,-1
 64 128 l 1,19,-1
 64 192 l 1,20,-1
 64 256 l 1,21,-1
 64 320 l 1,22,-1
 64 384 l 1,23,-1
 64 448 l 1,24,-1
 64 512 l 1,25,-1
 128 512 l 1,26,-1
 128 576 l 1,27,-1
 192 576 l 1,28,-1
 192 640 l 1,29,-1
 256 640 l 1,30,-1
 256 704 l 1,31,-1
 320 704 l 1,32,-1
 320 640 l 1,33,-1
 384 640 l 1,34,-1
 384 576 l 1,35,-1
 448 576 l 1,36,-1
 448 512 l 1,37,-1
 512 512 l 1,38,-1
 512 448 l 1,39,-1
 512 384 l 1,40,-1
 512 320 l 1,41,-1
 512 256 l 1,42,-1
 512 192 l 1,43,-1
 512 128 l 1,44,-1
 512 64 l 1,45,-1
 512 0 l 1,0,-1
256 384 m 1,46,-1
 320 384 l 1,47,-1
 384 384 l 1,48,-1
 384 448 l 1,49,-1
 384 512 l 1,50,-1
 320 512 l 1,51,-1
 320 576 l 1,52,-1
 256 576 l 1,53,-1
 256 512 l 1,54,-1
 192 512 l 1,55,-1
 192 448 l 1,56,-1
 192 384 l 1,57,-1
 256 384 l 1,46,-1
EndSplineSet
EndChar

StartChar: B
Encoding: 66 66 37
Width: 575
GlyphClass: 1
Flags: W
LayerCount: 2
Fore
SplineSet
448 0 m 1,0,-1
 384 0 l 1,1,-1
 320 0 l 1,2,-1
 256 0 l 1,3,-1
 192 0 l 1,4,-1
 128 0 l 1,5,-1
 64 0 l 1,6,-1
 64 64 l 1,7,-1
 128 64 l 1,8,-1
 128 128 l 1,9,-1
 128 192 l 1,10,-1
 128 256 l 1,11,-1
 128 320 l 1,12,-1
 128 384 l 1,13,-1
 128 448 l 1,14,-1
 128 512 l 1,15,-1
 128 576 l 1,16,-1
 128 640 l 1,17,-1
 64 640 l 1,18,-1
 64 704 l 1,19,-1
 128 704 l 1,20,-1
 192 704 l 1,21,-1
 256 704 l 1,22,-1
 320 704 l 1,23,-1
 384 704 l 1,24,-1
 448 704 l 1,25,-1
 448 640 l 1,26,-1
 512 640 l 1,27,-1
 512 576 l 1,28,-1
 512 512 l 1,29,-1
 512 448 l 1,30,-1
 448 448 l 1,31,-1
 448 384 l 1,32,-1
 512 384 l 1,33,-1
 512 320 l 1,34,-1
 512 256 l 1,35,-1
 512 192 l 1,36,-1
 512 128 l 1,37,-1
 512 64 l 1,38,-1
 448 64 l 1,39,-1
 448 0 l 1,0,-1
256 64 m 1,40,-1
 320 64 l 1,41,-1
 384 64 l 1,42,-1
 384 128 l 1,43,-1
 384 192 l 1,44,-1
 384 256 l 1,45,-1
 384 320 l 1,46,-1
 384 384 l 1,47,-1
 320 384 l 1,48,-1
 256 384 l 1,49,-1
 256 320 l 1,50,-1
 256 256 l 1,51,-1
 256 192 l 1,52,-1
 256 128 l 1,53,-1
 256 64 l 1,40,-1
256 448 m 1,54,-1
 320 448 l 1,55,-1
 384 448 l 1,56,-1
 384 512 l 1,57,-1
 384 576 l 1,58,-1
 384 640 l 1,59,-1
 320 640 l 1,60,-1
 256 640 l 1,61,-1
 256 576 l 1,62,-1
 256 512 l 1,63,-1
 256 448 l 1,54,-1
EndSplineSet
EndChar

StartChar: C
Encoding: 67 67 38
Width: 559
GlyphClass: 1
Flags: W
LayerCount: 2
Fore
SplineSet
512 512 m 1,0,-1
 448 512 l 1,1,-1
 448 576 l 1,2,-1
 384 576 l 1,3,-1
 384 640 l 1,4,-1
 320 640 l 1,5,-1
 256 640 l 1,6,-1
 256 576 l 1,7,-1
 192 576 l 1,8,-1
 192 512 l 1,9,-1
 192 448 l 1,10,-1
 192 384 l 1,11,-1
 192 320 l 1,12,-1
 192 256 l 1,13,-1
 192 192 l 1,14,-1
 192 128 l 1,15,-1
 256 128 l 1,16,-1
 256 64 l 1,17,-1
 320 64 l 1,18,-1
 384 64 l 1,19,-1
 384 128 l 1,20,-1
 448 128 l 1,21,-1
 448 192 l 1,22,-1
 512 192 l 1,23,-1
 512 128 l 1,24,-1
 512 64 l 1,25,-1
 448 64 l 1,26,-1
 448 0 l 1,27,-1
 384 0 l 1,28,-1
 320 0 l 1,29,-1
 256 0 l 1,30,-1
 192 0 l 1,31,-1
 192 64 l 1,32,-1
 128 64 l 1,33,-1
 128 128 l 1,34,-1
 64 128 l 1,35,-1
 64 192 l 1,36,-1
 64 256 l 1,37,-1
 64 320 l 1,38,-1
 64 384 l 1,39,-1
 64 448 l 1,40,-1
 64 512 l 1,41,-1
 64 576 l 1,42,-1
 128 576 l 1,43,-1
 128 640 l 1,44,-1
 192 640 l 1,45,-1
 192 704 l 1,46,-1
 256 704 l 1,47,-1
 320 704 l 1,48,-1
 384 704 l 1,49,-1
 448 704 l 1,50,-1
 448 640 l 1,51,-1
 512 640 l 1,52,-1
 512 576 l 1,53,-1
 512 512 l 1,0,-1
EndSplineSet
EndChar

StartChar: D
Encoding: 68 68 39
Width: 575
GlyphClass: 1
Flags: W
LayerCount: 2
Fore
SplineSet
384 0 m 1,0,-1
 320 0 l 1,1,-1
 256 0 l 1,2,-1
 192 0 l 1,3,-1
 128 0 l 1,4,-1
 64 0 l 1,5,-1
 64 64 l 1,6,-1
 128 64 l 1,7,-1
 128 128 l 1,8,-1
 128 192 l 1,9,-1
 128 256 l 1,10,-1
 128 320 l 1,11,-1
 128 384 l 1,12,-1
 128 448 l 1,13,-1
 128 512 l 1,14,-1
 128 576 l 1,15,-1
 128 640 l 1,16,-1
 64 640 l 1,17,-1
 64 704 l 1,18,-1
 128 704 l 1,19,-1
 192 704 l 1,20,-1
 256 704 l 1,21,-1
 320 704 l 1,22,-1
 384 704 l 1,23,-1
 384 640 l 1,24,-1
 448 640 l 1,25,-1
 448 576 l 1,26,-1
 512 576 l 1,27,-1
 512 512 l 1,28,-1
 512 448 l 1,29,-1
 512 384 l 1,30,-1
 512 320 l 1,31,-1
 512 256 l 1,32,-1
 512 192 l 1,33,-1
 512 128 l 1,34,-1
 448 128 l 1,35,-1
 448 64 l 1,36,-1
 384 64 l 1,37,-1
 384 0 l 1,0,-1
256 64 m 1,38,-1
 320 64 l 1,39,-1
 320 128 l 1,40,-1
 384 128 l 1,41,-1
 384 192 l 1,42,-1
 384 256 l 1,43,-1
 384 320 l 1,44,-1
 384 384 l 1,45,-1
 384 448 l 1,46,-1
 384 512 l 1,47,-1
 384 576 l 1,48,-1
 320 576 l 1,49,-1
 320 640 l 1,50,-1
 256 640 l 1,51,-1
 256 576 l 1,52,-1
 256 512 l 1,53,-1
 256 448 l 1,54,-1
 256 384 l 1,55,-1
 256 320 l 1,56,-1
 256 256 l 1,57,-1
 256 192 l 1,58,-1
 256 128 l 1,59,-1
 256 64 l 1,38,-1
EndSplineSet
EndChar

StartChar: E
Encoding: 69 69 40
Width: 575
GlyphClass: 1
Flags: W
LayerCount: 2
Fore
SplineSet
384 320 m 1,0,-1
 320 320 l 1,1,-1
 320 384 l 1,2,-1
 256 384 l 1,3,-1
 256 320 l 1,4,-1
 256 256 l 1,5,-1
 256 192 l 1,6,-1
 256 128 l 1,7,-1
 256 64 l 1,8,-1
 320 64 l 1,9,-1
 384 64 l 1,10,-1
 384 128 l 1,11,-1
 448 128 l 1,12,-1
 448 192 l 1,13,-1
 512 192 l 1,14,-1
 512 128 l 1,15,-1
 512 64 l 1,16,-1
 512 0 l 1,17,-1
 448 0 l 1,18,-1
 384 0 l 1,19,-1
 320 0 l 1,20,-1
 256 0 l 1,21,-1
 192 0 l 1,22,-1
 128 0 l 1,23,-1
 64 0 l 1,24,-1
 64 64 l 1,25,-1
 128 64 l 1,26,-1
 128 128 l 1,27,-1
 128 192 l 1,28,-1
 128 256 l 1,29,-1
 128 320 l 1,30,-1
 128 384 l 1,31,-1
 128 448 l 1,32,-1
 128 512 l 1,33,-1
 128 576 l 1,34,-1
 128 640 l 1,35,-1
 64 640 l 1,36,-1
 64 704 l 1,37,-1
 128 704 l 1,38,-1
 192 704 l 1,39,-1
 256 704 l 1,40,-1
 320 704 l 1,41,-1
 384 704 l 1,42,-1
 448 704 l 1,43,-1
 512 704 l 1,44,-1
 512 640 l 1,45,-1
 512 576 l 1,46,-1
 512 512 l 1,47,-1
 448 512 l 1,48,-1
 448 576 l 1,49,-1
 384 576 l 1,50,-1
 384 640 l 1,51,-1
 320 640 l 1,52,-1
 256 640 l 1,53,-1
 256 576 l 1,54,-1
 256 512 l 1,55,-1
 256 448 l 1,56,-1
 320 448 l 1,57,-1
 320 512 l 1,58,-1
 384 512 l 1,59,-1
 384 448 l 1,60,-1
 384 384 l 1,61,-1
 384 320 l 1,0,-1
EndSplineSet
EndChar

StartChar: F
Encoding: 70 70 41
Width: 575
GlyphClass: 1
Flags: W
LayerCount: 2
Fore
SplineSet
384 320 m 1,0,-1
 320 320 l 1,1,-1
 320 384 l 1,2,-1
 256 384 l 1,3,-1
 256 320 l 1,4,-1
 256 256 l 1,5,-1
 256 192 l 1,6,-1
 256 128 l 1,7,-1
 256 64 l 1,8,-1
 320 64 l 1,9,-1
 320 0 l 1,10,-1
 256 0 l 1,11,-1
 192 0 l 1,12,-1
 128 0 l 1,13,-1
 64 0 l 1,14,-1
 64 64 l 1,15,-1
 128 64 l 1,16,-1
 128 128 l 1,17,-1
 128 192 l 1,18,-1
 128 256 l 1,19,-1
 128 320 l 1,20,-1
 128 384 l 1,21,-1
 128 448 l 1,22,-1
 128 512 l 1,23,-1
 128 576 l 1,24,-1
 128 640 l 1,25,-1
 64 640 l 1,26,-1
 64 704 l 1,27,-1
 128 704 l 1,28,-1
 192 704 l 1,29,-1
 256 704 l 1,30,-1
 320 704 l 1,31,-1
 384 704 l 1,32,-1
 448 704 l 1,33,-1
 512 704 l 1,34,-1
 512 640 l 1,35,-1
 512 576 l 1,36,-1
 512 512 l 1,37,-1
 448 512 l 1,38,-1
 448 576 l 1,39,-1
 384 576 l 1,40,-1
 384 640 l 1,41,-1
 320 640 l 1,42,-1
 256 640 l 1,43,-1
 256 576 l 1,44,-1
 256 512 l 1,45,-1
 256 448 l 1,46,-1
 320 448 l 1,47,-1
 320 512 l 1,48,-1
 384 512 l 1,49,-1
 384 448 l 1,50,-1
 384 384 l 1,51,-1
 384 320 l 1,0,-1
EndSplineSet
EndChar

StartChar: G
Encoding: 71 71 42
Width: 575
GlyphClass: 1
Flags: W
LayerCount: 2
Fore
SplineSet
512 0 m 1,0,-1
 448 0 l 1,1,-1
 448 64 l 1,2,-1
 384 64 l 1,3,-1
 384 0 l 1,4,-1
 320 0 l 1,5,-1
 256 0 l 1,6,-1
 192 0 l 1,7,-1
 192 64 l 1,8,-1
 128 64 l 1,9,-1
 128 128 l 1,10,-1
 64 128 l 1,11,-1
 64 192 l 1,12,-1
 64 256 l 1,13,-1
 64 320 l 1,14,-1
 64 384 l 1,15,-1
 64 448 l 1,16,-1
 64 512 l 1,17,-1
 64 576 l 1,18,-1
 128 576 l 1,19,-1
 128 640 l 1,20,-1
 192 640 l 1,21,-1
 192 704 l 1,22,-1
 256 704 l 1,23,-1
 320 704 l 1,24,-1
 384 704 l 1,25,-1
 448 704 l 1,26,-1
 448 640 l 1,27,-1
 512 640 l 1,28,-1
 512 576 l 1,29,-1
 512 512 l 1,30,-1
 448 512 l 1,31,-1
 448 576 l 1,32,-1
 384 576 l 1,33,-1
 384 640 l 1,34,-1
 320 640 l 1,35,-1
 256 640 l 1,36,-1
 256 576 l 1,37,-1
 192 576 l 1,38,-1
 192 512 l 1,39,-1
 192 448 l 1,40,-1
 192 384 l 1,41,-1
 192 320 l 1,42,-1
 192 256 l 1,43,-1
 192 192 l 1,44,-1
 192 128 l 1,45,-1
 256 128 l 1,46,-1
 256 64 l 1,47,-1
 320 64 l 1,48,-1
 384 64 l 1,49,-1
 384 128 l 1,50,-1
 384 192 l 1,51,-1
 384 256 l 1,52,-1
 384 320 l 1,53,-1
 320 320 l 1,54,-1
 256 320 l 1,55,-1
 256 384 l 1,56,-1
 320 384 l 1,57,-1
 384 384 l 1,58,-1
 448 384 l 1,59,-1
 512 384 l 1,60,-1
 512 320 l 1,61,-1
 512 256 l 1,62,-1
 512 192 l 1,63,-1
 512 128 l 1,64,-1
 512 64 l 1,65,-1
 512 0 l 1,0,-1
EndSplineSet
EndChar

StartChar: H
Encoding: 72 72 43
Width: 575
GlyphClass: 1
Flags: W
LayerCount: 2
Fore
SplineSet
512 0 m 1,0,-1
 448 0 l 1,1,-1
 384 0 l 1,2,-1
 384 64 l 1,3,-1
 384 128 l 1,4,-1
 384 192 l 1,5,-1
 384 256 l 1,6,-1
 384 320 l 1,7,-1
 384 384 l 1,8,-1
 320 384 l 1,9,-1
 256 384 l 1,10,-1
 192 384 l 1,11,-1
 192 320 l 1,12,-1
 192 256 l 1,13,-1
 192 192 l 1,14,-1
 192 128 l 1,15,-1
 192 64 l 1,16,-1
 192 0 l 1,17,-1
 128 0 l 1,18,-1
 64 0 l 1,19,-1
 64 64 l 1,20,-1
 64 128 l 1,21,-1
 64 192 l 1,22,-1
 64 256 l 1,23,-1
 64 320 l 1,24,-1
 64 384 l 1,25,-1
 64 448 l 1,26,-1
 64 512 l 1,27,-1
 64 576 l 1,28,-1
 64 640 l 1,29,-1
 64 704 l 1,30,-1
 128 704 l 1,31,-1
 192 704 l 1,32,-1
 192 640 l 1,33,-1
 192 576 l 1,34,-1
 192 512 l 1,35,-1
 192 448 l 1,36,-1
 256 448 l 1,37,-1
 320 448 l 1,38,-1
 384 448 l 1,39,-1
 384 512 l 1,40,-1
 384 576 l 1,41,-1
 384 640 l 1,42,-1
 384 704 l 1,43,-1
 448 704 l 1,44,-1
 512 704 l 1,45,-1
 512 640 l 1,46,-1
 512 576 l 1,47,-1
 512 512 l 1,48,-1
 512 448 l 1,49,-1
 512 384 l 1,50,-1
 512 320 l 1,51,-1
 512 256 l 1,52,-1
 512 192 l 1,53,-1
 512 128 l 1,54,-1
 512 64 l 1,55,-1
 512 0 l 1,0,-1
EndSplineSet
EndChar

StartChar: I
Encoding: 73 73 44
Width: 384
GlyphClass: 1
Flags: W
LayerCount: 2
Fore
SplineSet
320 0 m 1,0,-1
 256 0 l 1,1,-1
 192 0 l 1,2,-1
 128 0 l 1,3,-1
 64 0 l 1,4,-1
 64 64 l 1,5,-1
 128 64 l 1,6,-1
 128 128 l 1,7,-1
 128 192 l 1,8,-1
 128 256 l 1,9,-1
 128 320 l 1,10,-1
 128 384 l 1,11,-1
 128 448 l 1,12,-1
 128 512 l 1,13,-1
 128 576 l 1,14,-1
 128 640 l 1,15,-1
 64 640 l 1,16,-1
 64 704 l 1,17,-1
 128 704 l 1,18,-1
 192 704 l 1,19,-1
 256 704 l 1,20,-1
 320 704 l 1,21,-1
 320 640 l 1,22,-1
 256 640 l 1,23,-1
 256 576 l 1,24,-1
 256 512 l 1,25,-1
 256 448 l 1,26,-1
 256 384 l 1,27,-1
 256 320 l 1,28,-1
 256 256 l 1,29,-1
 256 192 l 1,30,-1
 256 128 l 1,31,-1
 256 64 l 1,32,-1
 320 64 l 1,33,-1
 320 0 l 1,0,-1
EndSplineSet
EndChar

StartChar: J
Encoding: 74 74 45
Width: 575
GlyphClass: 1
Flags: W
LayerCount: 2
Fore
SplineSet
384 0 m 1,0,-1
 320 0 l 1,1,-1
 256 0 l 1,2,-1
 192 0 l 1,3,-1
 128 0 l 1,4,-1
 128 64 l 1,5,-1
 64 64 l 1,6,-1
 64 128 l 1,7,-1
 64 192 l 1,8,-1
 64 256 l 1,9,-1
 128 256 l 1,10,-1
 192 256 l 1,11,-1
 192 192 l 1,12,-1
 192 128 l 1,13,-1
 192 64 l 1,14,-1
 256 64 l 1,15,-1
 320 64 l 1,16,-1
 320 128 l 1,17,-1
 320 192 l 1,18,-1
 320 256 l 1,19,-1
 320 320 l 1,20,-1
 320 384 l 1,21,-1
 320 448 l 1,22,-1
 320 512 l 1,23,-1
 320 576 l 1,24,-1
 320 640 l 1,25,-1
 256 640 l 1,26,-1
 256 704 l 1,27,-1
 320 704 l 1,28,-1
 384 704 l 1,29,-1
 448 704 l 1,30,-1
 512 704 l 1,31,-1
 512 640 l 1,32,-1
 448 640 l 1,33,-1
 448 576 l 1,34,-1
 448 512 l 1,35,-1
 448 448 l 1,36,-1
 448 384 l 1,37,-1
 448 320 l 1,38,-1
 448 256 l 1,39,-1
 448 192 l 1,40,-1
 448 128 l 1,41,-1
 448 64 l 1,42,-1
 384 64 l 1,43,-1
 384 0 l 1,0,-1
EndSplineSet
EndChar

StartChar: K
Encoding: 75 75 46
Width: 575
GlyphClass: 1
Flags: W
LayerCount: 2
Fore
SplineSet
512 0 m 1,0,-1
 448 0 l 1,1,-1
 384 0 l 1,2,-1
 384 64 l 1,3,-1
 384 128 l 1,4,-1
 384 192 l 1,5,-1
 320 192 l 1,6,-1
 320 256 l 1,7,-1
 320 320 l 1,8,-1
 256 320 l 1,9,-1
 256 256 l 1,10,-1
 256 192 l 1,11,-1
 256 128 l 1,12,-1
 256 64 l 1,13,-1
 256 0 l 1,14,-1
 192 0 l 1,15,-1
 128 0 l 1,16,-1
 64 0 l 1,17,-1
 64 64 l 1,18,-1
 128 64 l 1,19,-1
 128 128 l 1,20,-1
 128 192 l 1,21,-1
 128 256 l 1,22,-1
 128 320 l 1,23,-1
 128 384 l 1,24,-1
 128 448 l 1,25,-1
 128 512 l 1,26,-1
 128 576 l 1,27,-1
 128 640 l 1,28,-1
 64 640 l 1,29,-1
 64 704 l 1,30,-1
 128 704 l 1,31,-1
 192 704 l 1,32,-1
 256 704 l 1,33,-1
 256 640 l 1,34,-1
 256 576 l 1,35,-1
 256 512 l 1,36,-1
 256 448 l 1,37,-1
 256 384 l 1,38,-1
 320 384 l 1,39,-1
 320 448 l 1,40,-1
 320 512 l 1,41,-1
 384 512 l 1,42,-1
 384 576 l 1,43,-1
 384 640 l 1,44,-1
 384 704 l 1,45,-1
 448 704 l 1,46,-1
 512 704 l 1,47,-1
 512 640 l 1,48,-1
 512 576 l 1,49,-1
 512 512 l 1,50,-1
 448 512 l 1,51,-1
 448 448 l 1,52,-1
 448 384 l 1,53,-1
 384 384 l 1,54,-1
 384 320 l 1,55,-1
 448 320 l 1,56,-1
 448 256 l 1,57,-1
 448 192 l 1,58,-1
 512 192 l 1,59,-1
 512 128 l 1,60,-1
 512 64 l 1,61,-1
 512 0 l 1,0,-1
EndSplineSet
EndChar

StartChar: L
Encoding: 76 76 47
Width: 575
GlyphClass: 1
Flags: W
LayerCount: 2
Fore
SplineSet
512 0 m 1,0,-1
 448 0 l 1,1,-1
 384 0 l 1,2,-1
 320 0 l 1,3,-1
 256 0 l 1,4,-1
 192 0 l 1,5,-1
 128 0 l 1,6,-1
 64 0 l 1,7,-1
 64 64 l 1,8,-1
 128 64 l 1,9,-1
 128 128 l 1,10,-1
 128 192 l 1,11,-1
 128 256 l 1,12,-1
 128 320 l 1,13,-1
 128 384 l 1,14,-1
 128 448 l 1,15,-1
 128 512 l 1,16,-1
 128 576 l 1,17,-1
 128 640 l 1,18,-1
 64 640 l 1,19,-1
 64 704 l 1,20,-1
 128 704 l 1,21,-1
 192 704 l 1,22,-1
 256 704 l 1,23,-1
 320 704 l 1,24,-1
 320 640 l 1,25,-1
 256 640 l 1,26,-1
 256 576 l 1,27,-1
 256 512 l 1,28,-1
 256 448 l 1,29,-1
 256 384 l 1,30,-1
 256 320 l 1,31,-1
 256 256 l 1,32,-1
 256 192 l 1,33,-1
 256 128 l 1,34,-1
 256 64 l 1,35,-1
 320 64 l 1,36,-1
 384 64 l 1,37,-1
 384 128 l 1,38,-1
 448 128 l 1,39,-1
 448 192 l 1,40,-1
 512 192 l 1,41,-1
 512 128 l 1,42,-1
 512 64 l 1,43,-1
 512 0 l 1,0,-1
EndSplineSet
EndChar

StartChar: M
Encoding: 77 77 48
Width: 575
GlyphClass: 1
Flags: W
LayerCount: 2
Fore
SplineSet
320 384 m 1,0,-1
 256 384 l 1,1,-1
 256 448 l 1,2,-1
 192 448 l 1,3,-1
 192 384 l 1,4,-1
 192 320 l 1,5,-1
 192 256 l 1,6,-1
 192 192 l 1,7,-1
 192 128 l 1,8,-1
 192 64 l 1,9,-1
 192 0 l 1,10,-1
 128 0 l 1,11,-1
 64 0 l 1,12,-1
 64 64 l 1,13,-1
 64 128 l 1,14,-1
 64 192 l 1,15,-1
 64 256 l 1,16,-1
 64 320 l 1,17,-1
 64 384 l 1,18,-1
 64 448 l 1,19,-1
 64 512 l 1,20,-1
 64 576 l 1,21,-1
 64 640 l 1,22,-1
 64 704 l 1,23,-1
 128 704 l 1,24,-1
 192 704 l 1,25,-1
 192 640 l 1,26,-1
 256 640 l 1,27,-1
 256 576 l 1,28,-1
 320 576 l 1,29,-1
 320 640 l 1,30,-1
 384 640 l 1,31,-1
 384 704 l 1,32,-1
 448 704 l 1,33,-1
 512 704 l 1,34,-1
 512 640 l 1,35,-1
 512 576 l 1,36,-1
 512 512 l 1,37,-1
 512 448 l 1,38,-1
 512 384 l 1,39,-1
 512 320 l 1,40,-1
 512 256 l 1,41,-1
 512 192 l 1,42,-1
 512 128 l 1,43,-1
 512 64 l 1,44,-1
 512 0 l 1,45,-1
 448 0 l 1,46,-1
 384 0 l 1,47,-1
 384 64 l 1,48,-1
 384 128 l 1,49,-1
 384 192 l 1,50,-1
 384 256 l 1,51,-1
 384 320 l 1,52,-1
 384 384 l 1,53,-1
 384 448 l 1,54,-1
 320 448 l 1,55,-1
 320 384 l 1,0,-1
EndSplineSet
EndChar

StartChar: N
Encoding: 78 78 49
Width: 575
GlyphClass: 1
Flags: W
LayerCount: 2
Fore
SplineSet
512 0 m 1,0,-1
 448 0 l 1,1,-1
 384 0 l 1,2,-1
 384 64 l 1,3,-1
 384 128 l 1,4,-1
 384 192 l 1,5,-1
 384 256 l 1,6,-1
 320 256 l 1,7,-1
 320 320 l 1,8,-1
 320 384 l 1,9,-1
 256 384 l 1,10,-1
 256 448 l 1,11,-1
 192 448 l 1,12,-1
 192 384 l 1,13,-1
 192 320 l 1,14,-1
 192 256 l 1,15,-1
 192 192 l 1,16,-1
 192 128 l 1,17,-1
 192 64 l 1,18,-1
 192 0 l 1,19,-1
 128 0 l 1,20,-1
 64 0 l 1,21,-1
 64 64 l 1,22,-1
 64 128 l 1,23,-1
 64 192 l 1,24,-1
 64 256 l 1,25,-1
 64 320 l 1,26,-1
 64 384 l 1,27,-1
 64 448 l 1,28,-1
 64 512 l 1,29,-1
 64 576 l 1,30,-1
 64 640 l 1,31,-1
 64 704 l 1,32,-1
 128 704 l 1,33,-1
 192 704 l 1,34,-1
 192 640 l 1,35,-1
 256 640 l 1,36,-1
 256 576 l 1,37,-1
 320 576 l 1,38,-1
 320 512 l 1,39,-1
 384 512 l 1,40,-1
 384 576 l 1,41,-1
 384 640 l 1,42,-1
 384 704 l 1,43,-1
 448 704 l 1,44,-1
 512 704 l 1,45,-1
 512 640 l 1,46,-1
 512 576 l 1,47,-1
 512 512 l 1,48,-1
 512 448 l 1,49,-1
 512 384 l 1,50,-1
 512 320 l 1,51,-1
 512 256 l 1,52,-1
 512 192 l 1,53,-1
 512 128 l 1,54,-1
 512 64 l 1,55,-1
 512 0 l 1,0,-1
EndSplineSet
EndChar

StartChar: O
Encoding: 79 79 50
Width: 575
GlyphClass: 1
Flags: W
LayerCount: 2
Fore
SplineSet
448 0 m 1,0,-1
 384 0 l 1,1,-1
 320 0 l 1,2,-1
 256 0 l 1,3,-1
 192 0 l 1,4,-1
 128 0 l 1,5,-1
 128 64 l 1,6,-1
 64 64 l 1,7,-1
 64 128 l 1,8,-1
 64 192 l 1,9,-1
 64 256 l 1,10,-1
 64 320 l 1,11,-1
 64 384 l 1,12,-1
 64 448 l 1,13,-1
 64 512 l 1,14,-1
 64 576 l 1,15,-1
 64 640 l 1,16,-1
 128 640 l 1,17,-1
 128 704 l 1,18,-1
 192 704 l 1,19,-1
 256 704 l 1,20,-1
 320 704 l 1,21,-1
 384 704 l 1,22,-1
 448 704 l 1,23,-1
 448 640 l 1,24,-1
 512 640 l 1,25,-1
 512 576 l 1,26,-1
 512 512 l 1,27,-1
 512 448 l 1,28,-1
 512 384 l 1,29,-1
 512 320 l 1,30,-1
 512 256 l 1,31,-1
 512 192 l 1,32,-1
 512 128 l 1,33,-1
 512 64 l 1,34,-1
 448 64 l 1,35,-1
 448 0 l 1,0,-1
256 64 m 1,36,-1
 320 64 l 1,37,-1
 384 64 l 1,38,-1
 384 128 l 1,39,-1
 384 192 l 1,40,-1
 384 256 l 1,41,-1
 384 320 l 1,42,-1
 384 384 l 1,43,-1
 384 448 l 1,44,-1
 384 512 l 1,45,-1
 384 576 l 1,46,-1
 384 640 l 1,47,-1
 320 640 l 1,48,-1
 256 640 l 1,49,-1
 192 640 l 1,50,-1
 192 576 l 1,51,-1
 192 512 l 1,52,-1
 192 448 l 1,53,-1
 192 384 l 1,54,-1
 192 320 l 1,55,-1
 192 256 l 1,56,-1
 192 192 l 1,57,-1
 192 128 l 1,58,-1
 192 64 l 1,59,-1
 256 64 l 1,36,-1
EndSplineSet
EndChar

StartChar: P
Encoding: 80 80 51
Width: 575
GlyphClass: 1
Flags: W
LayerCount: 2
Fore
SplineSet
320 0 m 1,0,-1
 256 0 l 1,1,-1
 192 0 l 1,2,-1
 128 0 l 1,3,-1
 64 0 l 1,4,-1
 64 64 l 1,5,-1
 128 64 l 1,6,-1
 128 128 l 1,7,-1
 128 192 l 1,8,-1
 128 256 l 1,9,-1
 128 320 l 1,10,-1
 128 384 l 1,11,-1
 128 448 l 1,12,-1
 128 512 l 1,13,-1
 128 576 l 1,14,-1
 128 640 l 1,15,-1
 64 640 l 1,16,-1
 64 704 l 1,17,-1
 128 704 l 1,18,-1
 192 704 l 1,19,-1
 256 704 l 1,20,-1
 320 704 l 1,21,-1
 384 704 l 1,22,-1
 448 704 l 1,23,-1
 448 640 l 1,24,-1
 512 640 l 1,25,-1
 512 576 l 1,26,-1
 512 512 l 1,27,-1
 512 448 l 1,28,-1
 448 448 l 1,29,-1
 448 384 l 1,30,-1
 384 384 l 1,31,-1
 320 384 l 1,32,-1
 256 384 l 1,33,-1
 256 320 l 1,34,-1
 256 256 l 1,35,-1
 256 192 l 1,36,-1
 256 128 l 1,37,-1
 256 64 l 1,38,-1
 320 64 l 1,39,-1
 320 0 l 1,0,-1
256 448 m 1,40,-1
 320 448 l 1,41,-1
 384 448 l 1,42,-1
 384 512 l 1,43,-1
 384 576 l 1,44,-1
 384 640 l 1,45,-1
 320 640 l 1,46,-1
 256 640 l 1,47,-1
 256 576 l 1,48,-1
 256 512 l 1,49,-1
 256 448 l 1,40,-1
EndSplineSet
EndChar

StartChar: Q
Encoding: 81 81 52
Width: 575
GlyphClass: 1
Flags: W
LayerCount: 2
Fore
SplineSet
512 -128 m 1,0,-1
 448 -128 l 1,1,-1
 384 -128 l 1,2,-1
 384 -64 l 1,3,-1
 320 -64 l 1,4,-1
 320 0 l 1,5,-1
 256 0 l 1,6,-1
 192 0 l 1,7,-1
 128 0 l 1,8,-1
 128 64 l 1,9,-1
 64 64 l 1,10,-1
 64 128 l 1,11,-1
 64 192 l 1,12,-1
 64 256 l 1,13,-1
 64 320 l 1,14,-1
 64 384 l 1,15,-1
 64 448 l 1,16,-1
 64 512 l 1,17,-1
 64 576 l 1,18,-1
 64 640 l 1,19,-1
 128 640 l 1,20,-1
 128 704 l 1,21,-1
 192 704 l 1,22,-1
 256 704 l 1,23,-1
 320 704 l 1,24,-1
 384 704 l 1,25,-1
 448 704 l 1,26,-1
 448 640 l 1,27,-1
 512 640 l 1,28,-1
 512 576 l 1,29,-1
 512 512 l 1,30,-1
 512 448 l 1,31,-1
 512 384 l 1,32,-1
 512 320 l 1,33,-1
 512 256 l 1,34,-1
 512 192 l 1,35,-1
 512 128 l 1,36,-1
 512 64 l 1,37,-1
 448 64 l 1,38,-1
 448 0 l 1,39,-1
 448 -64 l 1,40,-1
 512 -64 l 1,41,-1
 512 -128 l 1,0,-1
192 64 m 1,42,-1
 256 64 l 1,43,-1
 256 128 l 1,44,-1
 256 192 l 1,45,-1
 320 192 l 1,46,-1
 384 192 l 1,47,-1
 384 256 l 1,48,-1
 384 320 l 1,49,-1
 384 384 l 1,50,-1
 384 448 l 1,51,-1
 384 512 l 1,52,-1
 384 576 l 1,53,-1
 384 640 l 1,54,-1
 320 640 l 1,55,-1
 256 640 l 1,56,-1
 192 640 l 1,57,-1
 192 576 l 1,58,-1
 192 512 l 1,59,-1
 192 448 l 1,60,-1
 192 384 l 1,61,-1
 192 320 l 1,62,-1
 192 256 l 1,63,-1
 192 192 l 1,64,-1
 192 128 l 1,65,-1
 192 64 l 1,42,-1
EndSplineSet
EndChar

StartChar: R
Encoding: 82 82 53
Width: 575
GlyphClass: 1
Flags: W
LayerCount: 2
Fore
SplineSet
512 0 m 1,0,-1
 448 0 l 1,1,-1
 384 0 l 1,2,-1
 384 64 l 1,3,-1
 384 128 l 1,4,-1
 384 192 l 1,5,-1
 384 256 l 1,6,-1
 384 320 l 1,7,-1
 320 320 l 1,8,-1
 320 384 l 1,9,-1
 256 384 l 1,10,-1
 256 320 l 1,11,-1
 256 256 l 1,12,-1
 256 192 l 1,13,-1
 256 128 l 1,14,-1
 256 64 l 1,15,-1
 256 0 l 1,16,-1
 192 0 l 1,17,-1
 128 0 l 1,18,-1
 64 0 l 1,19,-1
 64 64 l 1,20,-1
 128 64 l 1,21,-1
 128 128 l 1,22,-1
 128 192 l 1,23,-1
 128 256 l 1,24,-1
 128 320 l 1,25,-1
 128 384 l 1,26,-1
 128 448 l 1,27,-1
 128 512 l 1,28,-1
 128 576 l 1,29,-1
 128 640 l 1,30,-1
 64 640 l 1,31,-1
 64 704 l 1,32,-1
 128 704 l 1,33,-1
 192 704 l 1,34,-1
 256 704 l 1,35,-1
 320 704 l 1,36,-1
 384 704 l 1,37,-1
 448 704 l 1,38,-1
 448 640 l 1,39,-1
 512 640 l 1,40,-1
 512 576 l 1,41,-1
 512 512 l 1,42,-1
 512 448 l 1,43,-1
 448 448 l 1,44,-1
 448 384 l 1,45,-1
 448 320 l 1,46,-1
 512 320 l 1,47,-1
 512 256 l 1,48,-1
 512 192 l 1,49,-1
 512 128 l 1,50,-1
 512 64 l 1,51,-1
 512 0 l 1,0,-1
256 448 m 1,52,-1
 320 448 l 1,53,-1
 384 448 l 1,54,-1
 384 512 l 1,55,-1
 384 576 l 1,56,-1
 384 640 l 1,57,-1
 320 640 l 1,58,-1
 256 640 l 1,59,-1
 256 576 l 1,60,-1
 256 512 l 1,61,-1
 256 448 l 1,52,-1
EndSplineSet
EndChar

StartChar: S
Encoding: 83 83 54
Width: 575
GlyphClass: 1
Flags: W
LayerCount: 2
Fore
SplineSet
448 0 m 1,0,-1
 384 0 l 1,1,-1
 320 0 l 1,2,-1
 256 0 l 1,3,-1
 192 0 l 1,4,-1
 128 0 l 1,5,-1
 128 64 l 1,6,-1
 64 64 l 1,7,-1
 64 128 l 1,8,-1
 64 192 l 1,9,-1
 128 192 l 1,10,-1
 192 192 l 1,11,-1
 192 128 l 1,12,-1
 192 64 l 1,13,-1
 256 64 l 1,14,-1
 320 64 l 1,15,-1
 384 64 l 1,16,-1
 384 128 l 1,17,-1
 384 192 l 1,18,-1
 384 256 l 1,19,-1
 320 256 l 1,20,-1
 320 320 l 1,21,-1
 256 320 l 1,22,-1
 256 384 l 1,23,-1
 192 384 l 1,24,-1
 192 448 l 1,25,-1
 128 448 l 1,26,-1
 128 512 l 1,27,-1
 64 512 l 1,28,-1
 64 576 l 1,29,-1
 64 640 l 1,30,-1
 128 640 l 1,31,-1
 128 704 l 1,32,-1
 192 704 l 1,33,-1
 256 704 l 1,34,-1
 320 704 l 1,35,-1
 384 704 l 1,36,-1
 448 704 l 1,37,-1
 448 640 l 1,38,-1
 512 640 l 1,39,-1
 512 576 l 1,40,-1
 512 512 l 1,41,-1
 448 512 l 1,42,-1
 384 512 l 1,43,-1
 384 576 l 1,44,-1
 384 640 l 1,45,-1
 320 640 l 1,46,-1
 256 640 l 1,47,-1
 192 640 l 1,48,-1
 192 576 l 1,49,-1
 192 512 l 1,50,-1
 256 512 l 1,51,-1
 256 448 l 1,52,-1
 320 448 l 1,53,-1
 320 384 l 1,54,-1
 384 384 l 1,55,-1
 384 320 l 1,56,-1
 448 320 l 1,57,-1
 448 256 l 1,58,-1
 512 256 l 1,59,-1
 512 192 l 1,60,-1
 512 128 l 1,61,-1
 512 64 l 1,62,-1
 448 64 l 1,63,-1
 448 0 l 1,0,-1
EndSplineSet
EndChar

StartChar: T
Encoding: 84 84 55
Width: 512
GlyphClass: 1
Flags: W
LayerCount: 2
Fore
SplineSet
464 512 m 1,0,-1
 398 512 l 1,1,-1
 398 576 l 1,2,-1
 331 576 l 1,3,-1
 331 512 l 1,4,-1
 331 448 l 1,5,-1
 331 384 l 1,6,-1
 331 320 l 1,7,-1
 331 256 l 1,8,-1
 331 192 l 1,9,-1
 331 128 l 1,10,-1
 331 64 l 1,11,-1
 398 64 l 1,12,-1
 398 0 l 1,13,-1
 331 0 l 1,14,-1
 264 0 l 1,15,-1
 196 0 l 1,16,-1
 131 0 l 1,17,-1
 131 64 l 1,18,-1
 196 64 l 1,19,-1
 196 128 l 1,20,-1
 196 192 l 1,21,-1
 196 256 l 1,22,-1
 196 320 l 1,23,-1
 196 384 l 1,24,-1
 196 448 l 1,25,-1
 196 512 l 1,26,-1
 196 576 l 1,27,-1
 131 576 l 1,28,-1
 131 512 l 1,29,-1
 64 512 l 1,30,-1
 64 576 l 1,31,-1
 64 640 l 1,32,-1
 64 704 l 1,33,-1
 131 704 l 1,34,-1
 196 704 l 1,35,-1
 264 704 l 1,36,-1
 331 704 l 1,37,-1
 398 704 l 1,38,-1
 464 704 l 1,39,-1
 464 640 l 1,40,-1
 464 576 l 1,41,-1
 464 512 l 1,0,-1
EndSplineSet
EndChar

StartChar: U
Encoding: 85 85 56
Width: 575
GlyphClass: 1
Flags: W
LayerCount: 2
Fore
SplineSet
448 0 m 1,0,-1
 384 0 l 1,1,-1
 320 0 l 1,2,-1
 256 0 l 1,3,-1
 192 0 l 1,4,-1
 128 0 l 1,5,-1
 128 64 l 1,6,-1
 64 64 l 1,7,-1
 64 128 l 1,8,-1
 64 192 l 1,9,-1
 64 256 l 1,10,-1
 64 320 l 1,11,-1
 64 384 l 1,12,-1
 64 448 l 1,13,-1
 64 512 l 1,14,-1
 64 576 l 1,15,-1
 64 640 l 1,16,-1
 64 704 l 1,17,-1
 128 704 l 1,18,-1
 192 704 l 1,19,-1
 192 640 l 1,20,-1
 192 576 l 1,21,-1
 192 512 l 1,22,-1
 192 448 l 1,23,-1
 192 384 l 1,24,-1
 192 320 l 1,25,-1
 192 256 l 1,26,-1
 192 192 l 1,27,-1
 192 128 l 1,28,-1
 192 64 l 1,29,-1
 256 64 l 1,30,-1
 320 64 l 1,31,-1
 384 64 l 1,32,-1
 384 128 l 1,33,-1
 384 192 l 1,34,-1
 384 256 l 1,35,-1
 384 320 l 1,36,-1
 384 384 l 1,37,-1
 384 448 l 1,38,-1
 384 512 l 1,39,-1
 384 576 l 1,40,-1
 384 640 l 1,41,-1
 384 704 l 1,42,-1
 448 704 l 1,43,-1
 512 704 l 1,44,-1
 512 640 l 1,45,-1
 512 576 l 1,46,-1
 512 512 l 1,47,-1
 512 448 l 1,48,-1
 512 384 l 1,49,-1
 512 320 l 1,50,-1
 512 256 l 1,51,-1
 512 192 l 1,52,-1
 512 128 l 1,53,-1
 512 64 l 1,54,-1
 448 64 l 1,55,-1
 448 0 l 1,0,-1
EndSplineSet
EndChar

StartChar: V
Encoding: 86 86 57
Width: 575
GlyphClass: 1
Flags: W
LayerCount: 2
Fore
SplineSet
320 0 m 1,0,-1
 256 0 l 1,1,-1
 256 64 l 1,2,-1
 192 64 l 1,3,-1
 192 128 l 1,4,-1
 192 192 l 1,5,-1
 128 192 l 1,6,-1
 128 256 l 1,7,-1
 128 320 l 1,8,-1
 64 320 l 1,9,-1
 64 384 l 1,10,-1
 64 448 l 1,11,-1
 64 512 l 1,12,-1
 64 576 l 1,13,-1
 64 640 l 1,14,-1
 64 704 l 1,15,-1
 128 704 l 1,16,-1
 192 704 l 1,17,-1
 192 640 l 1,18,-1
 192 576 l 1,19,-1
 192 512 l 1,20,-1
 192 448 l 1,21,-1
 192 384 l 1,22,-1
 192 320 l 1,23,-1
 256 320 l 1,24,-1
 256 256 l 1,25,-1
 256 192 l 1,26,-1
 320 192 l 1,27,-1
 320 256 l 1,28,-1
 320 320 l 1,29,-1
 384 320 l 1,30,-1
 384 384 l 1,31,-1
 384 448 l 1,32,-1
 384 512 l 1,33,-1
 384 576 l 1,34,-1
 384 640 l 1,35,-1
 384 704 l 1,36,-1
 448 704 l 1,37,-1
 512 704 l 1,38,-1
 512 640 l 1,39,-1
 512 576 l 1,40,-1
 512 512 l 1,41,-1
 512 448 l 1,42,-1
 512 384 l 1,43,-1
 512 320 l 1,44,-1
 448 320 l 1,45,-1
 448 256 l 1,46,-1
 448 192 l 1,47,-1
 384 192 l 1,48,-1
 384 128 l 1,49,-1
 384 64 l 1,50,-1
 320 64 l 1,51,-1
 320 0 l 1,0,-1
EndSplineSet
EndChar

StartChar: W
Encoding: 87 87 58
Width: 575
GlyphClass: 1
Flags: W
LayerCount: 2
Fore
SplineSet
448 0 m 1,0,-1
 384 0 l 1,1,-1
 320 0 l 1,2,-1
 320 64 l 1,3,-1
 320 128 l 1,4,-1
 256 128 l 1,5,-1
 256 64 l 1,6,-1
 256 0 l 1,7,-1
 192 0 l 1,8,-1
 128 0 l 1,9,-1
 128 64 l 1,10,-1
 64 64 l 1,11,-1
 64 128 l 1,12,-1
 64 192 l 1,13,-1
 64 256 l 1,14,-1
 64 320 l 1,15,-1
 64 384 l 1,16,-1
 64 448 l 1,17,-1
 64 512 l 1,18,-1
 64 576 l 1,19,-1
 64 640 l 1,20,-1
 64 704 l 1,21,-1
 128 704 l 1,22,-1
 192 704 l 1,23,-1
 192 640 l 1,24,-1
 192 576 l 1,25,-1
 192 512 l 1,26,-1
 192 448 l 1,27,-1
 192 384 l 1,28,-1
 192 320 l 1,29,-1
 192 256 l 1,30,-1
 192 192 l 1,31,-1
 256 192 l 1,32,-1
 256 256 l 1,33,-1
 256 320 l 1,34,-1
 256 384 l 1,35,-1
 320 384 l 1,36,-1
 320 320 l 1,37,-1
 320 256 l 1,38,-1
 320 192 l 1,39,-1
 384 192 l 1,40,-1
 384 256 l 1,41,-1
 384 320 l 1,42,-1
 384 384 l 1,43,-1
 384 448 l 1,44,-1
 384 512 l 1,45,-1
 384 576 l 1,46,-1
 384 640 l 1,47,-1
 384 704 l 1,48,-1
 448 704 l 1,49,-1
 512 704 l 1,50,-1
 512 640 l 1,51,-1
 512 576 l 1,52,-1
 512 512 l 1,53,-1
 512 448 l 1,54,-1
 512 384 l 1,55,-1
 512 320 l 1,56,-1
 512 256 l 1,57,-1
 512 192 l 1,58,-1
 512 128 l 1,59,-1
 512 64 l 1,60,-1
 448 64 l 1,61,-1
 448 0 l 1,0,-1
EndSplineSet
EndChar

StartChar: X
Encoding: 88 88 59
Width: 575
GlyphClass: 1
Flags: W
LayerCount: 2
Fore
SplineSet
512 0 m 1,0,-1
 448 0 l 1,1,-1
 384 0 l 1,2,-1
 384 64 l 1,3,-1
 384 128 l 1,4,-1
 320 128 l 1,5,-1
 320 192 l 1,6,-1
 256 192 l 1,7,-1
 256 128 l 1,8,-1
 192 128 l 1,9,-1
 192 64 l 1,10,-1
 192 0 l 1,11,-1
 128 0 l 1,12,-1
 64 0 l 1,13,-1
 64 64 l 1,14,-1
 64 128 l 1,15,-1
 128 128 l 1,16,-1
 128 192 l 1,17,-1
 128 256 l 1,18,-1
 192 256 l 1,19,-1
 192 320 l 1,20,-1
 192 384 l 1,21,-1
 192 448 l 1,22,-1
 128 448 l 1,23,-1
 128 512 l 1,24,-1
 128 576 l 1,25,-1
 64 576 l 1,26,-1
 64 640 l 1,27,-1
 64 704 l 1,28,-1
 128 704 l 1,29,-1
 192 704 l 1,30,-1
 192 640 l 1,31,-1
 192 576 l 1,32,-1
 256 576 l 1,33,-1
 256 512 l 1,34,-1
 320 512 l 1,35,-1
 320 576 l 1,36,-1
 384 576 l 1,37,-1
 384 640 l 1,38,-1
 384 704 l 1,39,-1
 448 704 l 1,40,-1
 512 704 l 1,41,-1
 512 640 l 1,42,-1
 512 576 l 1,43,-1
 448 576 l 1,44,-1
 448 512 l 1,45,-1
 448 448 l 1,46,-1
 384 448 l 1,47,-1
 384 384 l 1,48,-1
 384 320 l 1,49,-1
 384 256 l 1,50,-1
 448 256 l 1,51,-1
 448 192 l 1,52,-1
 448 128 l 1,53,-1
 512 128 l 1,54,-1
 512 64 l 1,55,-1
 512 0 l 1,0,-1
EndSplineSet
EndChar

StartChar: Y
Encoding: 89 89 60
Width: 512
GlyphClass: 1
Flags: W
LayerCount: 2
Fore
SplineSet
384 0 m 1,0,-1
 320 0 l 1,1,-1
 256 0 l 1,2,-1
 192 0 l 1,3,-1
 128 0 l 1,4,-1
 128 64 l 1,5,-1
 192 64 l 1,6,-1
 192 128 l 1,7,-1
 192 192 l 1,8,-1
 192 256 l 1,9,-1
 192 320 l 1,10,-1
 128 320 l 1,11,-1
 128 384 l 1,12,-1
 64 384 l 1,13,-1
 64 448 l 1,14,-1
 64 512 l 1,15,-1
 64 576 l 1,16,-1
 64 640 l 1,17,-1
 64 704 l 1,18,-1
 128 704 l 1,19,-1
 192 704 l 1,20,-1
 192 640 l 1,21,-1
 192 576 l 1,22,-1
 192 512 l 1,23,-1
 192 448 l 1,24,-1
 192 384 l 1,25,-1
 256 384 l 1,26,-1
 320 384 l 1,27,-1
 320 448 l 1,28,-1
 320 512 l 1,29,-1
 320 576 l 1,30,-1
 320 640 l 1,31,-1
 320 704 l 1,32,-1
 384 704 l 1,33,-1
 448 704 l 1,34,-1
 448 640 l 1,35,-1
 448 576 l 1,36,-1
 448 512 l 1,37,-1
 448 448 l 1,38,-1
 448 384 l 1,39,-1
 384 384 l 1,40,-1
 384 320 l 1,41,-1
 320 320 l 1,42,-1
 320 256 l 1,43,-1
 320 192 l 1,44,-1
 320 128 l 1,45,-1
 320 64 l 1,46,-1
 384 64 l 1,47,-1
 384 0 l 1,0,-1
EndSplineSet
EndChar

StartChar: Z
Encoding: 90 90 61
Width: 575
GlyphClass: 1
Flags: W
LayerCount: 2
Fore
SplineSet
128 512 m 1,0,-1
 64 512 l 1,1,-1
 64 576 l 1,2,-1
 64 640 l 1,3,-1
 64 704 l 1,4,-1
 128 704 l 1,5,-1
 192 704 l 1,6,-1
 256 704 l 1,7,-1
 320 704 l 1,8,-1
 384 704 l 1,9,-1
 448 704 l 1,10,-1
 512 704 l 1,11,-1
 512 640 l 1,12,-1
 512 576 l 1,13,-1
 512 512 l 1,14,-1
 448 512 l 1,15,-1
 448 448 l 1,16,-1
 448 384 l 1,17,-1
 384 384 l 1,18,-1
 384 320 l 1,19,-1
 320 320 l 1,20,-1
 256 320 l 1,21,-1
 256 256 l 1,22,-1
 256 192 l 1,23,-1
 192 192 l 1,24,-1
 192 128 l 1,25,-1
 192 64 l 1,26,-1
 256 64 l 1,27,-1
 320 64 l 1,28,-1
 384 64 l 1,29,-1
 384 128 l 1,30,-1
 448 128 l 1,31,-1
 448 192 l 1,32,-1
 512 192 l 1,33,-1
 512 128 l 1,34,-1
 512 64 l 1,35,-1
 512 0 l 1,36,-1
 448 0 l 1,37,-1
 384 0 l 1,38,-1
 320 0 l 1,39,-1
 256 0 l 1,40,-1
 192 0 l 1,41,-1
 128 0 l 1,42,-1
 64 0 l 1,43,-1
 64 64 l 1,44,-1
 64 128 l 1,45,-1
 64 192 l 1,46,-1
 128 192 l 1,47,-1
 128 256 l 1,48,-1
 128 320 l 1,49,-1
 192 320 l 1,50,-1
 192 384 l 1,51,-1
 256 384 l 1,52,-1
 320 384 l 1,53,-1
 320 448 l 1,54,-1
 320 512 l 1,55,-1
 384 512 l 1,56,-1
 384 576 l 1,57,-1
 384 640 l 1,58,-1
 320 640 l 1,59,-1
 256 640 l 1,60,-1
 192 640 l 1,61,-1
 192 576 l 1,62,-1
 128 576 l 1,63,-1
 128 512 l 1,0,-1
EndSplineSet
EndChar

StartChar: bracketleft
Encoding: 91 91 62
Width: 384
GlyphClass: 1
Flags: W
LayerCount: 2
Fore
SplineSet
192 64 m 1,0,-1
 256 64 l 1,1,-1
 320 64 l 1,2,-1
 320 0 l 1,3,-1
 256 0 l 1,4,-1
 192 0 l 1,5,-1
 128 0 l 1,6,-1
 64 0 l 1,7,-1
 64 64 l 1,8,-1
 64 128 l 1,9,-1
 64 192 l 1,10,-1
 64 256 l 1,11,-1
 64 320 l 1,12,-1
 64 384 l 1,13,-1
 64 448 l 1,14,-1
 64 512 l 1,15,-1
 64 576 l 1,16,-1
 64 640 l 1,17,-1
 64 704 l 1,18,-1
 128 704 l 1,19,-1
 192 704 l 1,20,-1
 256 704 l 1,21,-1
 320 704 l 1,22,-1
 320 640 l 1,23,-1
 256 640 l 1,24,-1
 192 640 l 1,25,-1
 192 576 l 1,26,-1
 192 512 l 1,27,-1
 192 448 l 1,28,-1
 192 384 l 1,29,-1
 192 320 l 1,30,-1
 192 256 l 1,31,-1
 192 192 l 1,32,-1
 192 128 l 1,33,-1
 192 64 l 1,0,-1
EndSplineSet
EndChar

StartChar: backslash
Encoding: 92 92 63
Width: 575
GlyphClass: 1
Flags: W
LayerCount: 2
Fore
SplineSet
512 0 m 1,0,-1
 448 0 l 1,1,-1
 448 64 l 1,2,-1
 384 64 l 1,3,-1
 384 128 l 1,4,-1
 320 128 l 1,5,-1
 320 192 l 1,6,-1
 256 192 l 1,7,-1
 256 256 l 1,8,-1
 192 256 l 1,9,-1
 192 320 l 1,10,-1
 128 320 l 1,11,-1
 128 384 l 1,12,-1
 64 384 l 1,13,-1
 64 448 l 1,14,-1
 64 512 l 1,15,-1
 64 576 l 1,16,-1
 128 576 l 1,17,-1
 128 512 l 1,18,-1
 192 512 l 1,19,-1
 192 448 l 1,20,-1
 256 448 l 1,21,-1
 256 384 l 1,22,-1
 320 384 l 1,23,-1
 320 320 l 1,24,-1
 384 320 l 1,25,-1
 384 256 l 1,26,-1
 448 256 l 1,27,-1
 448 192 l 1,28,-1
 512 192 l 1,29,-1
 512 128 l 1,30,-1
 512 64 l 1,31,-1
 512 0 l 1,0,-1
EndSplineSet
EndChar

StartChar: bracketright
Encoding: 93 93 64
Width: 384
GlyphClass: 1
Flags: W
LayerCount: 2
Fore
SplineSet
320 0 m 1,0,-1
 256 0 l 1,1,-1
 192 0 l 1,2,-1
 128 0 l 1,3,-1
 64 0 l 1,4,-1
 64 64 l 1,5,-1
 128 64 l 1,6,-1
 192 64 l 1,7,-1
 192 128 l 1,8,-1
 192 192 l 1,9,-1
 192 256 l 1,10,-1
 192 320 l 1,11,-1
 192 384 l 1,12,-1
 192 448 l 1,13,-1
 192 512 l 1,14,-1
 192 576 l 1,15,-1
 192 640 l 1,16,-1
 128 640 l 1,17,-1
 64 640 l 1,18,-1
 64 704 l 1,19,-1
 128 704 l 1,20,-1
 192 704 l 1,21,-1
 256 704 l 1,22,-1
 320 704 l 1,23,-1
 320 640 l 1,24,-1
 320 576 l 1,25,-1
 320 512 l 1,26,-1
 320 448 l 1,27,-1
 320 384 l 1,28,-1
 320 320 l 1,29,-1
 320 256 l 1,30,-1
 320 192 l 1,31,-1
 320 128 l 1,32,-1
 320 64 l 1,33,-1
 320 0 l 1,0,-1
EndSplineSet
EndChar

StartChar: asciicircum
Encoding: 94 94 65
Width: 575
GlyphClass: 1
Flags: W
LayerCount: 2
Fore
SplineSet
512 512 m 1,0,-1
 448 512 l 1,1,-1
 384 512 l 1,2,-1
 384 576 l 1,3,-1
 320 576 l 1,4,-1
 320 640 l 1,5,-1
 256 640 l 1,6,-1
 256 576 l 1,7,-1
 192 576 l 1,8,-1
 192 512 l 1,9,-1
 128 512 l 1,10,-1
 64 512 l 1,11,-1
 64 576 l 1,12,-1
 128 576 l 1,13,-1
 128 640 l 1,14,-1
 192 640 l 1,15,-1
 192 704 l 1,16,-1
 256 704 l 1,17,-1
 256 768 l 1,18,-1
 320 768 l 1,19,-1
 320 704 l 1,20,-1
 384 704 l 1,21,-1
 384 640 l 1,22,-1
 448 640 l 1,23,-1
 448 576 l 1,24,-1
 512 576 l 1,25,-1
 512 512 l 1,0,-1
EndSplineSet
EndChar

StartChar: underscore
Encoding: 95 95 66
Width: 512
GlyphClass: 1
Flags: W
LayerCount: 2
Fore
SplineSet
320 -64 m 1,0,-1
 384 -64 l 1,1,-1
 448 -64 l 1,2,-1
 448 -128 l 1,3,-1
 384 -128 l 1,4,-1
 320 -128 l 1,5,-1
 256 -128 l 1,6,-1
 192 -128 l 1,7,-1
 128 -128 l 1,8,-1
 64 -128 l 1,9,-1
 64 -64 l 1,10,-1
 128 -64 l 1,11,-1
 192 -64 l 1,12,-1
 256 -64 l 1,13,-1
 320 -64 l 1,0,-1
EndSplineSet
EndChar

StartChar: grave
Encoding: 96 96 67
Width: 384
GlyphClass: 1
Flags: W
LayerCount: 2
Fore
SplineSet
320 576 m 1,0,-1
 256 576 l 1,1,-1
 192 576 l 1,2,-1
 192 640 l 1,3,-1
 128 640 l 1,4,-1
 128 704 l 1,5,-1
 64 704 l 1,6,-1
 64 768 l 1,7,-1
 128 768 l 1,8,-1
 192 768 l 1,9,-1
 192 704 l 1,10,-1
 256 704 l 1,11,-1
 256 640 l 1,12,-1
 320 640 l 1,13,-1
 320 576 l 1,0,-1
EndSplineSet
EndChar

StartChar: a
Encoding: 97 97 68
Width: 543
GlyphClass: 1
Flags: W
LayerCount: 2
Fore
SplineSet
480 0 m 1,0,-1
 416 0 l 1,1,-1
 352 0 l 1,2,-1
 352 64 l 1,3,-1
 288 64 l 1,4,-1
 288 128 l 1,5,-1
 352 128 l 1,6,-1
 352 192 l 1,7,-1
 288 192 l 1,8,-1
 224 192 l 1,9,-1
 160 192 l 1,10,-1
 160 128 l 1,11,-1
 160 64 l 1,12,-1
 224 64 l 1,13,-1
 288 64 l 1,14,-1
 288 0 l 1,15,-1
 224 0 l 1,16,-1
 160 0 l 1,17,-1
 96 0 l 1,18,-1
 96 64 l 1,19,-1
 32 64 l 1,20,-1
 32 128 l 1,21,-1
 32 192 l 1,22,-1
 96 192 l 1,23,-1
 96 256 l 1,24,-1
 160 256 l 1,25,-1
 160 320 l 1,26,-1
 224 320 l 1,27,-1
 288 320 l 1,28,-1
 352 320 l 1,29,-1
 352 384 l 1,30,-1
 352 448 l 1,31,-1
 288 448 l 1,32,-1
 224 448 l 1,33,-1
 224 384 l 1,34,-1
 160 384 l 1,35,-1
 96 384 l 1,36,-1
 96 448 l 1,37,-1
 160 448 l 1,38,-1
 160 512 l 1,39,-1
 224 512 l 1,40,-1
 288 512 l 1,41,-1
 352 512 l 1,42,-1
 416 512 l 1,43,-1
 416 448 l 1,44,-1
 480 448 l 1,45,-1
 480 384 l 1,46,-1
 480 320 l 1,47,-1
 480 256 l 1,48,-1
 480 192 l 1,49,-1
 480 128 l 1,50,-1
 480 64 l 1,51,-1
 480 0 l 1,0,-1
EndSplineSet
EndChar

StartChar: b
Encoding: 98 98 69
Width: 575
GlyphClass: 1
Flags: W
LayerCount: 2
Fore
SplineSet
448 0 m 1,0,-1
 64 0 l 1,1,-1
 64 768 l 1,2,-1
 192 768 l 1,3,-1
 192 454 l 1,4,-1
 258 454 l 1,5,-1
 258 519 l 1,6,-1
 322 519 l 1,7,-1
 386 519 l 1,8,-1
 386 454 l 1,9,-1
 450 454 l 1,10,-1
 450 391 l 1,11,-1
 514 391 l 1,12,-1
 512 64 l 1,13,-1
 448 64 l 1,14,-1
 448 0 l 1,0,-1
256 64 m 1,15,-1
 320 64 l 1,16,-1
 384 64 l 1,17,-1
 384 128 l 1,18,-1
 384 192 l 1,19,-1
 384 256 l 1,20,-1
 386 391 l 1,21,-1
 322 391 l 1,22,-1
 322 454 l 1,23,-1
 258 454 l 1,24,-1
 258 391 l 1,25,-1
 194 391 l 1,26,27
 194 346 194 346 192 256 c 2,28,-1
 192 192 l 1,29,-1
 192 128 l 1,30,-1
 192 64 l 1,31,-1
 256 64 l 1,15,-1
EndSplineSet
EndChar

StartChar: c
Encoding: 99 99 70
Width: 512
GlyphClass: 1
Flags: W
LayerCount: 2
Fore
SplineSet
448 384 m 1,0,-1
 384 384 l 1,1,-1
 384 448 l 1,2,-1
 448 448 l 1,3,-1
 448 384 l 1,0,-1
256 64 m 1,4,-1
 320 64 l 1,5,-1
 384 64 l 1,6,-1
 384 0 l 1,7,-1
 320 0 l 1,8,-1
 256 0 l 1,9,-1
 192 0 l 1,10,-1
 192 64 l 1,11,-1
 128 64 l 1,12,-1
 128 128 l 1,13,-1
 64 128 l 1,14,-1
 64 192 l 1,15,-1
 64 256 l 1,16,-1
 64 320 l 1,17,-1
 64 384 l 1,18,-1
 128 384 l 1,19,-1
 128 448 l 1,20,-1
 192 448 l 1,21,-1
 192 512 l 1,22,-1
 256 512 l 1,23,-1
 320 512 l 1,24,-1
 384 512 l 1,25,-1
 384 448 l 1,26,-1
 320 448 l 1,27,-1
 256 448 l 1,28,-1
 256 384 l 1,29,-1
 192 384 l 1,30,-1
 192 320 l 1,31,-1
 192 256 l 1,32,-1
 192 192 l 1,33,-1
 192 128 l 1,34,-1
 256 128 l 1,35,-1
 256 64 l 1,4,-1
448 64 m 1,36,-1
 384 64 l 1,37,-1
 384 128 l 1,38,-1
 448 128 l 1,39,-1
 448 64 l 1,36,-1
EndSplineSet
EndChar

StartChar: d
Encoding: 100 100 71
Width: 575
GlyphClass: 1
Flags: W
LayerCount: 2
Fore
SplineSet
512 0 m 1,0,-1
 448 0 l 1,1,-1
 384 0 l 1,2,-1
 384 64 l 1,3,-1
 320 64 l 1,4,-1
 320 128 l 1,5,-1
 384 128 l 1,6,-1
 384 192 l 1,7,-1
 384 256 l 1,8,-1
 384 320 l 1,9,-1
 384 384 l 1,10,-1
 384 448 l 1,11,-1
 320 448 l 1,12,-1
 256 448 l 1,13,-1
 256 384 l 1,14,-1
 192 384 l 1,15,-1
 192 320 l 1,16,-1
 192 256 l 1,17,-1
 192 192 l 1,18,-1
 192 128 l 1,19,-1
 192 64 l 1,20,-1
 256 64 l 1,21,-1
 320 64 l 1,22,-1
 320 0 l 1,23,-1
 256 0 l 1,24,-1
 192 0 l 1,25,-1
 128 0 l 1,26,-1
 128 64 l 1,27,-1
 64 64 l 1,28,-1
 64 128 l 1,29,-1
 64 192 l 1,30,-1
 64 256 l 1,31,-1
 64 320 l 1,32,-1
 64 384 l 1,33,-1
 128 384 l 1,34,-1
 128 448 l 1,35,-1
 192 448 l 1,36,-1
 192 512 l 1,37,-1
 256 512 l 1,38,-1
 320 512 l 1,39,-1
 384 512 l 1,40,-1
 384 576 l 1,41,-1
 384 640 l 1,42,-1
 384 704 l 1,43,-1
 384 768 l 1,44,-1
 448 768 l 1,45,-1
 512 768 l 1,46,-1
 512 704 l 1,47,-1
 512 640 l 1,48,-1
 512 576 l 1,49,-1
 512 512 l 1,50,-1
 512 448 l 1,51,-1
 512 384 l 1,52,-1
 512 320 l 1,53,-1
 512 256 l 1,54,-1
 512 192 l 1,55,-1
 512 128 l 1,56,-1
 512 64 l 1,57,-1
 512 0 l 1,0,-1
EndSplineSet
EndChar

StartChar: e
Encoding: 101 101 72
Width: 512
GlyphClass: 1
Flags: W
LayerCount: 2
Fore
SplineSet
256 64 m 1,0,-1
 320 64 l 1,1,-1
 384 64 l 1,2,-1
 384 0 l 1,3,-1
 320 0 l 1,4,-1
 256 0 l 1,5,-1
 192 0 l 1,6,-1
 128 0 l 1,7,-1
 128 64 l 1,8,-1
 64 64 l 1,9,-1
 64 128 l 1,10,-1
 64 192 l 1,11,-1
 64 256 l 1,12,-1
 64 320 l 1,13,-1
 64 384 l 1,14,-1
 64 448 l 1,15,-1
 128 448 l 1,16,-1
 128 512 l 1,17,-1
 192 512 l 1,18,-1
 256 512 l 1,19,-1
 320 512 l 1,20,-1
 384 512 l 1,21,-1
 384 448 l 1,22,-1
 448 448 l 1,23,-1
 448 384 l 1,24,-1
 448 320 l 1,25,-1
 448 256 l 1,26,-1
 384 256 l 1,27,-1
 384 192 l 1,28,-1
 320 192 l 1,29,-1
 256 192 l 1,30,-1
 192 192 l 1,31,-1
 192 128 l 1,32,-1
 192 64 l 1,33,-1
 256 64 l 1,0,-1
448 64 m 1,34,-1
 384 64 l 1,35,-1
 384 128 l 1,36,-1
 448 128 l 1,37,-1
 448 64 l 1,34,-1
192 320 m 1,38,-1
 256 320 l 1,39,-1
 320 320 l 1,40,-1
 320 384 l 1,41,-1
 320 448 l 1,42,-1
 256 448 l 1,43,-1
 192 448 l 1,44,-1
 192 384 l 1,45,-1
 192 320 l 1,38,-1
EndSplineSet
EndChar

StartChar: f
Encoding: 102 102 73
Width: 447
GlyphClass: 1
Flags: W
LayerCount: 2
Fore
SplineSet
288 0 m 1,0,-1
 224 0 l 1,1,-1
 160 0 l 1,2,-1
 160 64 l 1,3,-1
 160 128 l 1,4,-1
 160 192 l 1,5,-1
 160 256 l 1,6,-1
 160 320 l 1,7,-1
 160 384 l 1,8,-1
 96 384 l 1,9,-1
 32 384 l 1,10,-1
 32 448 l 1,11,-1
 96 448 l 1,12,-1
 160 448 l 1,13,-1
 160 512 l 1,14,-1
 160 576 l 1,15,-1
 160 640 l 1,16,-1
 160 704 l 1,17,-1
 224 704 l 1,18,-1
 224 768 l 1,19,-1
 288 768 l 1,20,-1
 352 768 l 1,21,-1
 416 768 l 1,22,-1
 416 704 l 1,23,-1
 352 704 l 1,24,-1
 288 704 l 1,25,-1
 288 640 l 1,26,-1
 288 576 l 1,27,-1
 288 512 l 1,28,-1
 288 448 l 1,29,-1
 352 448 l 1,30,-1
 416 448 l 1,31,-1
 416 384 l 1,32,-1
 352 384 l 1,33,-1
 288 384 l 1,34,-1
 288 320 l 1,35,-1
 288 256 l 1,36,-1
 288 192 l 1,37,-1
 288 128 l 1,38,-1
 288 64 l 1,39,-1
 288 0 l 1,0,-1
EndSplineSet
EndChar

StartChar: g
Encoding: 103 103 74
Width: 575
GlyphClass: 1
Flags: W
LayerCount: 2
Fore
SplineSet
496 -256 m 1,0,-1
 432 -256 l 1,1,-1
 368 -256 l 1,2,-1
 304 -256 l 1,3,-1
 240 -256 l 1,4,-1
 176 -256 l 1,5,-1
 112 -256 l 1,6,-1
 112 -192 l 1,7,-1
 48 -192 l 1,8,-1
 48 -128 l 1,9,-1
 48 -64 l 1,10,-1
 112 -64 l 1,11,-1
 112 0 l 1,12,-1
 176 0 l 1,13,-1
 176 64 l 1,14,-1
 112 64 l 1,15,-1
 112 128 l 1,16,-1
 48 128 l 1,17,-1
 48 192 l 1,18,-1
 48 256 l 1,19,-1
 48 320 l 1,20,-1
 48 384 l 1,21,-1
 112 384 l 1,22,-1
 112 448 l 1,23,-1
 176 448 l 1,24,-1
 176 512 l 1,25,-1
 240 512 l 1,26,-1
 304 512 l 1,27,-1
 368 512 l 1,28,-1
 432 512 l 1,29,-1
 496 512 l 1,30,-1
 496 448 l 1,31,-1
 432 448 l 1,32,-1
 432 384 l 1,33,-1
 496 384 l 1,34,-1
 496 320 l 1,35,-1
 496 256 l 1,36,-1
 496 192 l 1,37,-1
 496 128 l 1,38,-1
 432 128 l 1,39,-1
 432 64 l 1,40,-1
 368 64 l 1,41,-1
 304 64 l 1,42,-1
 240 64 l 1,43,-1
 240 0 l 1,44,-1
 304 0 l 1,45,-1
 368 0 l 1,46,-1
 432 0 l 1,47,-1
 496 0 l 1,48,-1
 496 -64 l 1,49,-1
 560 -64 l 1,50,-1
 560 -128 l 1,51,-1
 560 -192 l 1,52,-1
 496 -192 l 1,53,-1
 496 -256 l 1,0,-1
304 -192 m 1,54,-1
 368 -192 l 1,55,-1
 432 -192 l 1,56,-1
 432 -128 l 1,57,-1
 432 -64 l 1,58,-1
 368 -64 l 1,59,-1
 304 -64 l 1,60,-1
 240 -64 l 1,61,-1
 176 -64 l 1,62,-1
 176 -128 l 1,63,-1
 176 -192 l 1,64,-1
 240 -192 l 1,65,-1
 304 -192 l 1,54,-1
240 128 m 1,66,-1
 304 128 l 1,67,-1
 368 128 l 1,68,-1
 368 192 l 1,69,-1
 368 256 l 1,70,-1
 368 320 l 1,71,-1
 368 384 l 1,72,-1
 368 448 l 1,73,-1
 304 448 l 1,74,-1
 240 448 l 1,75,-1
 240 384 l 1,76,-1
 176 384 l 1,77,-1
 176 320 l 1,78,-1
 176 256 l 1,79,-1
 176 192 l 1,80,-1
 176 128 l 1,81,-1
 240 128 l 1,66,-1
EndSplineSet
EndChar

StartChar: h
Encoding: 104 104 75
Width: 575
GlyphClass: 1
Flags: W
LayerCount: 2
Fore
SplineSet
512 0 m 1,0,-1
 448 0 l 1,1,-1
 384 0 l 1,2,-1
 384 64 l 1,3,-1
 384 128 l 1,4,-1
 384 192 l 1,5,-1
 384 256 l 1,6,-1
 384 320 l 1,7,-1
 384 384 l 1,8,-1
 384 448 l 1,9,-1
 320 448 l 1,10,-1
 256 448 l 1,11,-1
 256 384 l 1,12,-1
 192 384 l 1,13,-1
 192 320 l 1,14,-1
 192 256 l 1,15,-1
 192 192 l 1,16,-1
 192 128 l 1,17,-1
 192 64 l 1,18,-1
 192 0 l 1,19,-1
 128 0 l 1,20,-1
 64 0 l 1,21,-1
 64 64 l 1,22,-1
 64 128 l 1,23,-1
 64 192 l 1,24,-1
 64 256 l 1,25,-1
 64 320 l 1,26,-1
 64 384 l 1,27,-1
 64 448 l 1,28,-1
 60 760 l 1,29,-1
 192 760 l 1,30,-1
 192 448 l 1,31,-1
 256 448 l 1,32,-1
 256 512 l 1,33,-1
 320 512 l 1,34,-1
 384 512 l 1,35,-1
 448 512 l 1,36,-1
 448 448 l 1,37,-1
 512 448 l 1,38,-1
 512 384 l 1,39,-1
 512 320 l 1,40,-1
 512 256 l 1,41,-1
 512 192 l 1,42,-1
 512 128 l 1,43,-1
 512 64 l 1,44,-1
 512 0 l 1,0,-1
EndSplineSet
EndChar

StartChar: i
Encoding: 105 105 76
Width: 271
GlyphClass: 1
Flags: W
LayerCount: 2
Fore
SplineSet
200 0 m 1,0,-1
 136 0 l 1,1,-1
 72 0 l 1,2,-1
 72 64 l 1,3,-1
 72 130 l 1,4,-1
 72 194 l 1,5,-1
 72 259 l 1,6,-1
 72 324 l 1,7,-1
 72 389 l 1,8,-1
 72 454 l 1,9,-1
 72 519 l 1,10,-1
 136 519 l 1,11,-1
 200 519 l 1,12,-1
 200 454 l 1,13,-1
 200 389 l 1,14,-1
 200 324 l 1,15,-1
 200 259 l 1,16,-1
 200 194 l 1,17,-1
 200 130 l 1,18,-1
 200 64 l 1,19,-1
 200 0 l 1,0,-1
200 640 m 1,20,-1
 136 640 l 1,21,-1
 72 640 l 1,22,-1
 72 704 l 1,23,-1
 72 768 l 1,24,-1
 136 768 l 1,25,-1
 200 768 l 1,26,-1
 200 704 l 1,27,-1
 200 640 l 1,20,-1
EndSplineSet
EndChar

StartChar: j
Encoding: 106 106 77
Width: 304
GlyphClass: 1
Flags: W
LayerCount: 2
Fore
SplineSet
177 -192 m 1,0,-1
 112 -192 l 1,1,-1
 49 -192 l 1,2,-1
 -16 -192 l 1,3,-1
 -16 -128 l 1,4,-1
 49 -128 l 1,5,-1
 49 -64 l 1,6,-1
 112 -64 l 1,7,-1
 112 0 l 1,8,-1
 112 64 l 1,9,-1
 112 128 l 1,10,-1
 112 192 l 1,11,-1
 112 256 l 1,12,-1
 112 320 l 1,13,-1
 112 384 l 1,14,-1
 112 448 l 1,15,-1
 112 512 l 1,16,-1
 177 512 l 1,17,-1
 240 512 l 1,18,-1
 240 448 l 1,19,-1
 240 384 l 1,20,-1
 240 320 l 1,21,-1
 240 256 l 1,22,-1
 240 192 l 1,23,-1
 240 128 l 1,24,-1
 240 64 l 1,25,-1
 240 0 l 1,26,-1
 240 -64 l 1,27,-1
 240 -128 l 1,28,-1
 177 -128 l 1,29,-1
 177 -192 l 1,0,-1
240 640 m 1,30,-1
 177 640 l 1,31,-1
 112 640 l 1,32,-1
 112 704 l 1,33,-1
 112 768 l 1,34,-1
 177 768 l 1,35,-1
 240 768 l 1,36,-1
 240 704 l 1,37,-1
 240 640 l 1,30,-1
EndSplineSet
EndChar

StartChar: k
Encoding: 107 107 78
Width: 575
GlyphClass: 1
Flags: W
LayerCount: 2
Fore
SplineSet
512 0 m 1,0,-1
 448 0 l 1,1,-1
 384 0 l 1,2,-1
 384 64 l 1,3,-1
 320 64 l 1,4,-1
 320 128 l 1,5,-1
 256 128 l 1,6,-1
 256 192 l 1,7,-1
 192 192 l 1,8,-1
 192 128 l 1,9,-1
 192 64 l 1,10,-1
 192 0 l 1,11,-1
 128 0 l 1,12,-1
 64 0 l 1,13,-1
 64 64 l 1,14,-1
 64 128 l 1,15,-1
 64 192 l 1,16,-1
 64 256 l 1,17,-1
 64 320 l 1,18,-1
 64 384 l 1,19,-1
 64 448 l 1,20,-1
 64 512 l 1,21,-1
 64 576 l 1,22,-1
 64 640 l 1,23,-1
 64 704 l 1,24,-1
 64 768 l 1,25,-1
 128 768 l 1,26,-1
 192 768 l 1,27,-1
 192 704 l 1,28,-1
 192 640 l 1,29,-1
 192 576 l 1,30,-1
 192 512 l 1,31,-1
 192 448 l 1,32,-1
 192 384 l 1,33,-1
 192 320 l 1,34,-1
 256 320 l 1,35,-1
 256 384 l 1,36,-1
 320 384 l 1,37,-1
 320 448 l 1,38,-1
 384 448 l 1,39,-1
 384 512 l 1,40,-1
 448 512 l 1,41,-1
 512 512 l 1,42,-1
 512 448 l 1,43,-1
 448 448 l 1,44,-1
 448 384 l 1,45,-1
 384 384 l 1,46,-1
 384 320 l 1,47,-1
 384 256 l 1,48,-1
 320 256 l 1,49,-1
 320 192 l 1,50,-1
 384 192 l 1,51,-1
 384 128 l 1,52,-1
 448 128 l 1,53,-1
 448 64 l 1,54,-1
 512 64 l 1,55,-1
 512 0 l 1,0,-1
EndSplineSet
EndChar

StartChar: l
Encoding: 108 108 79
Width: 256
GlyphClass: 1
Flags: W
LayerCount: 2
Fore
SplineSet
192 0 m 1,0,-1
 128 0 l 1,1,-1
 64 0 l 1,2,-1
 64 64 l 1,3,-1
 64 128 l 1,4,-1
 64 192 l 1,5,-1
 64 256 l 1,6,-1
 64 320 l 1,7,-1
 64 384 l 1,8,-1
 64 448 l 1,9,-1
 64 512 l 1,10,-1
 64 576 l 1,11,-1
 64 640 l 1,12,-1
 64 704 l 1,13,-1
 64 768 l 1,14,-1
 128 768 l 1,15,-1
 192 768 l 1,16,-1
 192 704 l 1,17,-1
 192 640 l 1,18,-1
 192 576 l 1,19,-1
 192 512 l 1,20,-1
 192 448 l 1,21,-1
 192 384 l 1,22,-1
 192 320 l 1,23,-1
 192 256 l 1,24,-1
 192 192 l 1,25,-1
 192 128 l 1,26,-1
 192 64 l 1,27,-1
 192 0 l 1,0,-1
EndSplineSet
EndChar

StartChar: m
Encoding: 109 109 80
Width: 768
GlyphClass: 1
Flags: W
LayerCount: 2
Fore
SplineSet
704 0 m 1,0,-1
 640 0 l 1,1,-1
 576 0 l 1,2,-1
 576 64 l 1,3,-1
 576 128 l 1,4,-1
 576 192 l 1,5,-1
 576 256 l 1,6,-1
 576 320 l 1,7,-1
 576 384 l 1,8,-1
 576 448 l 1,9,-1
 512 448 l 1,10,-1
 512 384 l 1,11,-1
 448 384 l 1,12,-1
 448 320 l 1,13,-1
 448 256 l 1,14,-1
 448 192 l 1,15,-1
 448 128 l 1,16,-1
 448 64 l 1,17,-1
 448 0 l 1,18,-1
 384 0 l 1,19,-1
 320 0 l 1,20,-1
 320 64 l 1,21,-1
 320 128 l 1,22,-1
 320 192 l 1,23,-1
 320 256 l 1,24,-1
 320 320 l 1,25,-1
 320 384 l 1,26,-1
 320 448 l 1,27,-1
 256 448 l 1,28,-1
 256 384 l 1,29,-1
 192 384 l 1,30,-1
 192 320 l 1,31,-1
 192 256 l 1,32,-1
 192 192 l 1,33,-1
 192 128 l 1,34,-1
 192 64 l 1,35,-1
 192 0 l 1,36,-1
 128 0 l 1,37,-1
 64 0 l 1,38,-1
 64 64 l 1,39,-1
 64 128 l 1,40,-1
 64 192 l 1,41,-1
 64 256 l 1,42,-1
 64 320 l 1,43,-1
 64 384 l 1,44,-1
 64 448 l 1,45,-1
 64 512 l 1,46,-1
 128 512 l 1,47,-1
 192 512 l 1,48,-1
 192 448 l 1,49,-1
 256 448 l 1,50,-1
 256 512 l 1,51,-1
 320 512 l 1,52,-1
 384 512 l 1,53,-1
 448 512 l 1,54,-1
 448 448 l 1,55,-1
 512 448 l 1,56,-1
 512 512 l 1,57,-1
 576 512 l 1,58,-1
 640 512 l 1,59,-1
 640 448 l 1,60,-1
 704 448 l 1,61,-1
 704 384 l 1,62,-1
 704 320 l 1,63,-1
 704 256 l 1,64,-1
 704 192 l 1,65,-1
 704 128 l 1,66,-1
 704 64 l 1,67,-1
 704 0 l 1,0,-1
EndSplineSet
EndChar

StartChar: n
Encoding: 110 110 81
Width: 575
GlyphClass: 1
Flags: W
LayerCount: 2
Fore
SplineSet
512 0 m 1,0,-1
 448 0 l 1,1,-1
 384 0 l 1,2,-1
 384 64 l 1,3,-1
 384 128 l 1,4,-1
 384 192 l 1,5,-1
 384 256 l 1,6,-1
 384 320 l 1,7,-1
 384 384 l 1,8,-1
 384 448 l 1,9,-1
 320 448 l 1,10,-1
 256 448 l 1,11,-1
 256 384 l 1,12,-1
 192 384 l 1,13,-1
 192 320 l 1,14,-1
 192 256 l 1,15,-1
 192 192 l 1,16,-1
 192 128 l 1,17,-1
 192 64 l 1,18,-1
 192 0 l 1,19,-1
 128 0 l 1,20,-1
 64 0 l 1,21,-1
 64 64 l 1,22,-1
 64 128 l 1,23,-1
 64 192 l 1,24,-1
 64 256 l 1,25,-1
 64 320 l 1,26,-1
 64 384 l 1,27,-1
 64 448 l 1,28,-1
 64 512 l 1,29,-1
 128 512 l 1,30,-1
 192 512 l 1,31,-1
 192 448 l 1,32,-1
 256 448 l 1,33,-1
 256 512 l 1,34,-1
 320 512 l 1,35,-1
 384 512 l 1,36,-1
 448 512 l 1,37,-1
 448 448 l 1,38,-1
 512 448 l 1,39,-1
 512 384 l 1,40,-1
 512 320 l 1,41,-1
 512 256 l 1,42,-1
 512 192 l 1,43,-1
 512 128 l 1,44,-1
 512 64 l 1,45,-1
 512 0 l 1,0,-1
EndSplineSet
EndChar

StartChar: o
Encoding: 111 111 82
Width: 512
GlyphClass: 1
Flags: W
LayerCount: 2
Fore
SplineSet
352 0 m 1,0,-1
 288 0 l 1,1,-1
 224 0 l 1,2,-1
 160 0 l 1,3,-1
 160 64 l 1,4,-1
 96 64 l 1,5,-1
 96 128 l 1,6,-1
 32 128 l 1,7,-1
 32 192 l 1,8,-1
 32 256 l 1,9,-1
 32 320 l 1,10,-1
 32 384 l 1,11,-1
 96 384 l 1,12,-1
 96 448 l 1,13,-1
 160 448 l 1,14,-1
 160 512 l 1,15,-1
 224 512 l 1,16,-1
 288 512 l 1,17,-1
 352 512 l 1,18,-1
 352 448 l 1,19,-1
 416 448 l 1,20,-1
 416 384 l 1,21,-1
 480 384 l 1,22,-1
 480 320 l 1,23,-1
 480 256 l 1,24,-1
 480 192 l 1,25,-1
 480 128 l 1,26,-1
 416 128 l 1,27,-1
 416 64 l 1,28,-1
 352 64 l 1,29,-1
 352 0 l 1,0,-1
224 64 m 1,30,-1
 288 64 l 1,31,-1
 288 128 l 1,32,-1
 352 128 l 1,33,-1
 352 192 l 1,34,-1
 352 256 l 1,35,-1
 352 320 l 1,36,-1
 352 384 l 1,37,-1
 288 384 l 1,38,-1
 288 448 l 1,39,-1
 224 448 l 1,40,-1
 224 384 l 1,41,-1
 160 384 l 1,42,-1
 160 320 l 1,43,-1
 160 256 l 1,44,-1
 160 192 l 1,45,-1
 160 128 l 1,46,-1
 224 128 l 1,47,-1
 224 64 l 1,30,-1
EndSplineSet
EndChar

StartChar: p
Encoding: 112 112 83
Width: 575
GlyphClass: 1
Flags: W
LayerCount: 2
Fore
SplineSet
192 -256 m 1,0,-1
 128 -256 l 1,1,-1
 64 -256 l 1,2,-1
 64 -192 l 1,3,-1
 64 -128 l 1,4,-1
 64 -64 l 1,5,-1
 64 0 l 1,6,-1
 64 64 l 1,7,-1
 64 128 l 1,8,-1
 64 192 l 1,9,-1
 64 256 l 1,10,-1
 64 320 l 1,11,-1
 64 384 l 1,12,-1
 64 448 l 1,13,-1
 64 512 l 1,14,-1
 128 512 l 1,15,-1
 192 512 l 1,16,-1
 192 448 l 1,17,-1
 256 448 l 1,18,-1
 256 512 l 1,19,-1
 320 512 l 1,20,-1
 384 512 l 1,21,-1
 384 448 l 1,22,-1
 448 448 l 1,23,-1
 448 384 l 1,24,-1
 512 384 l 1,25,-1
 512 320 l 1,26,-1
 512 256 l 1,27,-1
 512 192 l 1,28,-1
 512 128 l 1,29,-1
 448 128 l 1,30,-1
 448 64 l 1,31,-1
 384 64 l 1,32,-1
 384 0 l 1,33,-1
 320 0 l 1,34,-1
 256 0 l 1,35,-1
 192 0 l 1,36,-1
 192 -64 l 1,37,-1
 192 -128 l 1,38,-1
 192 -192 l 1,39,-1
 192 -256 l 1,0,-1
192 64 m 1,40,-1
 256 64 l 1,41,-1
 320 64 l 1,42,-1
 320 128 l 1,43,-1
 384 128 l 1,44,-1
 384 192 l 1,45,-1
 384 256 l 1,46,-1
 384 320 l 1,47,-1
 384 384 l 1,48,-1
 320 384 l 1,49,-1
 320 448 l 1,50,-1
 256 448 l 1,51,-1
 256 384 l 1,52,-1
 192 384 l 1,53,-1
 192 320 l 1,54,-1
 192 256 l 1,55,-1
 192 192 l 1,56,-1
 192 128 l 1,57,-1
 192 64 l 1,40,-1
EndSplineSet
EndChar

StartChar: q
Encoding: 113 113 84
Width: 575
GlyphClass: 1
Flags: W
LayerCount: 2
Fore
SplineSet
512 -256 m 1,0,-1
 448 -256 l 1,1,-1
 384 -256 l 1,2,-1
 384 -192 l 1,3,-1
 384 -128 l 1,4,-1
 384 -64 l 1,5,-1
 384 0 l 1,6,-1
 384 64 l 1,7,-1
 320 64 l 1,8,-1
 320 0 l 1,9,-1
 256 0 l 1,10,-1
 192 0 l 1,11,-1
 128 0 l 1,12,-1
 128 64 l 1,13,-1
 64 64 l 1,14,-1
 64 128 l 1,15,-1
 64 192 l 1,16,-1
 64 256 l 1,17,-1
 64 320 l 1,18,-1
 64 384 l 1,19,-1
 128 384 l 1,20,-1
 128 448 l 1,21,-1
 192 448 l 1,22,-1
 192 512 l 1,23,-1
 256 512 l 1,24,-1
 320 512 l 1,25,-1
 320 448 l 1,26,-1
 256 448 l 1,27,-1
 256 384 l 1,28,-1
 192 384 l 1,29,-1
 192 320 l 1,30,-1
 192 256 l 1,31,-1
 192 192 l 1,32,-1
 192 128 l 1,33,-1
 256 128 l 1,34,-1
 256 64 l 1,35,-1
 320 64 l 1,36,-1
 320 128 l 1,37,-1
 384 128 l 1,38,-1
 384 192 l 1,39,-1
 384 256 l 1,40,-1
 384 320 l 1,41,-1
 384 384 l 1,42,-1
 320 384 l 1,43,-1
 320 448 l 1,44,-1
 384 448 l 1,45,-1
 384 512 l 1,46,-1
 448 512 l 1,47,-1
 512 512 l 1,48,-1
 512 448 l 1,49,-1
 512 384 l 1,50,-1
 512 320 l 1,51,-1
 512 256 l 1,52,-1
 512 192 l 1,53,-1
 512 128 l 1,54,-1
 512 64 l 1,55,-1
 512 0 l 1,56,-1
 512 -64 l 1,57,-1
 512 -128 l 1,58,-1
 512 -192 l 1,59,-1
 512 -256 l 1,0,-1
EndSplineSet
EndChar

StartChar: r
Encoding: 114 114 85
Width: 415
GlyphClass: 1
Flags: W
LayerCount: 2
Fore
SplineSet
192 0 m 1,0,-1
 128 0 l 1,1,-1
 64 0 l 1,2,-1
 64 64 l 1,3,-1
 64 128 l 1,4,-1
 64 192 l 1,5,-1
 64 256 l 1,6,-1
 64 320 l 1,7,-1
 64 384 l 1,8,-1
 64 448 l 1,9,-1
 64 512 l 1,10,-1
 128 512 l 1,11,-1
 192 512 l 1,12,-1
 192 448 l 1,13,-1
 256 448 l 1,14,-1
 256 384 l 1,15,-1
 192 384 l 1,16,-1
 192 320 l 1,17,-1
 192 256 l 1,18,-1
 192 192 l 1,19,-1
 192 128 l 1,20,-1
 192 64 l 1,21,-1
 192 0 l 1,0,-1
256 512 m 1,22,-1
 320 512 l 1,23,-1
 384 512 l 1,24,-1
 384 448 l 1,25,-1
 320 448 l 1,26,-1
 256 448 l 1,27,-1
 256 512 l 1,22,-1
EndSplineSet
EndChar

StartChar: s
Encoding: 115 115 86
Width: 512
GlyphClass: 1
Flags: W
LayerCount: 2
Fore
SplineSet
384 0 m 1,0,-1
 320 0 l 1,1,-1
 256 0 l 1,2,-1
 192 0 l 1,3,-1
 128 0 l 1,4,-1
 128 64 l 1,5,-1
 64 64 l 1,6,-1
 64 128 l 1,7,-1
 128 128 l 1,8,-1
 192 128 l 1,9,-1
 192 64 l 1,10,-1
 256 64 l 1,11,-1
 320 64 l 1,12,-1
 320 128 l 1,13,-1
 320 192 l 1,14,-1
 256 192 l 1,15,-1
 192 192 l 1,16,-1
 128 192 l 1,17,-1
 128 256 l 1,18,-1
 64 256 l 1,19,-1
 64 320 l 1,20,-1
 64 384 l 1,21,-1
 64 448 l 1,22,-1
 128 448 l 1,23,-1
 128 512 l 1,24,-1
 192 512 l 1,25,-1
 256 512 l 1,26,-1
 320 512 l 1,27,-1
 384 512 l 1,28,-1
 384 448 l 1,29,-1
 448 448 l 1,30,-1
 448 384 l 1,31,-1
 384 384 l 1,32,-1
 320 384 l 1,33,-1
 320 448 l 1,34,-1
 256 448 l 1,35,-1
 192 448 l 1,36,-1
 192 384 l 1,37,-1
 192 320 l 1,38,-1
 256 320 l 1,39,-1
 320 320 l 1,40,-1
 384 320 l 1,41,-1
 384 256 l 1,42,-1
 384 192 l 1,43,-1
 448 192 l 1,44,-1
 448 128 l 1,45,-1
 448 64 l 1,46,-1
 384 64 l 1,47,-1
 384 0 l 1,0,-1
EndSplineSet
EndChar

StartChar: t
Encoding: 116 116 87
Width: 415
GlyphClass: 1
Flags: W
LayerCount: 2
Fore
SplineSet
256 64 m 1,0,-1
 320 64 l 1,1,-1
 384 64 l 1,2,-1
 384 0 l 1,3,-1
 320 0 l 1,4,-1
 256 0 l 1,5,-1
 192 0 l 1,6,-1
 192 64 l 1,7,-1
 128 64 l 1,8,-1
 128 128 l 1,9,-1
 128 192 l 1,10,-1
 128 256 l 1,11,-1
 128 320 l 1,12,-1
 128 384 l 1,13,-1
 128 448 l 1,14,-1
 0 448 l 1,15,-1
 0 512 l 1,16,-1
 128 512 l 1,17,-1
 128 576 l 1,18,-1
 128 768 l 1,19,-1
 256 768 l 1,20,-1
 256 576 l 1,21,-1
 256 512 l 1,22,-1
 320 512 l 1,23,-1
 384 512 l 1,24,-1
 384 448 l 1,25,-1
 320 448 l 1,26,-1
 256 448 l 1,27,-1
 256 384 l 1,28,-1
 256 320 l 1,29,-1
 256 256 l 1,30,-1
 256 192 l 1,31,-1
 256 128 l 1,32,-1
 256 64 l 1,0,-1
EndSplineSet
EndChar

StartChar: u
Encoding: 117 117 88
Width: 575
GlyphClass: 1
Flags: W
LayerCount: 2
Fore
SplineSet
512 0 m 1,0,-1
 448 0 l 1,1,-1
 384 0 l 1,2,-1
 384 64 l 1,3,-1
 320 64 l 1,4,-1
 320 0 l 1,5,-1
 256 0 l 1,6,-1
 192 0 l 1,7,-1
 128 0 l 1,8,-1
 128 64 l 1,9,-1
 64 64 l 1,10,-1
 64 128 l 1,11,-1
 64 192 l 1,12,-1
 64 256 l 1,13,-1
 64 320 l 1,14,-1
 64 384 l 1,15,-1
 64 448 l 1,16,-1
 64 512 l 1,17,-1
 128 512 l 1,18,-1
 192 512 l 1,19,-1
 192 448 l 1,20,-1
 192 384 l 1,21,-1
 192 320 l 1,22,-1
 192 256 l 1,23,-1
 192 192 l 1,24,-1
 192 128 l 1,25,-1
 192 64 l 1,26,-1
 256 64 l 1,27,-1
 320 64 l 1,28,-1
 320 128 l 1,29,-1
 384 128 l 1,30,-1
 384 192 l 1,31,-1
 384 256 l 1,32,-1
 384 320 l 1,33,-1
 384 384 l 1,34,-1
 384 448 l 1,35,-1
 384 512 l 1,36,-1
 448 512 l 1,37,-1
 512 512 l 1,38,-1
 512 448 l 1,39,-1
 512 384 l 1,40,-1
 512 320 l 1,41,-1
 512 256 l 1,42,-1
 512 192 l 1,43,-1
 512 128 l 1,44,-1
 512 64 l 1,45,-1
 512 0 l 1,0,-1
EndSplineSet
EndChar

StartChar: v
Encoding: 118 118 89
Width: 512
GlyphClass: 1
Flags: W
LayerCount: 2
Fore
SplineSet
288 0 m 1,0,-1
 224 0 l 1,1,-1
 224 64 l 1,2,-1
 160 64 l 1,3,-1
 160 128 l 1,4,-1
 160 192 l 1,5,-1
 96 192 l 1,6,-1
 96 256 l 1,7,-1
 96 320 l 1,8,-1
 96 384 l 1,9,-1
 32 384 l 1,10,-1
 32 448 l 1,11,-1
 32 512 l 1,12,-1
 96 512 l 1,13,-1
 96 448 l 1,14,-1
 160 448 l 1,15,-1
 160 384 l 1,16,-1
 160 320 l 1,17,-1
 224 320 l 1,18,-1
 224 256 l 1,19,-1
 224 192 l 1,20,-1
 288 192 l 1,21,-1
 288 256 l 1,22,-1
 288 320 l 1,23,-1
 352 320 l 1,24,-1
 352 384 l 1,25,-1
 352 448 l 1,26,-1
 416 448 l 1,27,-1
 416 512 l 1,28,-1
 480 512 l 1,29,-1
 480 448 l 1,30,-1
 480 384 l 1,31,-1
 416 384 l 1,32,-1
 416 320 l 1,33,-1
 416 256 l 1,34,-1
 416 192 l 1,35,-1
 352 192 l 1,36,-1
 352 128 l 1,37,-1
 352 64 l 1,38,-1
 288 64 l 1,39,-1
 288 0 l 1,0,-1
EndSplineSet
EndChar

StartChar: w
Encoding: 119 119 90
Width: 671
GlyphClass: 1
Flags: W
LayerCount: 2
Fore
SplineSet
576 0 m 1,0,-1
 512 0 l 1,1,-1
 448 0 l 1,2,-1
 448 64 l 1,3,-1
 448 128 l 1,4,-1
 384 128 l 1,5,-1
 384 192 l 1,6,-1
 384 256 l 1,7,-1
 320 256 l 1,8,-1
 320 192 l 1,9,-1
 320 128 l 1,10,-1
 256 128 l 1,11,-1
 256 64 l 1,12,-1
 256 0 l 1,13,-1
 192 0 l 1,14,-1
 128 0 l 1,15,-1
 128 64 l 1,16,-1
 128 128 l 1,17,-1
 128 192 l 1,18,-1
 64 192 l 1,19,-1
 64 256 l 1,20,-1
 64 320 l 1,21,-1
 64 384 l 1,22,-1
 64 448 l 1,23,-1
 64 512 l 1,24,-1
 128 512 l 1,25,-1
 192 512 l 1,26,-1
 192 448 l 1,27,-1
 192 384 l 1,28,-1
 192 320 l 1,29,-1
 192 256 l 1,30,-1
 192 192 l 1,31,-1
 256 192 l 1,32,-1
 256 256 l 1,33,-1
 256 320 l 1,34,-1
 320 320 l 1,35,-1
 320 384 l 1,36,-1
 320 448 l 1,37,-1
 384 448 l 1,38,-1
 384 384 l 1,39,-1
 384 320 l 1,40,-1
 448 320 l 1,41,-1
 448 256 l 1,42,-1
 448 192 l 1,43,-1
 512 192 l 1,44,-1
 512 256 l 1,45,-1
 512 320 l 1,46,-1
 512 384 l 1,47,-1
 512 448 l 1,48,-1
 512 512 l 1,49,-1
 576 512 l 1,50,-1
 640 512 l 1,51,-1
 640 448 l 1,52,-1
 640 384 l 1,53,-1
 640 320 l 1,54,-1
 640 256 l 1,55,-1
 640 192 l 1,56,-1
 576 192 l 1,57,-1
 576 128 l 1,58,-1
 576 64 l 1,59,-1
 576 0 l 1,0,-1
EndSplineSet
EndChar

StartChar: x
Encoding: 120 120 91
Width: 575
GlyphClass: 1
Flags: W
LayerCount: 2
Fore
SplineSet
512 0 m 1,0,-1
 448 0 l 1,1,-1
 384 0 l 1,2,-1
 384 72 l 1,3,-1
 320 72 l 1,4,-1
 320 144 l 1,5,-1
 256 144 l 1,6,-1
 256 72 l 1,7,-1
 192 72 l 1,8,-1
 192 0 l 1,9,-1
 128 0 l 1,10,-1
 64 0 l 1,11,-1
 64 72 l 1,12,-1
 128 72 l 1,13,-1
 128 144 l 1,14,-1
 192 144 l 1,15,-1
 192 215 l 1,16,-1
 256 215 l 1,17,-1
 256 286 l 1,18,-1
 192 286 l 1,19,-1
 192 358 l 1,20,-1
 128 358 l 1,21,-1
 128 430 l 1,22,-1
 64 430 l 1,23,-1
 64 502 l 1,24,-1
 128 502 l 1,25,-1
 192 502 l 1,26,-1
 192 430 l 1,27,-1
 256 430 l 1,28,-1
 256 358 l 1,29,-1
 320 358 l 1,30,-1
 320 430 l 1,31,-1
 384 430 l 1,32,-1
 384 502 l 1,33,-1
 448 502 l 1,34,-1
 512 502 l 1,35,-1
 512 430 l 1,36,-1
 448 430 l 1,37,-1
 448 358 l 1,38,-1
 384 358 l 1,39,-1
 384 286 l 1,40,-1
 320 286 l 1,41,-1
 320 215 l 1,42,-1
 384 215 l 1,43,-1
 384 144 l 1,44,-1
 448 144 l 1,45,-1
 448 72 l 1,46,-1
 512 72 l 1,47,-1
 512 0 l 1,0,-1
EndSplineSet
EndChar

StartChar: y
Encoding: 121 121 92
Width: 640
GlyphClass: 1
Flags: W
LayerCount: 2
Fore
SplineSet
256 -192 m 1,0,-1
 192 -192 l 1,1,-1
 128 -192 l 1,2,-1
 64 -192 l 1,3,-1
 64 -128 l 1,4,-1
 128 -128 l 1,5,-1
 192 -128 l 1,6,-1
 192 -64 l 1,7,-1
 256 -64 l 1,8,-1
 256 0 l 1,9,-1
 256 64 l 1,10,-1
 192 64 l 1,11,-1
 192 128 l 1,12,-1
 128 128 l 1,13,-1
 128 192 l 1,14,-1
 128 256 l 1,15,-1
 64 256 l 1,16,-1
 64 320 l 1,17,-1
 64 384 l 1,18,-1
 64 448 l 1,19,-1
 64 512 l 1,20,-1
 128 512 l 1,21,-1
 192 512 l 1,22,-1
 192 448 l 1,23,-1
 192 384 l 1,24,-1
 192 320 l 1,25,-1
 256 320 l 1,26,-1
 256 256 l 1,27,-1
 256 192 l 1,28,-1
 256 128 l 1,29,-1
 320 128 l 1,30,-1
 320 192 l 1,31,-1
 320 256 l 1,32,-1
 384 256 l 1,33,-1
 384 320 l 1,34,-1
 384 384 l 1,35,-1
 448 384 l 1,36,-1
 448 448 l 1,37,-1
 448 512 l 1,38,-1
 512 512 l 1,39,-1
 576 512 l 1,40,-1
 576 448 l 1,41,-1
 576 384 l 1,42,-1
 576 320 l 1,43,-1
 512 320 l 1,44,-1
 512 256 l 1,45,-1
 512 192 l 1,46,-1
 448 192 l 1,47,-1
 448 128 l 1,48,-1
 448 64 l 1,49,-1
 384 64 l 1,50,-1
 384 0 l 1,51,-1
 384 -64 l 1,52,-1
 320 -64 l 1,53,-1
 320 -128 l 1,54,-1
 256 -128 l 1,55,-1
 256 -192 l 1,0,-1
EndSplineSet
EndChar

StartChar: z
Encoding: 122 122 93
Width: 543
GlyphClass: 1
Flags: W
LayerCount: 2
Fore
SplineSet
384 64 m 1,0,-1
 448 64 l 1,1,-1
 512 64 l 1,2,-1
 512 0 l 1,3,-1
 448 0 l 1,4,-1
 384 0 l 1,5,-1
 320 0 l 1,6,-1
 256 0 l 1,7,-1
 192 0 l 1,8,-1
 128 0 l 1,9,-1
 64 0 l 1,10,-1
 64 64 l 1,11,-1
 128 64 l 1,12,-1
 128 128 l 1,13,-1
 192 128 l 1,14,-1
 192 192 l 1,15,-1
 256 192 l 1,16,-1
 256 256 l 1,17,-1
 320 256 l 1,18,-1
 320 320 l 1,19,-1
 384 320 l 1,20,-1
 384 384 l 1,21,-1
 384 448 l 1,22,-1
 320 448 l 1,23,-1
 256 448 l 1,24,-1
 192 448 l 1,25,-1
 128 448 l 1,26,-1
 64 448 l 1,27,-1
 64 512 l 1,28,-1
 128 512 l 1,29,-1
 192 512 l 1,30,-1
 256 512 l 1,31,-1
 320 512 l 1,32,-1
 384 512 l 1,33,-1
 448 512 l 1,34,-1
 512 512 l 1,35,-1
 512 448 l 1,36,-1
 512 384 l 1,37,-1
 512 320 l 1,38,-1
 448 320 l 1,39,-1
 448 256 l 1,40,-1
 384 256 l 1,41,-1
 384 192 l 1,42,-1
 320 192 l 1,43,-1
 320 128 l 1,44,-1
 256 128 l 1,45,-1
 256 64 l 1,46,-1
 320 64 l 1,47,-1
 384 64 l 1,0,-1
EndSplineSet
EndChar

StartChar: braceleft
Encoding: 123 123 94
Width: 512
GlyphClass: 1
Flags: W
LayerCount: 2
Fore
SplineSet
320 64 m 1,0,-1
 384 64 l 1,1,-1
 448 64 l 1,2,-1
 448 0 l 1,3,-1
 384 0 l 1,4,-1
 320 0 l 1,5,-1
 256 0 l 1,6,-1
 256 64 l 1,7,-1
 192 64 l 1,8,-1
 192 128 l 1,9,-1
 192 192 l 1,10,-1
 192 256 l 1,11,-1
 192 320 l 1,12,-1
 128 320 l 1,13,-1
 64 320 l 1,14,-1
 64 384 l 1,15,-1
 128 384 l 1,16,-1
 192 384 l 1,17,-1
 192 448 l 1,18,-1
 192 512 l 1,19,-1
 192 576 l 1,20,-1
 192 640 l 1,21,-1
 256 640 l 1,22,-1
 256 704 l 1,23,-1
 320 704 l 1,24,-1
 384 704 l 1,25,-1
 448 704 l 1,26,-1
 448 640 l 1,27,-1
 384 640 l 1,28,-1
 320 640 l 1,29,-1
 320 576 l 1,30,-1
 320 512 l 1,31,-1
 320 448 l 1,32,-1
 320 384 l 1,33,-1
 320 320 l 1,34,-1
 320 256 l 1,35,-1
 320 192 l 1,36,-1
 320 128 l 1,37,-1
 320 64 l 1,0,-1
EndSplineSet
EndChar

StartChar: bar
Encoding: 124 124 95
Width: 256
GlyphClass: 1
Flags: W
LayerCount: 2
Fore
SplineSet
192 0 m 1,0,-1
 128 0 l 1,1,-1
 64 0 l 1,2,-1
 64 64 l 1,3,-1
 64 128 l 1,4,-1
 64 192 l 1,5,-1
 64 256 l 1,6,-1
 64 320 l 1,7,-1
 64 384 l 1,8,-1
 64 448 l 1,9,-1
 64 512 l 1,10,-1
 64 576 l 1,11,-1
 64 640 l 1,12,-1
 64 704 l 1,13,-1
 128 704 l 1,14,-1
 192 704 l 1,15,-1
 192 640 l 1,16,-1
 192 576 l 1,17,-1
 192 512 l 1,18,-1
 192 448 l 1,19,-1
 192 384 l 1,20,-1
 192 320 l 1,21,-1
 192 256 l 1,22,-1
 192 192 l 1,23,-1
 192 128 l 1,24,-1
 192 64 l 1,25,-1
 192 0 l 1,0,-1
EndSplineSet
EndChar

StartChar: braceright
Encoding: 125 125 96
Width: 512
GlyphClass: 1
Flags: W
LayerCount: 2
Fore
SplineSet
256 0 m 1,0,-1
 192 0 l 1,1,-1
 128 0 l 1,2,-1
 64 0 l 1,3,-1
 64 64 l 1,4,-1
 128 64 l 1,5,-1
 192 64 l 1,6,-1
 192 128 l 1,7,-1
 192 192 l 1,8,-1
 192 256 l 1,9,-1
 192 320 l 1,10,-1
 192 384 l 1,11,-1
 192 448 l 1,12,-1
 192 512 l 1,13,-1
 192 576 l 1,14,-1
 192 640 l 1,15,-1
 128 640 l 1,16,-1
 64 640 l 1,17,-1
 64 704 l 1,18,-1
 128 704 l 1,19,-1
 192 704 l 1,20,-1
 256 704 l 1,21,-1
 256 640 l 1,22,-1
 320 640 l 1,23,-1
 320 576 l 1,24,-1
 320 512 l 1,25,-1
 320 448 l 1,26,-1
 320 384 l 1,27,-1
 384 384 l 1,28,-1
 448 384 l 1,29,-1
 448 320 l 1,30,-1
 384 320 l 1,31,-1
 320 320 l 1,32,-1
 320 256 l 1,33,-1
 320 192 l 1,34,-1
 320 128 l 1,35,-1
 320 64 l 1,36,-1
 256 64 l 1,37,-1
 256 0 l 1,0,-1
EndSplineSet
EndChar

StartChar: asciitilde
Encoding: 126 126 97
Width: 575
GlyphClass: 1
Flags: W
LayerCount: 2
Fore
SplineSet
448 640 m 1,0,-1
 384 640 l 1,1,-1
 320 640 l 1,2,-1
 256 640 l 1,3,-1
 256 704 l 1,4,-1
 192 704 l 1,5,-1
 192 640 l 1,6,-1
 128 640 l 1,7,-1
 64 640 l 1,8,-1
 64 704 l 1,9,-1
 128 704 l 1,10,-1
 128 768 l 1,11,-1
 192 768 l 1,12,-1
 256 768 l 1,13,-1
 320 768 l 1,14,-1
 320 704 l 1,15,-1
 384 704 l 1,16,-1
 384 768 l 1,17,-1
 448 768 l 1,18,-1
 512 768 l 1,19,-1
 512 704 l 1,20,-1
 448 704 l 1,21,-1
 448 640 l 1,0,-1
EndSplineSet
EndChar

StartChar: ellipsis
Encoding: 8230 8230 99
Width: 716
GlyphClass: 2
Flags: W
LayerCount: 2
Fore
SplineSet
633 0 m 1,0,-1
 568 0 l 1,1,-1
 504 0 l 1,2,-1
 504 64 l 1,3,-1
 504 128 l 1,4,-1
 568 128 l 1,5,-1
 633 128 l 1,6,-1
 633 64 l 1,7,-1
 633 0 l 1,0,-1
412 0 m 1,8,-1
 348 0 l 1,9,-1
 284 0 l 1,10,-1
 284 64 l 1,11,-1
 284 128 l 1,12,-1
 348 128 l 1,13,-1
 412 128 l 1,14,-1
 412 64 l 1,15,-1
 412 0 l 1,8,-1
192 0 m 1,16,-1
 128 0 l 1,17,-1
 64 0 l 1,18,-1
 64 64 l 1,19,-1
 64 128 l 1,20,-1
 128 128 l 1,21,-1
 192 128 l 1,22,-1
 192 64 l 1,23,-1
 192 0 l 1,16,-1
EndSplineSet
EndChar

StartChar: arrowleft
Encoding: 8592 8592 100
Width: 1024
GlyphClass: 2
Flags: W
LayerCount: 2
Fore
SplineSet
422.559570312 532.799804688 m 1,0,-1
 422.559570312 396.719726562 l 1,1,-1
 649.360351562 396.719726562 l 1,2,-1
 649.360351562 351.360351562 l 1,3,-1
 694 351.360351562 l 1,4,-1
 694 306 l 1,5,-1
 740.080078125 306 l 1,6,-1
 740.080078125 260.639648438 l 1,7,-1
 604 260.639648438 l 1,8,-1
 604 215.280273438 l 1,9,-1
 422.559570312 215.280273438 l 1,10,-1
 422.559570312 79.2001953125 l 1,11,-1
 331.83984375 79.2001953125 l 1,12,-1
 331.83984375 124.559570312 l 1,13,-1
 286.48046875 124.559570312 l 1,14,-1
 286.48046875 169.919921875 l 1,15,-1
 241.120117188 169.919921875 l 1,16,-1
 241.120117188 215.280273438 l 1,17,-1
 195.759765625 215.280273438 l 1,18,-1
 195.759765625 256.3203125 l 1,19,-1
 195.759765625 260.639648438 l 1,20,-1
 151.120117188 260.639648438 l 1,21,-1
 151.120117188 351.360351562 l 1,22,-1
 195.759765625 351.360351562 l 1,23,-1
 195.759765625 396.719726562 l 1,24,-1
 241.120117188 396.719726562 l 1,25,-1
 241.120117188 442.080078125 l 1,26,-1
 286.48046875 442.080078125 l 1,27,-1
 286.48046875 486.719726562 l 1,28,-1
 331.83984375 486.719726562 l 1,29,-1
 331.83984375 532.799804688 l 1,30,-1
 422.559570312 532.799804688 l 1,0,-1
784.719726562 215.280273438 m 1,31,-1
 784.719726562 260.639648438 l 1,32,-1
 830.799804688 260.639648438 l 1,33,-1
 830.799804688 215.280273438 l 1,34,-1
 784.719726562 215.280273438 l 1,31,-1
876.879882812 306 m 1,35,-1
 784.719726562 306 l 1,36,-1
 784.719726562 351.360351562 l 1,37,-1
 740.080078125 351.360351562 l 1,38,-1
 740.080078125 396.719726562 l 1,39,-1
 830.799804688 396.719726562 l 1,40,-1
 830.799804688 351.360351562 l 1,41,-1
 876.879882812 351.360351562 l 1,42,-1
 876.879882812 306 l 1,35,-1
EndSplineSet
EndChar

StartChar: arrowright
Encoding: 8594 8594 101
Width: 1024
GlyphClass: 2
Flags: W
LayerCount: 2
Fore
SplineSet
605 533 m 1,0,-1
 695 533 l 1,1,-1
 695 487 l 1,2,-1
 741 487 l 1,3,-1
 741 442 l 1,4,-1
 786 442 l 1,5,-1
 786 397 l 1,6,-1
 832 397 l 1,7,-1
 832 351 l 1,8,-1
 877 351 l 1,9,-1
 877 261 l 1,10,-1
 826 261 l 1,11,-1
 826 215 l 1,12,-1
 786 215 l 1,13,-1
 786 170 l 1,14,-1
 741 170 l 1,15,-1
 741 125 l 1,16,-1
 695 125 l 1,17,-1
 695 79 l 1,18,-1
 636 79 l 1,19,-1
 605 79 l 1,20,-1
 605 215 l 1,21,-1
 423 215 l 1,22,-1
 423 261 l 1,23,-1
 287 261 l 1,24,-1
 287 306 l 1,25,-1
 333 306 l 1,26,-1
 333 351 l 1,27,-1
 378 351 l 1,28,-1
 378 397 l 1,29,-1
 605 397 l 1,30,-1
 605 533 l 1,0,-1
242 215 m 1,31,-1
 196 215 l 1,32,-1
 196 261 l 1,33,-1
 242 261 l 1,34,-1
 242 215 l 1,31,-1
151 306 m 1,35,-1
 151 351 l 1,36,-1
 196 351 l 1,37,-1
 196 397 l 1,38,-1
 287 397 l 1,39,-1
 287 351 l 1,40,-1
 242 351 l 1,41,-1
 242 306 l 1,42,-1
 151 306 l 1,35,-1
EndSplineSet
EndChar

StartChar: uni2513
Encoding: 9487 9487 102
Width: 1024
GlyphClass: 2
Flags: W
LayerCount: 2
Fore
SplineSet
1024 469 m 1,0,-1
 1024 217 l 1,1,-1
 496 217 l 1,2,-1
 496 280 l 1,3,-1
 306 280 l 1,4,-1
 306 343 l 1,5,-1
 370 343 l 1,6,-1
 370 406 l 1,7,-1
 433 406 l 1,8,-1
 433 469 l 1,9,-1
 1024 469 l 1,0,-1
244 217 m 1,10,-1
 180 217 l 1,11,-1
 180 280 l 1,12,-1
 244 280 l 1,13,-1
 244 217 l 1,10,-1
117 343 m 1,14,-1
 117 406 l 1,15,-1
 180 406 l 1,16,-1
 180 469 l 1,17,-1
 306 469 l 1,18,-1
 306 406 l 1,19,-1
 244 406 l 1,20,-1
 244 343 l 1,21,-1
 117 343 l 1,14,-1
EndSplineSet
EndChar

StartChar: uni250F
Encoding: 9491 9491 103
Width: 1024
GlyphClass: 2
Flags: W
LayerCount: 2
Fore
SplineSet
0 469 m 1,0,-1
 591 469 l 1,1,-1
 591 406 l 1,2,-1
 654 406 l 1,3,-1
 654 343 l 1,4,-1
 718 343 l 1,5,-1
 718 280 l 1,6,-1
 528 280 l 1,7,-1
 528 217 l 1,8,-1
 0 217 l 1,9,-1
 0 469 l 1,0,-1
780 217 m 1,10,-1
 780 280 l 1,11,-1
 844 280 l 1,12,-1
 844 217 l 1,13,-1
 780 217 l 1,10,-1
907 343 m 1,14,-1
 780 343 l 1,15,-1
 780 406 l 1,16,-1
 718 406 l 1,17,-1
 718 469 l 1,18,-1
 844 469 l 1,19,-1
 844 406 l 1,20,-1
 907 406 l 1,21,-1
 907 343 l 1,14,-1
EndSplineSet
EndChar

StartChar: uni2684
Encoding: 9860 9860 104
Width: 1024
GlyphClass: 2
Flags: W
LayerCount: 2
Fore
SplineSet
143 729 m 1,0,-1
 881 729 l 1,1,-1
 881 676 l 1,2,-1
 934 676 l 1,3,-1
 934 -62 l 1,4,-1
 881 -62 l 1,5,-1
 881 -115 l 1,6,-1
 143 -115 l 1,7,-1
 143 -62 l 1,8,-1
 90 -62 l 1,9,-1
 90 676 l 1,10,-1
 143 676 l 1,11,-1
 143 729 l 1,0,-1
248 571 m 1,12,-1
 248 465 l 1,13,-1
 354 465 l 1,14,-1
 354 571 l 1,15,-1
 248 571 l 1,12,-1
670 571 m 1,16,-1
 670 465 l 1,17,-1
 776 465 l 1,18,-1
 776 571 l 1,19,-1
 670 571 l 1,16,-1
459 360 m 1,20,-1
 459 254 l 1,21,-1
 565 254 l 1,22,-1
 565 360 l 1,23,-1
 459 360 l 1,20,-1
670 149 m 1,24,-1
 670 43 l 1,25,-1
 776 43 l 1,26,-1
 776 149 l 1,27,-1
 670 149 l 1,24,-1
248 148 m 1,28,-1
 248 42 l 1,29,-1
 354 42 l 1,30,-1
 354 148 l 1,31,-1
 248 148 l 1,28,-1
EndSplineSet
EndChar

StartChar: uni2B05
Encoding: 11013 11013 105
Width: 1024
GlyphClass: 2
Flags: W
LayerCount: 2
Fore
SplineSet
1024 468 m 1,0,-1
 1024 218 l 1,1,-1
 387 217 l 1,2,-1
 387 28 l 1,3,-1
 261 28 l 1,4,-1
 261 91 l 1,5,-1
 198 91 l 1,6,-1
 198 154 l 1,7,-1
 135 154 l 1,8,-1
 135 217 l 1,9,-1
 72 217 l 1,10,-1
 72 274 l 1,11,-1
 72 280 l 1,12,-1
 10 280 l 1,13,-1
 10 406 l 1,14,-1
 72 406 l 1,15,-1
 72 469 l 1,16,-1
 135 469 l 1,17,-1
 135 532 l 1,18,-1
 198 532 l 1,19,-1
 198 594 l 1,20,-1
 261 594 l 1,21,-1
 261 658 l 1,22,-1
 387 658 l 1,23,-1
 387 469 l 1,24,-1
 1024 468 l 1,0,-1
EndSplineSet
EndChar

StartChar: uni2B95
Encoding: 11157 11157 106
Width: 1024
GlyphClass: 2
Flags: W
LayerCount: 2
Fore
SplineSet
-1 468 m 1,0,-1
 636 469 l 1,1,-1
 636 658 l 1,2,-1
 762 658 l 1,3,-1
 762 594 l 1,4,-1
 824 594 l 1,5,-1
 824 532 l 1,6,-1
 888 532 l 1,7,-1
 888 469 l 1,8,-1
 950 469 l 1,9,-1
 950 406 l 1,10,-1
 1012 406 l 1,11,-1
 1012 280 l 1,12,-1
 950 280 l 1,13,-1
 950 217 l 1,14,-1
 888 217 l 1,15,-1
 888 154 l 1,16,-1
 824 154 l 1,17,-1
 824 91 l 1,18,-1
 762 91 l 1,19,-1
 762 28 l 1,20,-1
 636 28 l 1,21,-1
 636 217 l 1,22,-1
 -1 218 l 1,23,-1
 -1 468 l 1,0,-1
EndSplineSet
EndChar

StartChar: u1F33F
Encoding: 127807 127807 107
Width: 1024
GlyphClass: 2
Flags: W
LayerCount: 2
Fore
SplineSet
964 803 m 5,0,-1
 964 652 l 5,1,-1
 914 652 l 5,2,-1
 914 602 l 5,3,-1
 863 602 l 5,4,-1
 863 552 l 5,5,-1
 763 552 l 5,6,-1
 763 502 l 5,7,-1
 713 502 l 5,8,-1
 713 451 l 5,9,-1
 663 451 l 5,10,-1
 663 401 l 5,11,-1
 813 401 l 5,12,-1
 813 451 l 5,13,-1
 964 451 l 5,14,-1
 964 351 l 5,15,-1
 914 351 l 5,16,-1
 914 301 l 5,17,-1
 663 301 l 5,18,-1
 663 351 l 5,19,-1
 562 351 l 5,20,-1
 562 301 l 5,21,-1
 512 301 l 5,22,-1
 512 251 l 5,23,-1
 612 251 l 5,24,-1
 612 200 l 5,25,-1
 763 200 l 5,26,-1
 763 150 l 5,27,-1
 813 150 l 5,28,-1
 813 100 l 5,29,-1
 562 100 l 5,30,-1
 562 150 l 5,31,-1
 512 150 l 5,32,-1
 512 200 l 5,33,-1
 412 200 l 5,34,-1
 412 150 l 5,35,-1
 361 150 l 5,36,-1
 361 100 l 5,37,-1
 311 100 l 5,38,-1
 311 50 l 5,39,-1
 462 50 l 5,40,-1
 462 0 l 5,41,-1
 512 0 l 5,42,-1
 512 -51 l 5,43,-1
 562 -51 l 5,44,-1
 562 -101 l 5,45,-1
 412 -101 l 5,46,-1
 412 -51 l 5,47,-1
 361 -51 l 5,48,-1
 361 0 l 5,49,-1
 211 0 l 5,50,-1
 211 -51 l 5,51,-1
 161 -51 l 5,52,-1
 161 -101 l 5,53,-1
 110 -101 l 5,54,-1
 110 -51 l 5,55,-1
 161 -51 l 5,56,-1
 161 150 l 5,57,-1
 110 150 l 5,58,-1
 110 200 l 5,59,-1
 60 200 l 5,60,-1
 60 351 l 5,61,-1
 110 351 l 5,62,-1
 110 301 l 5,63,-1
 161 301 l 5,64,-1
 161 251 l 5,65,-1
 211 251 l 5,66,-1
 211 100 l 5,67,-1
 261 100 l 5,68,-1
 261 150 l 5,69,-1
 311 150 l 5,70,-1
 311 200 l 5,71,-1
 361 200 l 5,72,-1
 361 301 l 5,73,-1
 261 301 l 5,74,-1
 261 401 l 5,75,-1
 211 401 l 5,76,-1
 211 552 l 5,77,-1
 261 552 l 5,78,-1
 261 602 l 5,79,-1
 311 602 l 5,80,-1
 311 451 l 5,81,-1
 361 451 l 5,82,-1
 361 351 l 5,83,-1
 412 351 l 5,84,-1
 412 301 l 5,85,-1
 462 301 l 5,86,-1
 462 351 l 5,87,-1
 512 351 l 5,88,-1
 512 502 l 5,89,-1
 462 502 l 5,90,-1
 462 552 l 5,91,-1
 412 552 l 5,92,-1
 412 702 l 5,93,-1
 462 702 l 5,94,-1
 462 753 l 5,95,-1
 512 753 l 5,96,-1
 512 652 l 5,97,-1
 562 652 l 5,98,-1
 562 451 l 5,99,-1
 612 451 l 5,100,-1
 612 502 l 5,101,-1
 663 502 l 5,102,-1
 663 602 l 5,103,-1
 713 602 l 5,104,-1
 713 702 l 5,105,-1
 763 702 l 5,106,-1
 763 753 l 5,107,-1
 863 753 l 5,108,-1
 863 803 l 5,109,-1
 964 803 l 5,0,-1
EndSplineSet
EndChar

StartChar: u1F401
Encoding: 128001 128001 108
Width: 1024
GlyphClass: 2
Flags: W
LayerCount: 2
Fore
SplineSet
506 800 m 5,0,-1
 639 800 l 5,1,-1
 639 756 l 5,2,-1
 683 756 l 5,3,-1
 683 622 l 5,4,-1
 728 622 l 5,5,-1
 728 578 l 5,6,-1
 772 578 l 5,7,-1
 772 533 l 5,8,-1
 817 533 l 5,9,-1
 817 444 l 5,10,-1
 861 444 l 5,11,-1
 861 311 l 5,12,-1
 772 311 l 5,13,-1
 772 355 l 5,14,-1
 683 355 l 5,15,-1
 683 400 l 5,16,-1
 594 400 l 5,17,-1
 594 311 l 5,18,-1
 639 311 l 5,19,-1
 639 222 l 5,20,-1
 594 222 l 5,21,-1
 594 266 l 5,22,-1
 550 266 l 5,23,-1
 550 311 l 5,24,-1
 506 311 l 5,25,-1
 506 266 l 5,26,-1
 461 266 l 5,27,-1
 461 222 l 5,28,-1
 550 222 l 5,29,-1
 550 178 l 5,30,-1
 594 178 l 5,31,-1
 594 133 l 5,32,-1
 639 133 l 5,33,-1
 639 44 l 5,34,-1
 594 44 l 5,35,-1
 594 0 l 5,36,-1
 550 0 l 5,37,-1
 550 -45 l 5,38,-1
 506 -45 l 5,39,-1
 506 -89 l 5,40,-1
 728 -89 l 5,41,-1
 728 -134 l 5,42,-1
 328 -134 l 5,43,-1
 328 -89 l 5,44,-1
 239 -89 l 5,45,-1
 239 -45 l 5,46,-1
 194 -45 l 5,47,-1
 194 0 l 5,48,-1
 150 0 l 5,49,-1
 150 89 l 5,50,-1
 105 89 l 5,51,-1
 105 311 l 5,52,-1
 150 311 l 5,53,-1
 150 400 l 5,54,-1
 194 400 l 5,55,-1
 194 444 l 5,56,-1
 239 444 l 5,57,-1
 239 489 l 5,58,-1
 328 489 l 5,59,-1
 328 533 l 5,60,-1
 550 533 l 5,61,-1
 550 578 l 5,62,-1
 506 578 l 5,63,-1
 506 622 l 5,64,-1
 461 622 l 5,65,-1
 461 756 l 5,66,-1
 506 756 l 5,67,-1
 506 800 l 5,0,-1
728 -89 m 5,68,-1
 728 -45 l 5,69,-1
 817 -45 l 5,70,-1
 817 -89 l 5,71,-1
 728 -89 l 5,68,-1
817 -45 m 5,72,-1
 817 0 l 5,73,-1
 861 0 l 5,74,-1
 861 -45 l 5,75,-1
 817 -45 l 5,72,-1
861 0 m 5,76,-1
 861 89 l 5,77,-1
 906 89 l 5,78,-1
 906 0 l 5,79,-1
 861 0 l 5,76,-1
861 89 m 5,80,-1
 817 89 l 5,81,-1
 817 133 l 5,82,-1
 861 133 l 5,83,-1
 861 89 l 5,80,-1
817 133 m 5,84,-1
 728 133 l 5,85,-1
 728 178 l 5,86,-1
 817 178 l 5,87,-1
 817 133 l 5,84,-1
683 533 m 5,88,-1
 683 489 l 5,89,-1
 728 489 l 5,90,-1
 728 444 l 5,91,-1
 772 444 l 5,92,-1
 772 489 l 5,93,-1
 728 489 l 5,94,-1
 728 533 l 5,95,-1
 683 533 l 5,88,-1
EndSplineSet
EndChar

StartChar: u1F43E
Encoding: 128062 128062 109
Width: 1024
GlyphClass: 2
Flags: W
LayerCount: 2
Fore
SplineSet
269 409 m 5,0,-1
 269 212 l 5,1,-1
 220 212 l 5,2,-1
 220 163 l 5,3,-1
 171 163 l 5,4,-1
 171 212 l 5,5,-1
 122 212 l 5,6,-1
 122 360 l 5,7,-1
 171 360 l 5,8,-1
 171 409 l 5,9,-1
 269 409 l 5,0,-1
220 458 m 5,10,-1
 171 458 l 5,11,-1
 171 507 l 5,12,-1
 220 507 l 5,13,-1
 220 458 l 5,10,-1
367 409 m 5,14,-1
 367 458 l 5,15,-1
 318 458 l 5,16,-1
 318 655 l 5,17,-1
 367 655 l 5,18,-1
 367 704 l 5,19,-1
 417 704 l 5,20,-1
 417 655 l 5,21,-1
 466 655 l 5,22,-1
 466 458 l 5,23,-1
 417 458 l 5,24,-1
 417 409 l 5,25,-1
 367 409 l 5,14,-1
367 753 m 5,26,-1
 367 802 l 5,27,-1
 417 802 l 5,28,-1
 417 753 l 5,29,-1
 367 753 l 5,26,-1
761 409 m 5,30,-1
 859 409 l 5,31,-1
 859 360 l 5,32,-1
 908 360 l 5,33,-1
 908 212 l 5,34,-1
 859 212 l 5,35,-1
 859 163 l 5,36,-1
 810 163 l 5,37,-1
 810 212 l 5,38,-1
 761 212 l 5,39,-1
 761 409 l 5,30,-1
810 458 m 5,40,-1
 810 507 l 5,41,-1
 859 507 l 5,42,-1
 859 458 l 5,43,-1
 810 458 l 5,40,-1
662 409 m 5,44,-1
 613 409 l 5,45,-1
 613 458 l 5,46,-1
 564 458 l 5,47,-1
 564 655 l 5,48,-1
 613 655 l 5,49,-1
 613 704 l 5,50,-1
 662 704 l 5,51,-1
 662 655 l 5,52,-1
 711 655 l 5,53,-1
 711 458 l 5,54,-1
 662 458 l 5,55,-1
 662 409 l 5,44,-1
662 753 m 5,56,-1
 613 753 l 5,57,-1
 613 802 l 5,58,-1
 662 802 l 5,59,-1
 662 753 l 5,56,-1
466 360 m 5,60,-1
 564 360 l 5,61,-1
 564 311 l 5,62,-1
 613 311 l 5,63,-1
 613 212 l 5,64,-1
 711 212 l 5,65,-1
 711 163 l 5,66,-1
 761 163 l 5,67,-1
 761 114 l 5,68,-1
 810 114 l 5,69,-1
 810 -83 l 5,70,-1
 761 -83 l 5,71,-1
 761 -132 l 5,72,-1
 662 -132 l 5,73,-1
 662 -33 l 5,74,-1
 613 -33 l 5,75,-1
 613 -83 l 5,76,-1
 564 -83 l 5,77,-1
 564 -132 l 5,78,-1
 466 -132 l 5,79,-1
 466 -83 l 5,80,-1
 417 -83 l 5,81,-1
 417 -33 l 5,82,-1
 367 -33 l 5,83,-1
 367 -132 l 5,84,-1
 269 -132 l 5,85,-1
 269 -83 l 5,86,-1
 220 -83 l 5,87,-1
 220 114 l 5,88,-1
 269 114 l 5,89,-1
 269 163 l 5,90,-1
 318 163 l 5,91,-1
 318 212 l 5,92,-1
 417 212 l 5,93,-1
 417 311 l 5,94,-1
 466 311 l 5,95,-1
 466 360 l 5,60,-1
EndSplineSet
EndChar

StartChar: u1F485
Encoding: 128133 128133 110
Width: 1024
GlyphClass: 2
Flags: WO
LayerCount: 2
Fore
SplineSet
376 751 m 1,0,-1
 422 751 l 1,1,-1
 422 706 l 1,2,-1
 512 706 l 1,3,-1
 512 660 l 1,4,-1
 557 660 l 1,5,-1
 557 615 l 1,6,-1
 602 615 l 1,7,-1
 602 570 l 1,8,-1
 648 570 l 1,9,-1
 648 525 l 1,10,-1
 692 525 l 1,11,-1
 692 480 l 1,12,-1
 737 480 l 1,13,-1
 737 390 l 1,14,-1
 782 390 l 1,15,-1
 782 345 l 1,16,-1
 827 345 l 1,17,-1
 827 255 l 1,18,-1
 873 255 l 1,19,-1
 873 75 l 1,20,-1
 827 75 l 1,21,-1
 827 164 l 1,22,-1
 782 164 l 1,23,-1
 782 210 l 1,24,-1
 737 210 l 1,25,-1
 737 300 l 1,26,-1
 692 300 l 1,27,-1
 692 390 l 1,28,-1
 648 390 l 1,29,-1
 648 436 l 1,30,-1
 602 436 l 1,31,-1
 602 480 l 1,32,-1
 557 480 l 1,33,-1
 557 570 l 1,34,-1
 512 570 l 1,35,-1
 512 615 l 1,36,-1
 467 615 l 1,37,-1
 467 660 l 1,38,-1
 422 660 l 1,39,-1
 422 706 l 1,40,-1
 376 706 l 1,41,-1
 376 751 l 1,0,-1
918 75 m 1,42,-1
 918 30 l 1,43,-1
 873 30 l 1,44,-1
 873 75 l 1,45,-1
 918 75 l 1,42,-1
197 706 m 1,46,-1
 242 706 l 1,47,-1
 242 660 l 1,48,-1
 287 660 l 1,49,-1
 287 615 l 1,50,-1
 332 615 l 1,51,-1
 332 570 l 1,52,-1
 376 570 l 1,53,-1
 376 525 l 1,54,-1
 422 525 l 1,55,-1
 422 480 l 1,56,-1
 467 480 l 1,57,-1
 467 436 l 1,58,-1
 512 436 l 1,59,-1
 512 390 l 1,60,-1
 557 390 l 1,61,-1
 557 300 l 1,62,-1
 602 300 l 1,63,-1
 602 255 l 1,64,-1
 648 255 l 1,65,-1
 648 164 l 1,66,-1
 692 164 l 1,67,-1
 692 75 l 1,68,-1
 737 75 l 1,69,-1
 737 -61 l 1,70,-1
 782 -61 l 1,71,-1
 782 -106 l 1,72,-1
 737 -106 l 1,73,-1
 737 -61 l 1,74,-1
 692 -61 l 1,75,-1
 692 -15 l 1,76,-1
 648 -15 l 1,77,-1
 648 30 l 1,78,-1
 602 30 l 1,79,-1
 602 120 l 1,80,-1
 557 120 l 1,81,-1
 557 164 l 1,82,-1
 512 164 l 1,83,-1
 512 255 l 1,84,-1
 467 255 l 1,85,-1
 467 300 l 1,86,-1
 422 300 l 1,87,-1
 422 345 l 1,88,-1
 376 345 l 1,89,-1
 376 436 l 1,90,-1
 332 436 l 1,91,-1
 332 480 l 1,92,-1
 287 480 l 1,93,-1
 287 570 l 1,94,-1
 242 570 l 1,95,-1
 242 660 l 1,96,-1
 197 660 l 1,97,-1
 197 706 l 1,46,-1
106 480 m 1,98,-1
 151 480 l 1,99,-1
 151 436 l 1,100,-1
 197 436 l 1,101,-1
 197 390 l 1,102,-1
 242 390 l 1,103,-1
 242 345 l 1,104,-1
 287 345 l 1,105,-1
 287 300 l 1,106,-1
 332 300 l 1,107,-1
 332 255 l 1,108,-1
 376 255 l 1,109,-1
 376 164 l 1,110,-1
 422 164 l 1,111,-1
 422 75 l 1,112,-1
 467 75 l 1,113,-1
 467 -15 l 1,114,-1
 512 -15 l 1,115,-1
 512 -106 l 1,116,-1
 557 -106 l 1,117,-1
 557 -151 l 1,118,-1
 512 -151 l 1,119,-1
 512 -106 l 1,120,-1
 467 -106 l 1,121,-1
 467 -61 l 1,122,-1
 422 -61 l 1,123,-1
 422 -15 l 1,124,-1
 376 -15 l 1,125,-1
 376 75 l 1,126,-1
 332 75 l 1,127,-1
 332 120 l 1,128,-1
 287 120 l 1,129,-1
 287 210 l 1,130,-1
 242 210 l 1,131,-1
 242 300 l 1,132,-1
 197 300 l 1,133,-1
 197 345 l 1,134,-1
 151 345 l 1,135,-1
 151 436 l 1,136,-1
 106 436 l 1,137,-1
 106 480 l 1,98,-1
EndSplineSet
EndChar

StartChar: u1F89C
Encoding: 129180 129180 111
Width: 1024
GlyphClass: 2
Flags: W
LayerCount: 2
Fore
SplineSet
1024 468 m 1,0,-1
 1024 218 l 1,1,-1
 0 217 l 1,2,-1
 0 469 l 1,3,-1
 1024 468 l 1,0,-1
EndSplineSet
EndChar

StartChar: u1F89E
Encoding: 129182 129182 112
Width: 512
GlyphClass: 2
Flags: W
LayerCount: 2
Fore
SplineSet
512 469 m 1,0,-1
 512 217 l 1,1,-1
 0 215 l 1,2,-1
 0 469 l 1,3,-1
 512 469 l 1,0,-1
EndSplineSet
EndChar

StartChar: u1F431
Encoding: 128049 128049 113
Width: 1024
Flags: W
LayerCount: 2
Fore
SplineSet
60 799 m 1,0,-1
 161 799 l 1,1,-1
 161 698 l 1,2,-1
 261 698 l 1,3,-1
 261 598 l 1,4,-1
 763 598 l 1,5,-1
 763 698 l 1,6,-1
 863 698 l 1,7,-1
 863 799 l 1,8,-1
 964 799 l 1,9,-1
 964 96 l 1,10,-1
 863 96 l 1,11,-1
 863 -4 l 1,12,-1
 763 -4 l 1,13,-1
 763 -105 l 1,14,-1
 261 -105 l 1,15,-1
 261 -4 l 1,16,-1
 161 -4 l 1,17,-1
 161 96 l 1,18,-1
 60 96 l 1,19,-1
 60 799 l 1,0,-1
261 397 m 1,20,-1
 261 196 l 1,21,-1
 361 196 l 1,22,-1
 361 397 l 1,23,-1
 261 397 l 1,20,-1
663 397 m 1,24,-1
 663 196 l 1,25,-1
 763 196 l 1,26,-1
 763 397 l 1,27,-1
 663 397 l 1,24,-1
EndSplineSet
EndChar

StartChar: house
Encoding: 8962 8962 114
Width: 1024
LayerCount: 2
Fore
SplineSet
58.509765625 799.490234375 m 1,0,-1
 109.009765625 799.490234375 l 1,1,-1
 109.009765625 748.990234375 l 1,2,-1
 159.509765625 748.990234375 l 1,3,-1
 159.509765625 698.490234375 l 1,4,-1
 209 698.490234375 l 1,5,-1
 209 649 l 1,6,-1
 259.5 649 l 1,7,-1
 259.5 598.5 l 1,8,-1
 310 598.5 l 1,9,-1
 310 548 l 1,10,-1
 714 548 l 1,11,-1
 714 598.5 l 1,12,-1
 764.5 598.5 l 1,13,-1
 764.5 649 l 1,14,-1
 815 649 l 1,15,-1
 815 698.490234375 l 1,16,-1
 864.490234375 698.490234375 l 1,17,-1
 864.490234375 748.990234375 l 1,18,-1
 914.990234375 748.990234375 l 1,19,-1
 914.990234375 799.490234375 l 1,20,-1
 965.490234375 799.490234375 l 1,21,-1
 965.490234375 -56.990234375 l 1,22,-1
 914.990234375 -56.990234375 l 1,23,-1
 914.990234375 -107.490234375 l 1,24,-1
 109.009765625 -107.490234375 l 1,25,-1
 109.009765625 -56.990234375 l 1,26,-1
 58.509765625 -56.990234375 l 1,27,-1
 58.509765625 799.490234375 l 1,0,-1
EndSplineSet
EndChar

StartChar: u1F3DA
Encoding: 127962 127962 115
Width: 1024
LayerCount: 2
Fore
SplineSet
60 799 m 1,0,-1
 110 799 l 1,1,-1
 110 749 l 1,2,-1
 161 749 l 1,3,-1
 161 698 l 1,4,-1
 211 698 l 1,5,-1
 211 648 l 1,6,-1
 261 648 l 1,7,-1
 261 598 l 1,8,-1
 311 598 l 1,9,-1
 311 548 l 1,10,-1
 411 548 l 0,11,12
 411 548 411 548 713 548 c 1,13,-1
 713 598 l 1,14,-1
 763 598 l 1,15,-1
 763 648 l 1,16,-1
 813 648 l 1,17,-1
 813 698 l 1,18,-1
 863 698 l 1,19,-1
 863 749 l 1,20,-1
 914 749 l 1,21,-1
 914 799 l 1,22,-1
 964 799 l 1,23,-1
 964 -55 l 1,24,-1
 914 -55 l 1,25,-1
 914 -105 l 1,26,-1
 612 -105 l 1,27,-1
 612 -55 l 1,28,-1
 562 -55 l 1,29,-1
 562 -4 l 1,30,-1
 462 -4 l 1,31,-1
 462 -55 l 1,32,-1
 412 -55 l 1,33,-1
 412 -105 l 1,34,-1
 110 -105 l 1,35,-1
 110 -55 l 1,36,-1
 60 -55 l 1,37,-1
 60 799 l 1,0,-1
412 397 m 1,38,-1
 412 347 l 1,39,-1
 361 347 l 1,40,-1
 361 247 l 1,41,-1
 462 247 l 1,42,-1
 462 297 l 1,43,-1
 562 297 l 1,44,-1
 562 196 l 1,45,-1
 512 196 l 1,46,-1
 512 146 l 1,47,-1
 462 146 l 1,48,-1
 462 46 l 1,49,-1
 562 46 l 1,50,-1
 562 96 l 1,51,-1
 612 96 l 1,52,-1
 612 146 l 1,53,-1
 663 146 l 1,54,-1
 663 347 l 1,55,-1
 612 347 l 1,56,-1
 612 397 l 1,57,-1
 412 397 l 1,38,-1
EndSplineSet
EndChar

StartChar: u1F3F0
Encoding: 127984 127984 116
Width: 1024
LayerCount: 2
Fore
SplineSet
60.5302734375 798.469726562 m 1,0,-1
 110.01953125 798.469726562 l 1,1,-1
 110.01953125 748.98046875 l 1,2,-1
 160.51953125 748.98046875 l 1,3,-1
 160.51953125 698.48046875 l 1,4,-1
 211.01953125 698.48046875 l 1,5,-1
 211.01953125 647.98046875 l 1,6,-1
 261.51953125 647.98046875 l 1,7,-1
 261.51953125 597.48046875 l 1,8,-1
 311.009765625 597.48046875 l 1,9,-1
 311.009765625 547.990234375 l 1,10,-1
 712.990234375 547.990234375 l 1,11,-1
 712.990234375 597.48046875 l 1,12,-1
 762.48046875 597.48046875 l 1,13,-1
 762.48046875 647.98046875 l 1,14,-1
 812.98046875 647.98046875 l 1,15,-1
 812.98046875 698.48046875 l 1,16,-1
 863.48046875 698.48046875 l 1,17,-1
 863.48046875 748.98046875 l 1,18,-1
 913.98046875 748.98046875 l 1,19,-1
 913.98046875 798.469726562 l 1,20,-1
 963.469726562 798.469726562 l 1,21,-1
 963.469726562 547.990234375 l 1,22,-1
 913.98046875 547.990234375 l 1,23,-1
 913.98046875 497.490234375 l 1,24,-1
 812.98046875 497.490234375 l 1,25,-1
 812.98046875 446.990234375 l 1,26,-1
 712.990234375 446.990234375 l 1,27,-1
 712.990234375 397.5 l 1,28,-1
 611.990234375 397.5 l 1,29,-1
 611.990234375 347 l 1,30,-1
 512 347 l 1,31,-1
 512 296.5 l 1,32,-1
 412.009765625 296.5 l 1,33,-1
 412.009765625 247.009765625 l 1,34,-1
 361.509765625 247.009765625 l 1,35,-1
 361.509765625 196.509765625 l 1,36,-1
 311.009765625 196.509765625 l 1,37,-1
 311.009765625 146.009765625 l 1,38,-1
 261.51953125 146.009765625 l 1,39,-1
 261.51953125 96.51953125 l 1,40,-1
 211.01953125 96.51953125 l 1,41,-1
 211.01953125 46.01953125 l 1,42,-1
 160.51953125 46.01953125 l 1,43,-1
 160.51953125 -4.48046875 l 1,44,-1
 110.01953125 -4.48046875 l 1,45,-1
 110.01953125 -54.98046875 l 1,46,-1
 60.5302734375 -54.98046875 l 1,47,-1
 60.5302734375 798.469726562 l 1,0,-1
913.98046875 446.990234375 m 1,48,-1
 963.469726562 446.990234375 l 1,49,-1
 963.469726562 -54.98046875 l 1,50,-1
 913.98046875 -54.98046875 l 1,51,-1
 913.98046875 -104.469726562 l 1,52,-1
 160.51953125 -104.469726562 l 1,53,-1
 160.51953125 -54.98046875 l 1,54,-1
 211.01953125 -54.98046875 l 1,55,-1
 211.01953125 -4.48046875 l 1,56,-1
 311.009765625 -4.48046875 l 1,57,-1
 311.009765625 46.01953125 l 1,58,-1
 412.009765625 46.01953125 l 1,59,-1
 412.009765625 96.51953125 l 1,60,-1
 461.5 96.51953125 l 1,61,-1
 461.5 146.009765625 l 1,62,-1
 562.5 146.009765625 l 1,63,-1
 562.5 196.509765625 l 1,64,-1
 662.490234375 196.509765625 l 1,65,-1
 662.490234375 247.009765625 l 1,66,-1
 712.990234375 247.009765625 l 1,67,-1
 712.990234375 296.5 l 1,68,-1
 812.98046875 296.5 l 1,69,-1
 812.98046875 347 l 1,70,-1
 863.48046875 347 l 1,71,-1
 863.48046875 397.5 l 1,72,-1
 913.98046875 397.5 l 1,73,-1
 913.98046875 446.990234375 l 1,48,-1
EndSplineSet
EndChar

StartChar: uni26EA
Encoding: 9962 9962 117
Width: 750
Flags: W
LayerCount: 2
Fore
SplineSet
318.6796875 797.560546875 m 1,0,-1
 431.3203125 797.560546875 l 1,1,-1
 431.3203125 403.3203125 l 1,2,-1
 656.599609375 403.3203125 l 1,3,-1
 656.599609375 290.6796875 l 1,4,-1
 431.3203125 290.6796875 l 1,5,-1
 431.3203125 -103.560546875 l 1,6,-1
 318.6796875 -103.560546875 l 1,7,-1
 318.6796875 290.6796875 l 1,8,-1
 93.400390625 290.6796875 l 1,9,-1
 93.400390625 403.3203125 l 1,10,-1
 282 403.3203125 l 0,11,12
 282 403.3203125 282 403.3203125 318.6796875 403.3203125 c 1,13,-1
 318.6796875 797.560546875 l 1,0,-1
121.560546875 600.439453125 m 1,14,-1
 234.19921875 600.439453125 l 1,15,-1
 234.19921875 487.799804688 l 1,16,-1
 121.560546875 487.799804688 l 1,17,-1
 121.560546875 600.439453125 l 1,14,-1
515.80078125 600.439453125 m 1,18,-1
 628.439453125 600.439453125 l 1,19,-1
 628.439453125 487.799804688 l 1,20,-1
 515.80078125 487.799804688 l 1,21,-1
 515.80078125 600.439453125 l 1,18,-1
121.560546875 206.200195312 m 1,22,-1
 234.19921875 206.200195312 l 1,23,-1
 234.19921875 93.560546875 l 1,24,-1
 121.560546875 93.560546875 l 1,25,-1
 121.560546875 206.200195312 l 1,22,-1
515.80078125 206.200195312 m 1,26,-1
 628.439453125 206.200195312 l 1,27,-1
 628.439453125 93.560546875 l 1,28,-1
 515.80078125 93.560546875 l 1,29,-1
 515.80078125 206.200195312 l 1,26,-1
EndSplineSet
EndChar

StartChar: u1F4A7
Encoding: 128167 128167 118
Width: 750
Flags: W
LayerCount: 2
Fore
SplineSet
205.587890625 7.1767578125 m 1,0,-1
 92.6474609375 7.1767578125 l 1,1,-1
 92.6474609375 346 l 1,2,-1
 205.587890625 346 l 1,3,-1
 205.587890625 571.8828125 l 1,4,-1
 318.529296875 571.8828125 l 1,5,-1
 318.529296875 797.764648438 l 1,6,-1
 431.470703125 797.764648438 l 1,7,-1
 431.470703125 571.8828125 l 1,8,-1
 544.412109375 571.8828125 l 1,9,-1
 544.412109375 346 l 1,10,-1
 657.352539062 346 l 1,11,-1
 657.352539062 7.1767578125 l 1,12,-1
 544.412109375 7.1767578125 l 1,13,-1
 544.412109375 -105.764648438 l 1,14,-1
 205.587890625 -105.764648438 l 1,15,-1
 205.587890625 7.1767578125 l 1,0,-1
EndSplineSet
EndChar

StartChar: uni23E9
Encoding: 9193 9193 119
Width: 1024
Flags: W
LayerCount: 2
Fore
SplineSet
782 531 m 1,0,-1
 692 531 l 1,1,-1
 692 378 l 1,2,-1
 737 378 l 1,3,-1
 737 351 l 1,4,-1
 782 351 l 1,5,-1
 782 261 l 1,6,-1
 737 261 l 1,7,-1
 737 216 l 1,8,-1
 692 216 l 1,9,-1
 692 81 l 1,10,-1
 782 81 l 1,11,-1
 782 126 l 1,12,-1
 827 126 l 1,13,-1
 827 171 l 1,14,-1
 872 171 l 1,15,-1
 872 216 l 1,16,-1
 917 216 l 1,17,-1
 917 261 l 1,18,-1
 962 261 l 1,19,-1
 962 351 l 1,20,-1
 917 351 l 1,21,-1
 917 378 l 1,22,-1
 872 378 l 1,23,-1
 872 441 l 1,24,-1
 827 441 l 1,25,-1
 827 486 l 1,26,-1
 782 486 l 1,27,-1
 782 531 l 1,0,-1
467 531 m 1,28,-1
 377 531 l 1,29,-1
 377 396 l 1,30,-1
 197 396 l 1,31,-1
 197 351 l 1,32,-1
 62 351 l 1,33,-1
 62 306 l 1,34,-1
 107 306 l 1,35,-1
 107 261 l 1,36,-1
 152 261 l 1,37,-1
 152 216 l 1,38,-1
 377 216 l 1,39,-1
 377 81 l 1,40,-1
 467 81 l 1,41,-1
 467 126 l 1,42,-1
 512 126 l 1,43,-1
 512 171 l 1,44,-1
 557 171 l 1,45,-1
 557 216 l 1,46,-1
 602 216 l 1,47,-1
 602 261 l 1,48,-1
 647 261 l 1,49,-1
 647 351 l 1,50,-1
 602 351 l 1,51,-1
 602 378 l 1,52,-1
 557 378 l 1,53,-1
 557 441 l 1,54,-1
 512 441 l 1,55,-1
 512 486 l 1,56,-1
 467 486 l 1,57,-1
 467 531 l 1,28,-1
EndSplineSet
EndChar

StartChar: uni23EA
Encoding: 9194 9194 120
Width: 1024
Flags: W
LayerCount: 2
Fore
SplineSet
242 531 m 5,0,-1
 332 531 l 5,1,-1
 332 378 l 5,2,-1
 287 378 l 5,3,-1
 287 351 l 5,4,-1
 242 351 l 5,5,-1
 242 261 l 5,6,-1
 287 261 l 5,7,-1
 287 216 l 5,8,-1
 332 216 l 5,9,-1
 332 81 l 5,10,-1
 242 81 l 5,11,-1
 242 126 l 5,12,-1
 197 126 l 5,13,-1
 197 171 l 5,14,-1
 152 171 l 5,15,-1
 152 216 l 5,16,-1
 107 216 l 5,17,-1
 107 261 l 5,18,-1
 62 261 l 5,19,-1
 62 351 l 5,20,-1
 107 351 l 5,21,-1
 107 378 l 5,22,-1
 152 378 l 5,23,-1
 152 441 l 5,24,-1
 197 441 l 5,25,-1
 197 486 l 5,26,-1
 242 486 l 5,27,-1
 242 531 l 5,0,-1
557 531 m 5,28,-1
 647 531 l 5,29,-1
 647 396 l 5,30,-1
 827 396 l 5,31,-1
 827 351 l 5,32,-1
 962 351 l 5,33,-1
 962 306 l 5,34,-1
 917 306 l 5,35,-1
 917 261 l 5,36,-1
 872 261 l 5,37,-1
 872 216 l 5,38,-1
 647 216 l 5,39,-1
 647 81 l 5,40,-1
 557 81 l 5,41,-1
 557 126 l 5,42,-1
 512 126 l 5,43,-1
 512 171 l 5,44,-1
 467 171 l 5,45,-1
 467 216 l 5,46,-1
 422 216 l 5,47,-1
 422 261 l 5,48,-1
 377 261 l 5,49,-1
 377 351 l 5,50,-1
 422 351 l 5,51,-1
 422 378 l 5,52,-1
 467 378 l 5,53,-1
 467 441 l 5,54,-1
 512 441 l 5,55,-1
 512 486 l 5,56,-1
 557 486 l 5,57,-1
 557 531 l 5,28,-1
EndSplineSet
EndChar

StartChar: u1FAB4
Encoding: 129716 129716 121
Width: 1024
Flags: W
LayerCount: 2
Fore
SplineSet
453 361.412109375 m 1,0,-1
 212.05859375 361.412109375 l 1,1,-1
 212.05859375 481.881835938 l 1,2,-1
 91.587890625 481.881835938 l 1,3,-1
 91.587890625 722.823242188 l 1,4,-1
 332.529296875 722.823242188 l 1,5,-1
 332.529296875 602.352539062 l 1,6,-1
 453 602.352539062 l 1,7,-1
 453 481.881835938 l 1,8,-1
 573.470703125 481.881835938 l 1,9,-1
 573.470703125 602.352539062 l 1,10,-1
 693.94140625 602.352539062 l 1,11,-1
 693.94140625 722.823242188 l 1,12,-1
 934.8828125 722.823242188 l 1,13,-1
 934.8828125 481.881835938 l 1,14,-1
 814.412109375 481.881835938 l 1,15,-1
 814.412109375 361.412109375 l 1,16,-1
 573.470703125 361.412109375 l 1,17,-1
 573.470703125 0 l 1,18,-1
 453 0 l 1,19,-1
 453 361.412109375 l 1,0,-1
EndSplineSet
EndChar

StartChar: uni2600
Encoding: 9728 9728 122
Width: 1024
LayerCount: 2
Fore
SplineSet
470.587890625 799.529296875 m 5,0,-1
 553.412109375 799.529296875 l 5,1,-1
 553.412109375 633.8828125 l 5,2,-1
 470.587890625 633.8828125 l 5,3,-1
 470.587890625 799.529296875 l 5,0,-1
139.293945312 716.706054688 m 5,4,-1
 222.1171875 716.706054688 l 5,5,-1
 222.1171875 633.8828125 l 5,6,-1
 139.293945312 633.8828125 l 5,7,-1
 139.293945312 716.706054688 l 5,4,-1
222.1171875 633.8828125 m 5,8,-1
 304.94140625 633.8828125 l 5,9,-1
 304.94140625 551.05859375 l 5,10,-1
 222.1171875 551.05859375 l 5,11,-1
 222.1171875 633.8828125 l 5,8,-1
801.8828125 716.706054688 m 5,12,-1
 884.706054688 716.706054688 l 5,13,-1
 884.706054688 633.8828125 l 5,14,-1
 801.8828125 633.8828125 l 5,15,-1
 801.8828125 716.706054688 l 5,12,-1
801.8828125 633.8828125 m 5,16,-1
 801.8828125 551.05859375 l 5,17,-1
 719.05859375 551.05859375 l 5,18,-1
 719.05859375 633.8828125 l 5,19,-1
 801.8828125 633.8828125 l 5,16,-1
387.764648438 551.05859375 m 5,20,-1
 636.235351562 551.05859375 l 5,21,-1
 636.235351562 468.235351562 l 5,22,-1
 719.05859375 468.235351562 l 5,23,-1
 719.05859375 219.764648438 l 5,24,-1
 636.235351562 219.764648438 l 5,25,-1
 636.235351562 136.94140625 l 5,26,-1
 387.764648438 136.94140625 l 5,27,-1
 387.764648438 219.764648438 l 5,28,-1
 304.94140625 219.764648438 l 5,29,-1
 304.94140625 468.235351562 l 5,30,-1
 387.764648438 468.235351562 l 5,31,-1
 387.764648438 551.05859375 l 5,20,-1
56.470703125 385.412109375 m 5,32,-1
 222.1171875 385.412109375 l 5,33,-1
 222.1171875 302.587890625 l 5,34,-1
 56.470703125 302.587890625 l 5,35,-1
 56.470703125 385.412109375 l 5,32,-1
801.8828125 385.412109375 m 5,36,-1
 967.529296875 385.412109375 l 5,37,-1
 967.529296875 302.587890625 l 5,38,-1
 801.8828125 302.587890625 l 5,39,-1
 801.8828125 385.412109375 l 5,36,-1
222.1171875 136.94140625 m 5,40,-1
 304.94140625 136.94140625 l 5,41,-1
 304.94140625 54.1171875 l 5,42,-1
 222.1171875 54.1171875 l 5,43,-1
 222.1171875 136.94140625 l 5,40,-1
222.1171875 54.1171875 m 5,44,-1
 222.1171875 -28.7060546875 l 5,45,-1
 139.293945312 -28.7060546875 l 5,46,-1
 139.293945312 54.1171875 l 5,47,-1
 222.1171875 54.1171875 l 5,44,-1
719.05859375 136.94140625 m 5,48,-1
 801.8828125 136.94140625 l 5,49,-1
 801.8828125 54.1171875 l 5,50,-1
 719.05859375 54.1171875 l 5,51,-1
 719.05859375 136.94140625 l 5,48,-1
801.8828125 54.1171875 m 5,52,-1
 884.706054688 54.1171875 l 5,53,-1
 884.706054688 -28.7060546875 l 5,54,-1
 801.8828125 -28.7060546875 l 5,55,-1
 801.8828125 54.1171875 l 5,52,-1
470.587890625 54.1171875 m 5,56,-1
 553.412109375 54.1171875 l 5,57,-1
 553.412109375 -111.529296875 l 5,58,-1
 470.587890625 -111.529296875 l 5,59,-1
 470.587890625 54.1171875 l 5,56,-1
EndSplineSet
EndChar

StartChar: uni2744
Encoding: 10052 10052 123
Width: 1024
LayerCount: 2
Fore
SplineSet
0 791 m 1,0,-1
 1 791 l 1,1,-1
 1 790 l 1,2,-1
 0 790 l 1,3,-1
 0 791 l 1,0,-1
1 790 m 1,4,-1
 1 789 l 1,5,-1
 2 789 l 1,6,-1
 2 790 l 1,7,-1
 1 790 l 1,4,-1
2 789 m 1,8,-1
 2 788 l 1,9,-1
 3 788 l 1,10,-1
 3 789 l 1,11,-1
 2 789 l 1,8,-1
3 789 m 1,12,-1
 4 789 l 1,13,-1
 4 790 l 1,14,-1
 3 790 l 1,15,-1
 3 789 l 1,12,-1
3 788 m 1,16,-1
 3 787 l 1,17,-1
 4 787 l 1,18,-1
 4 788 l 1,19,-1
 3 788 l 1,16,-1
1 789 m 1,20,-1
 0 789 l 1,21,-1
 0 787 l 1,22,-1
 1 787 l 1,23,-1
 1 789 l 1,20,-1
464.671875 768.94921875 m 1,24,-1
 559.328125 768.94921875 l 1,25,-1
 559.328125 674.293945312 l 1,26,-1
 464.671875 674.293945312 l 1,27,-1
 464.671875 768.94921875 l 1,24,-1
559.328125 674.293945312 m 1,28,-1
 653.983398438 674.293945312 l 1,29,-1
 653.983398438 579.638671875 l 1,30,-1
 559.328125 579.638671875 l 1,31,-1
 559.328125 674.293945312 l 1,28,-1
653.983398438 579.638671875 m 1,32,-1
 748.638671875 579.638671875 l 1,33,-1
 748.638671875 484.983398438 l 1,34,-1
 653.983398438 484.983398438 l 1,35,-1
 653.983398438 579.638671875 l 1,32,-1
748.638671875 579.638671875 m 1,36,-1
 748.638671875 674.293945312 l 1,37,-1
 843.293945312 674.293945312 l 1,38,-1
 843.293945312 579.638671875 l 1,39,-1
 748.638671875 579.638671875 l 1,36,-1
748.638671875 484.983398438 m 1,40,-1
 843.293945312 484.983398438 l 1,41,-1
 843.293945312 390.328125 l 1,42,-1
 748.638671875 390.328125 l 1,43,-1
 748.638671875 484.983398438 l 1,40,-1
843.293945312 390.328125 m 1,44,-1
 937.94921875 390.328125 l 1,45,-1
 937.94921875 295.671875 l 1,46,-1
 843.293945312 295.671875 l 1,47,-1
 843.293945312 390.328125 l 1,44,-1
843.293945312 295.671875 m 1,48,-1
 843.293945312 201.016601562 l 1,49,-1
 748.638671875 201.016601562 l 1,50,-1
 748.638671875 295.671875 l 1,51,-1
 843.293945312 295.671875 l 1,48,-1
748.638671875 201.016601562 m 1,52,-1
 748.638671875 106.361328125 l 1,53,-1
 653.983398438 106.361328125 l 1,54,-1
 653.983398438 201.016601562 l 1,55,-1
 748.638671875 201.016601562 l 1,52,-1
748.638671875 106.361328125 m 1,56,-1
 843.293945312 106.361328125 l 1,57,-1
 843.293945312 11.7060546875 l 1,58,-1
 748.638671875 11.7060546875 l 1,59,-1
 748.638671875 106.361328125 l 1,56,-1
653.983398438 106.361328125 m 1,60,-1
 653.983398438 11.7060546875 l 1,61,-1
 559.328125 11.7060546875 l 1,62,-1
 559.328125 106.361328125 l 1,63,-1
 653.983398438 106.361328125 l 1,60,-1
559.328125 11.7060546875 m 1,64,-1
 559.328125 -82.94921875 l 1,65,-1
 464.671875 -82.94921875 l 1,66,-1
 464.671875 11.7060546875 l 1,67,-1
 559.328125 11.7060546875 l 1,64,-1
464.671875 11.7060546875 m 1,68,-1
 370.016601562 11.7060546875 l 1,69,-1
 370.016601562 106.361328125 l 1,70,-1
 464.671875 106.361328125 l 1,71,-1
 464.671875 11.7060546875 l 1,68,-1
370.016601562 106.361328125 m 1,72,-1
 275.361328125 106.361328125 l 1,73,-1
 275.361328125 201.016601562 l 1,74,-1
 370.016601562 201.016601562 l 1,75,-1
 370.016601562 106.361328125 l 1,72,-1
275.361328125 106.361328125 m 1,76,-1
 275.361328125 11.7060546875 l 1,77,-1
 180.706054688 11.7060546875 l 1,78,-1
 180.706054688 106.361328125 l 1,79,-1
 275.361328125 106.361328125 l 1,76,-1
275.361328125 201.016601562 m 1,80,-1
 180.706054688 201.016601562 l 1,81,-1
 180.706054688 295.671875 l 1,82,-1
 275.361328125 295.671875 l 1,83,-1
 275.361328125 201.016601562 l 1,80,-1
180.706054688 295.671875 m 1,84,-1
 86.05078125 295.671875 l 1,85,-1
 86.05078125 390.328125 l 1,86,-1
 180.706054688 390.328125 l 1,87,-1
 180.706054688 295.671875 l 1,84,-1
180.706054688 390.328125 m 1,88,-1
 180.706054688 484.983398438 l 1,89,-1
 275.361328125 484.983398438 l 1,90,-1
 275.361328125 390.328125 l 1,91,-1
 180.706054688 390.328125 l 1,88,-1
275.361328125 484.983398438 m 1,92,-1
 275.361328125 579.638671875 l 1,93,-1
 370.016601562 579.638671875 l 1,94,-1
 370.016601562 484.983398438 l 1,95,-1
 275.361328125 484.983398438 l 1,92,-1
275.361328125 579.638671875 m 1,96,-1
 180.706054688 579.638671875 l 1,97,-1
 180.706054688 674.293945312 l 1,98,-1
 275.361328125 674.293945312 l 1,99,-1
 275.361328125 579.638671875 l 1,96,-1
370.016601562 579.638671875 m 1,100,-1
 370.016601562 674.293945312 l 1,101,-1
 464.671875 674.293945312 l 1,102,-1
 464.671875 579.638671875 l 1,103,-1
 370.016601562 579.638671875 l 1,100,-1
464.671875 579.638671875 m 1,104,-1
 559.328125 579.638671875 l 1,105,-1
 559.328125 390.328125 l 1,106,-1
 464.671875 390.328125 l 1,107,-1
 464.671875 579.638671875 l 1,104,-1
559.328125 390.328125 m 1,108,-1
 748.638671875 390.328125 l 1,109,-1
 748.638671875 295.671875 l 1,110,-1
 559.328125 295.671875 l 1,111,-1
 559.328125 390.328125 l 1,108,-1
559.328125 295.671875 m 1,112,-1
 559.328125 106.361328125 l 1,113,-1
 464.671875 106.361328125 l 1,114,-1
 464.671875 295.671875 l 1,115,-1
 559.328125 295.671875 l 1,112,-1
464.671875 295.671875 m 1,116,-1
 275.361328125 295.671875 l 1,117,-1
 275.361328125 390.328125 l 1,118,-1
 464.671875 390.328125 l 1,119,-1
 464.671875 295.671875 l 1,116,-1
EndSplineSet
EndChar

StartChar: u1F342
Encoding: 127810 127810 124
Width: 1024
LayerCount: 2
Fore
SplineSet
460.370117188 796.671875 m 5,0,-1
 563.629882812 796.671875 l 5,1,-1
 563.629882812 693.412109375 l 5,2,-1
 666.890625 693.412109375 l 5,3,-1
 666.890625 590.151367188 l 5,4,-1
 770.151367188 590.151367188 l 5,5,-1
 770.151367188 177.109375 l 5,6,-1
 666.890625 177.109375 l 5,7,-1
 666.890625 73.8486328125 l 5,8,-1
 563.629882812 73.8486328125 l 5,9,-1
 563.629882812 590.151367188 l 5,10,-1
 460.370117188 590.151367188 l 5,11,-1
 460.370117188 73.8486328125 l 5,12,-1
 357.109375 73.8486328125 l 5,13,-1
 357.109375 177.109375 l 5,14,-1
 253.848632812 177.109375 l 5,15,-1
 253.848632812 590.151367188 l 5,16,-1
 357.109375 590.151367188 l 5,17,-1
 357.109375 693.412109375 l 5,18,-1
 460.370117188 693.412109375 l 5,19,-1
 460.370117188 796.671875 l 5,0,-1
563.629882812 73.8486328125 m 5,20,-1
 563.629882812 -132.671875 l 5,21,-1
 460.370117188 -132.671875 l 5,22,-1
 460.370117188 73.8486328125 l 5,23,-1
 563.629882812 73.8486328125 l 5,20,-1
EndSplineSet
EndChar

StartChar: u1F50D
Encoding: 128269 128269 125
Width: 1024
LayerCount: 2
Fore
SplineSet
305.859375 742.647460938 m 1,0,-1
 489.095703125 742.647460938 l 1,1,-1
 489.095703125 698.028320312 l 1,2,-1
 580.712890625 698.028320312 l 1,3,-1
 580.712890625 653.409179688 l 1,4,-1
 626.5234375 653.409179688 l 1,5,-1
 626.5234375 608.791015625 l 1,6,-1
 672.33203125 608.791015625 l 1,7,-1
 672.33203125 564.171875 l 1,8,-1
 672.33203125 519.553710938 l 1,9,-1
 718.140625 519.553710938 l 1,10,-1
 718.140625 341.078125 l 1,11,-1
 672.33203125 341.078125 l 1,12,-1
 672.33203125 252.015625 l 1,13,-1
 672.33203125 207.22265625 l 1,14,-1
 718.140625 207.22265625 l 1,15,-1
 718.140625 162.603515625 l 1,16,-1
 763.951171875 162.603515625 l 1,17,-1
 763.951171875 117.983398438 l 1,18,-1
 809.759765625 117.983398438 l 1,19,-1
 809.759765625 73.365234375 l 1,20,-1
 855.568359375 73.365234375 l 1,21,-1
 855.568359375 28.74609375 l 1,22,-1
 901.37890625 28.74609375 l 1,23,-1
 901.37890625 -15.873046875 l 1,24,-1
 947.1875 -15.873046875 l 1,25,-1
 947.1875 -60.4912109375 l 1,26,-1
 901.37890625 -60.4912109375 l 1,27,-1
 901.37890625 -105.110351562 l 1,28,-1
 855.568359375 -105.110351562 l 1,29,-1
 855.568359375 -60.4912109375 l 1,30,-1
 809.759765625 -60.4912109375 l 1,31,-1
 809.759765625 -15.87109375 l 1,32,-1
 763.951171875 -15.87109375 l 1,33,-1
 763.951171875 28.748046875 l 1,34,-1
 718.140625 28.748046875 l 1,35,-1
 718.140625 73.3662109375 l 1,36,-1
 672.33203125 73.3662109375 l 1,37,-1
 672.33203125 118.159179688 l 1,38,-1
 626.5234375 118.159179688 l 1,39,-1
 626.5234375 162.778320312 l 1,40,-1
 580.712890625 162.778320312 l 1,41,-1
 534.904296875 162.603515625 l 1,42,-1
 489.095703125 162.603515625 l 1,43,-1
 489.095703125 117.984375 l 1,44,-1
 305.859375 117.984375 l 1,45,-1
 305.859375 162.603515625 l 1,46,-1
 214.240234375 162.603515625 l 1,47,-1
 214.240234375 207.22265625 l 1,48,-1
 168.431640625 207.22265625 l 1,49,-1
 168.431640625 251.840820312 l 1,50,-1
 122.62109375 251.840820312 l 1,51,-1
 122.62109375 296.459960938 l 1,52,-1
 122.62109375 341.078125 l 1,53,-1
 76.8125 341.078125 l 1,54,-1
 76.8125 519.553710938 l 1,55,-1
 122.62109375 519.553710938 l 1,56,-1
 122.62109375 608.791015625 l 1,57,-1
 168.431640625 608.791015625 l 1,58,-1
 168.431640625 653.409179688 l 1,59,-1
 214.240234375 653.409179688 l 1,60,-1
 214.240234375 698.028320312 l 1,61,-1
 260.048828125 698.028320312 l 1,62,-1
 305.859375 698.028320312 l 1,63,-1
 305.859375 742.647460938 l 1,0,-1
260.048828125 653.409179688 m 1,64,-1
 260.048828125 608.791015625 l 1,65,-1
 214.240234375 608.791015625 l 1,66,-1
 214.240234375 564.171875 l 1,67,-1
 168.431640625 564.171875 l 1,68,-1
 168.431640625 341.078125 l 1,69,-1
 168.431640625 296.459960938 l 1,70,-1
 214.240234375 296.459960938 l 1,71,-1
 214.240234375 251.840820312 l 1,72,-1
 260.048828125 251.840820312 l 1,73,-1
 260.048828125 207.22265625 l 1,74,-1
 489.095703125 207.22265625 l 1,75,-1
 534.904296875 207.22265625 l 1,76,-1
 534.904296875 251.840820312 l 1,77,-1
 580.712890625 251.840820312 l 1,78,-1
 580.712890625 296.459960938 l 1,79,-1
 626.5234375 296.459960938 l 1,80,-1
 626.5234375 519.553710938 l 1,81,-1
 626.5234375 564.171875 l 1,82,-1
 580.712890625 564.171875 l 1,83,-1
 580.712890625 608.791015625 l 1,84,-1
 534.904296875 608.791015625 l 1,85,-1
 534.904296875 653.409179688 l 1,86,-1
 305.859375 653.409179688 l 1,87,-1
 260.048828125 653.409179688 l 1,64,-1
397.4765625 608.791015625 m 1,88,-1
 489.095703125 608.791015625 l 1,89,-1
 489.095703125 564.171875 l 1,90,-1
 397.4765625 564.171875 l 1,91,-1
 397.4765625 608.791015625 l 1,88,-1
489.095703125 564.171875 m 1,92,-1
 534.904296875 564.171875 l 1,93,-1
 534.904296875 519.553710938 l 1,94,-1
 489.095703125 519.553710938 l 1,95,-1
 489.095703125 564.171875 l 1,92,-1
534.904296875 519.553710938 m 1,96,-1
 580.712890625 519.553710938 l 1,97,-1
 580.712890625 385.697265625 l 1,98,-1
 534.904296875 385.697265625 l 1,99,-1
 534.904296875 519.553710938 l 1,96,-1
EndSplineSet
EndChar

StartChar: u1F5C9
Encoding: 128457 128457 126
Width: 1024
LayerCount: 2
Fore
SplineSet
150.587890625 804.671875 m 5,0,-1
 873.412109375 804.671875 l 5,1,-1
 873.412109375 -124.671875 l 5,2,-1
 150.587890625 -124.671875 l 5,3,-1
 150.587890625 804.671875 l 5,0,-1
253.848632812 598.151367188 m 5,4,-1
 253.848632812 494.890625 l 5,5,-1
 770.151367188 494.890625 l 5,6,-1
 770.151367188 598.151367188 l 5,7,-1
 253.848632812 598.151367188 l 5,4,-1
253.848632812 391.629882812 m 5,8,-1
 253.848632812 288.370117188 l 5,9,-1
 770.151367188 288.370117188 l 5,10,-1
 770.151367188 391.629882812 l 5,11,-1
 253.848632812 391.629882812 l 5,8,-1
253.848632812 185.109375 m 5,12,-1
 253.848632812 81.8486328125 l 5,13,-1
 770.151367188 81.8486328125 l 5,14,-1
 770.151367188 185.109375 l 5,15,-1
 253.848632812 185.109375 l 5,12,-1
EndSplineSet
EndChar

StartChar: u1F50A
Encoding: 128266 128266 127
Width: 1024
LayerCount: 2
Fore
SplineSet
519.796875 787.997070312 m 5,0,-1
 617.37890625 787.997070312 l 5,1,-1
 617.37890625 -90.232421875 l 5,2,-1
 519.796875 -90.232421875 l 5,3,-1
 519.796875 7.3486328125 l 5,4,-1
 422.216796875 7.3486328125 l 5,5,-1
 422.216796875 104.928710938 l 5,6,-1
 324.634765625 104.928710938 l 5,7,-1
 324.634765625 202.510742188 l 5,8,-1
 31.8916015625 202.510742188 l 5,9,-1
 31.8916015625 495.25390625 l 5,10,-1
 324.634765625 495.25390625 l 5,11,-1
 324.634765625 592.8359375 l 5,12,-1
 422.216796875 592.8359375 l 5,13,-1
 422.216796875 690.416015625 l 5,14,-1
 519.796875 690.416015625 l 5,15,-1
 519.796875 787.997070312 l 5,0,-1
801.122070312 690.416015625 m 1,16,-1
 898.703125 690.416015625 l 1,17,-1
 898.703125 592.8359375 l 1,18,-1
 801.122070312 592.8359375 l 1,19,-1
 801.122070312 690.416015625 l 1,16,-1
801.122070312 592.8359375 m 1,20,-1
 801.122070312 495.25390625 l 1,21,-1
 703.541992188 495.25390625 l 1,22,-1
 703.541992188 592.8359375 l 1,23,-1
 801.122070312 592.8359375 l 1,20,-1
703.541992188 397.672851562 m 1,24,-1
 996.28515625 397.672851562 l 1,25,-1
 996.28515625 300.091796875 l 1,26,-1
 703.541992188 300.091796875 l 1,27,-1
 703.541992188 397.672851562 l 1,24,-1
703.541992188 202.510742188 m 1,28,-1
 801.122070312 202.510742188 l 1,29,-1
 801.122070312 104.928710938 l 1,30,-1
 703.541992188 104.928710938 l 1,31,-1
 703.541992188 202.510742188 l 1,28,-1
801.122070312 104.928710938 m 1,32,-1
 898.703125 104.928710938 l 1,33,-1
 898.703125 7.3486328125 l 1,34,-1
 801.122070312 7.3486328125 l 1,35,-1
 801.122070312 104.928710938 l 1,32,-1
EndSplineSet
EndChar

StartChar: u1F507
Encoding: 128263 128263 128
Width: 1024
Flags: W
LayerCount: 2
Fore
SplineSet
519.796875 787.997070312 m 1,0,-1
 617.37890625 787.997070312 l 1,1,-1
 617.37890625 -90.232421875 l 1,2,-1
 519.796875 -90.232421875 l 1,3,-1
 519.796875 7.3486328125 l 1,4,-1
 422.216796875 7.3486328125 l 1,5,-1
 422.216796875 104.928710938 l 1,6,-1
 324.634765625 104.928710938 l 1,7,-1
 324.634765625 202.510742188 l 1,8,-1
 31.8916015625 202.510742188 l 1,9,-1
 31.8916015625 495.25390625 l 1,10,-1
 324.634765625 495.25390625 l 1,11,-1
 324.634765625 592.8359375 l 1,12,-1
 422.216796875 592.8359375 l 1,13,-1
 422.216796875 690.416015625 l 1,14,-1
 519.796875 690.416015625 l 1,15,-1
 519.796875 787.997070312 l 1,0,-1
EndSplineSet
EndChar
